%TF.GenerationSoftware,KiCad,Pcbnew,9.0.6-9.0.6~ubuntu24.04.1*%
%TF.CreationDate,2026-01-12T20:01:20+00:00*%
%TF.ProjectId,CarrierBoard,43617272-6965-4724-926f-6172642e6b69,rev?*%
%TF.SameCoordinates,Original*%
%TF.FileFunction,Soldermask,Bot*%
%TF.FilePolarity,Negative*%
%FSLAX46Y46*%
G04 Gerber Fmt 4.6, Leading zero omitted, Abs format (unit mm)*
G04 Created by KiCad (PCBNEW 9.0.6-9.0.6~ubuntu24.04.1) date 2026-01-12 20:01:20*
%MOMM*%
%LPD*%
G01*
G04 APERTURE LIST*
%ADD10C,1.524000*%
%ADD11C,2.700000*%
%ADD12C,1.600000*%
%ADD13R,1.700000X1.700000*%
%ADD14C,1.700000*%
%ADD15O,1.700000X1.700000*%
%ADD16O,0.900000X1.600000*%
G04 APERTURE END LIST*
D10*
%TO.C,U2*%
X149500000Y-70220000D03*
X149500000Y-72760000D03*
X149500000Y-75300000D03*
X149500000Y-77840000D03*
X149500000Y-80380000D03*
X149500000Y-82920000D03*
X149500000Y-85460000D03*
X149500000Y-88000000D03*
%TD*%
D11*
%TO.C,REF\u002A\u002A*%
X159500000Y-61500000D03*
%TD*%
D12*
%TO.C,C1*%
X107750000Y-63500000D03*
X105250000Y-63500000D03*
%TD*%
%TO.C,C3*%
X149500000Y-62000000D03*
X152000000Y-62000000D03*
%TD*%
D13*
%TO.C,U1*%
X138500000Y-75000000D03*
D14*
X135960000Y-75000000D03*
X133420000Y-75000000D03*
X130880000Y-75000000D03*
X128340000Y-75000000D03*
X125800000Y-75000000D03*
X123260000Y-75000000D03*
X120720000Y-75000000D03*
X118180000Y-75000000D03*
X115640000Y-75000000D03*
X113100000Y-75000000D03*
X110560000Y-75000000D03*
X108020000Y-75000000D03*
X105480000Y-75000000D03*
X102940000Y-75000000D03*
X100400000Y-75000000D03*
X97860000Y-75000000D03*
X95320000Y-75000000D03*
X92780000Y-75000000D03*
X90240000Y-75000000D03*
X90240000Y-90240000D03*
X92780000Y-90240000D03*
X95320000Y-90240000D03*
X97860000Y-90240000D03*
X100400000Y-90240000D03*
X102940000Y-90240000D03*
X105480000Y-90240000D03*
X108020000Y-90240000D03*
X110560000Y-90240000D03*
X113100000Y-90240000D03*
X115640000Y-90240000D03*
X118180000Y-90240000D03*
X120720000Y-90240000D03*
X123260000Y-90240000D03*
X125800000Y-90240000D03*
X128340000Y-90240000D03*
X130880000Y-90240000D03*
X133420000Y-90240000D03*
X135960000Y-90240000D03*
X138500000Y-90240000D03*
X94050000Y-86430000D03*
X94050000Y-83890000D03*
X94050000Y-81350000D03*
X94050000Y-78810000D03*
%TD*%
D13*
%TO.C,J1*%
X90000000Y-64000000D03*
D15*
X90000000Y-61460000D03*
X90000000Y-58920000D03*
%TD*%
D16*
%TO.C,J3*%
X118600000Y-65500000D03*
X112000000Y-65500000D03*
%TD*%
D11*
%TO.C,REF\u002A\u002A*%
X131000000Y-62000000D03*
%TD*%
D13*
%TO.C,J2*%
X95000000Y-67500000D03*
D15*
X95000000Y-64960000D03*
X95000000Y-62420000D03*
%TD*%
D11*
%TO.C,REF\u002A\u002A*%
X145000000Y-86000000D03*
%TD*%
M02*
