%TF.GenerationSoftware,KiCad,Pcbnew,9.0.6-9.0.6~ubuntu24.04.1*%
%TF.CreationDate,2026-01-12T20:01:20+00:00*%
%TF.ProjectId,CarrierBoard,43617272-6965-4724-926f-6172642e6b69,rev?*%
%TF.SameCoordinates,Original*%
%TF.FileFunction,Legend,Top*%
%TF.FilePolarity,Positive*%
%FSLAX46Y46*%
G04 Gerber Fmt 4.6, Leading zero omitted, Abs format (unit mm)*
G04 Created by KiCad (PCBNEW 9.0.6-9.0.6~ubuntu24.04.1) date 2026-01-12 20:01:20*
%MOMM*%
%LPD*%
G01*
G04 APERTURE LIST*
%ADD10C,0.100000*%
%ADD11C,0.150000*%
%ADD12C,0.120000*%
G04 APERTURE END LIST*
D10*
X97522931Y-61977847D02*
X97637217Y-62015942D01*
X97637217Y-62015942D02*
X97675312Y-62054038D01*
X97675312Y-62054038D02*
X97713408Y-62130228D01*
X97713408Y-62130228D02*
X97713408Y-62244514D01*
X97713408Y-62244514D02*
X97675312Y-62320704D01*
X97675312Y-62320704D02*
X97637217Y-62358800D01*
X97637217Y-62358800D02*
X97561027Y-62396895D01*
X97561027Y-62396895D02*
X97256265Y-62396895D01*
X97256265Y-62396895D02*
X97256265Y-61596895D01*
X97256265Y-61596895D02*
X97522931Y-61596895D01*
X97522931Y-61596895D02*
X97599122Y-61634990D01*
X97599122Y-61634990D02*
X97637217Y-61673085D01*
X97637217Y-61673085D02*
X97675312Y-61749276D01*
X97675312Y-61749276D02*
X97675312Y-61825466D01*
X97675312Y-61825466D02*
X97637217Y-61901657D01*
X97637217Y-61901657D02*
X97599122Y-61939752D01*
X97599122Y-61939752D02*
X97522931Y-61977847D01*
X97522931Y-61977847D02*
X97256265Y-61977847D01*
X107303884Y-61491466D02*
X108065789Y-61491466D01*
X107684836Y-61872419D02*
X107684836Y-61110514D01*
X92522931Y-58477847D02*
X92637217Y-58515942D01*
X92637217Y-58515942D02*
X92675312Y-58554038D01*
X92675312Y-58554038D02*
X92713408Y-58630228D01*
X92713408Y-58630228D02*
X92713408Y-58744514D01*
X92713408Y-58744514D02*
X92675312Y-58820704D01*
X92675312Y-58820704D02*
X92637217Y-58858800D01*
X92637217Y-58858800D02*
X92561027Y-58896895D01*
X92561027Y-58896895D02*
X92256265Y-58896895D01*
X92256265Y-58896895D02*
X92256265Y-58096895D01*
X92256265Y-58096895D02*
X92522931Y-58096895D01*
X92522931Y-58096895D02*
X92599122Y-58134990D01*
X92599122Y-58134990D02*
X92637217Y-58173085D01*
X92637217Y-58173085D02*
X92675312Y-58249276D01*
X92675312Y-58249276D02*
X92675312Y-58325466D01*
X92675312Y-58325466D02*
X92637217Y-58401657D01*
X92637217Y-58401657D02*
X92599122Y-58439752D01*
X92599122Y-58439752D02*
X92522931Y-58477847D01*
X92522931Y-58477847D02*
X92256265Y-58477847D01*
D11*
X150008095Y-66954819D02*
X150008095Y-67764342D01*
X150008095Y-67764342D02*
X150055714Y-67859580D01*
X150055714Y-67859580D02*
X150103333Y-67907200D01*
X150103333Y-67907200D02*
X150198571Y-67954819D01*
X150198571Y-67954819D02*
X150389047Y-67954819D01*
X150389047Y-67954819D02*
X150484285Y-67907200D01*
X150484285Y-67907200D02*
X150531904Y-67859580D01*
X150531904Y-67859580D02*
X150579523Y-67764342D01*
X150579523Y-67764342D02*
X150579523Y-66954819D01*
X151008095Y-67050057D02*
X151055714Y-67002438D01*
X151055714Y-67002438D02*
X151150952Y-66954819D01*
X151150952Y-66954819D02*
X151389047Y-66954819D01*
X151389047Y-66954819D02*
X151484285Y-67002438D01*
X151484285Y-67002438D02*
X151531904Y-67050057D01*
X151531904Y-67050057D02*
X151579523Y-67145295D01*
X151579523Y-67145295D02*
X151579523Y-67240533D01*
X151579523Y-67240533D02*
X151531904Y-67383390D01*
X151531904Y-67383390D02*
X150960476Y-67954819D01*
X150960476Y-67954819D02*
X151579523Y-67954819D01*
X152048095Y-79834819D02*
X152714761Y-80834819D01*
X152714761Y-79834819D02*
X152048095Y-80834819D01*
X153095714Y-80834819D02*
X153095714Y-79834819D01*
X153095714Y-79834819D02*
X153333809Y-79834819D01*
X153333809Y-79834819D02*
X153476666Y-79882438D01*
X153476666Y-79882438D02*
X153571904Y-79977676D01*
X153571904Y-79977676D02*
X153619523Y-80072914D01*
X153619523Y-80072914D02*
X153667142Y-80263390D01*
X153667142Y-80263390D02*
X153667142Y-80406247D01*
X153667142Y-80406247D02*
X153619523Y-80596723D01*
X153619523Y-80596723D02*
X153571904Y-80691961D01*
X153571904Y-80691961D02*
X153476666Y-80787200D01*
X153476666Y-80787200D02*
X153333809Y-80834819D01*
X153333809Y-80834819D02*
X153095714Y-80834819D01*
X154048095Y-80549104D02*
X154524285Y-80549104D01*
X153952857Y-80834819D02*
X154286190Y-79834819D01*
X154286190Y-79834819D02*
X154619523Y-80834819D01*
X152548095Y-72262438D02*
X152452857Y-72214819D01*
X152452857Y-72214819D02*
X152310000Y-72214819D01*
X152310000Y-72214819D02*
X152167143Y-72262438D01*
X152167143Y-72262438D02*
X152071905Y-72357676D01*
X152071905Y-72357676D02*
X152024286Y-72452914D01*
X152024286Y-72452914D02*
X151976667Y-72643390D01*
X151976667Y-72643390D02*
X151976667Y-72786247D01*
X151976667Y-72786247D02*
X152024286Y-72976723D01*
X152024286Y-72976723D02*
X152071905Y-73071961D01*
X152071905Y-73071961D02*
X152167143Y-73167200D01*
X152167143Y-73167200D02*
X152310000Y-73214819D01*
X152310000Y-73214819D02*
X152405238Y-73214819D01*
X152405238Y-73214819D02*
X152548095Y-73167200D01*
X152548095Y-73167200D02*
X152595714Y-73119580D01*
X152595714Y-73119580D02*
X152595714Y-72786247D01*
X152595714Y-72786247D02*
X152405238Y-72786247D01*
X153024286Y-73214819D02*
X153024286Y-72214819D01*
X153024286Y-72214819D02*
X153595714Y-73214819D01*
X153595714Y-73214819D02*
X153595714Y-72214819D01*
X154071905Y-73214819D02*
X154071905Y-72214819D01*
X154071905Y-72214819D02*
X154310000Y-72214819D01*
X154310000Y-72214819D02*
X154452857Y-72262438D01*
X154452857Y-72262438D02*
X154548095Y-72357676D01*
X154548095Y-72357676D02*
X154595714Y-72452914D01*
X154595714Y-72452914D02*
X154643333Y-72643390D01*
X154643333Y-72643390D02*
X154643333Y-72786247D01*
X154643333Y-72786247D02*
X154595714Y-72976723D01*
X154595714Y-72976723D02*
X154548095Y-73071961D01*
X154548095Y-73071961D02*
X154452857Y-73167200D01*
X154452857Y-73167200D02*
X154310000Y-73214819D01*
X154310000Y-73214819D02*
X154071905Y-73214819D01*
X151976667Y-69674819D02*
X152310000Y-70674819D01*
X152310000Y-70674819D02*
X152643333Y-69674819D01*
X153548095Y-70579580D02*
X153500476Y-70627200D01*
X153500476Y-70627200D02*
X153357619Y-70674819D01*
X153357619Y-70674819D02*
X153262381Y-70674819D01*
X153262381Y-70674819D02*
X153119524Y-70627200D01*
X153119524Y-70627200D02*
X153024286Y-70531961D01*
X153024286Y-70531961D02*
X152976667Y-70436723D01*
X152976667Y-70436723D02*
X152929048Y-70246247D01*
X152929048Y-70246247D02*
X152929048Y-70103390D01*
X152929048Y-70103390D02*
X152976667Y-69912914D01*
X152976667Y-69912914D02*
X153024286Y-69817676D01*
X153024286Y-69817676D02*
X153119524Y-69722438D01*
X153119524Y-69722438D02*
X153262381Y-69674819D01*
X153262381Y-69674819D02*
X153357619Y-69674819D01*
X153357619Y-69674819D02*
X153500476Y-69722438D01*
X153500476Y-69722438D02*
X153548095Y-69770057D01*
X154548095Y-70579580D02*
X154500476Y-70627200D01*
X154500476Y-70627200D02*
X154357619Y-70674819D01*
X154357619Y-70674819D02*
X154262381Y-70674819D01*
X154262381Y-70674819D02*
X154119524Y-70627200D01*
X154119524Y-70627200D02*
X154024286Y-70531961D01*
X154024286Y-70531961D02*
X153976667Y-70436723D01*
X153976667Y-70436723D02*
X153929048Y-70246247D01*
X153929048Y-70246247D02*
X153929048Y-70103390D01*
X153929048Y-70103390D02*
X153976667Y-69912914D01*
X153976667Y-69912914D02*
X154024286Y-69817676D01*
X154024286Y-69817676D02*
X154119524Y-69722438D01*
X154119524Y-69722438D02*
X154262381Y-69674819D01*
X154262381Y-69674819D02*
X154357619Y-69674819D01*
X154357619Y-69674819D02*
X154500476Y-69722438D01*
X154500476Y-69722438D02*
X154548095Y-69770057D01*
X152095714Y-78247200D02*
X152238571Y-78294819D01*
X152238571Y-78294819D02*
X152476666Y-78294819D01*
X152476666Y-78294819D02*
X152571904Y-78247200D01*
X152571904Y-78247200D02*
X152619523Y-78199580D01*
X152619523Y-78199580D02*
X152667142Y-78104342D01*
X152667142Y-78104342D02*
X152667142Y-78009104D01*
X152667142Y-78009104D02*
X152619523Y-77913866D01*
X152619523Y-77913866D02*
X152571904Y-77866247D01*
X152571904Y-77866247D02*
X152476666Y-77818628D01*
X152476666Y-77818628D02*
X152286190Y-77771009D01*
X152286190Y-77771009D02*
X152190952Y-77723390D01*
X152190952Y-77723390D02*
X152143333Y-77675771D01*
X152143333Y-77675771D02*
X152095714Y-77580533D01*
X152095714Y-77580533D02*
X152095714Y-77485295D01*
X152095714Y-77485295D02*
X152143333Y-77390057D01*
X152143333Y-77390057D02*
X152190952Y-77342438D01*
X152190952Y-77342438D02*
X152286190Y-77294819D01*
X152286190Y-77294819D02*
X152524285Y-77294819D01*
X152524285Y-77294819D02*
X152667142Y-77342438D01*
X153095714Y-78294819D02*
X153095714Y-77294819D01*
X153095714Y-77294819D02*
X153333809Y-77294819D01*
X153333809Y-77294819D02*
X153476666Y-77342438D01*
X153476666Y-77342438D02*
X153571904Y-77437676D01*
X153571904Y-77437676D02*
X153619523Y-77532914D01*
X153619523Y-77532914D02*
X153667142Y-77723390D01*
X153667142Y-77723390D02*
X153667142Y-77866247D01*
X153667142Y-77866247D02*
X153619523Y-78056723D01*
X153619523Y-78056723D02*
X153571904Y-78151961D01*
X153571904Y-78151961D02*
X153476666Y-78247200D01*
X153476666Y-78247200D02*
X153333809Y-78294819D01*
X153333809Y-78294819D02*
X153095714Y-78294819D01*
X154048095Y-78009104D02*
X154524285Y-78009104D01*
X153952857Y-78294819D02*
X154286190Y-77294819D01*
X154286190Y-77294819D02*
X154619523Y-78294819D01*
X152071905Y-82374819D02*
X152738571Y-83374819D01*
X152738571Y-82374819D02*
X152071905Y-83374819D01*
X153690952Y-83279580D02*
X153643333Y-83327200D01*
X153643333Y-83327200D02*
X153500476Y-83374819D01*
X153500476Y-83374819D02*
X153405238Y-83374819D01*
X153405238Y-83374819D02*
X153262381Y-83327200D01*
X153262381Y-83327200D02*
X153167143Y-83231961D01*
X153167143Y-83231961D02*
X153119524Y-83136723D01*
X153119524Y-83136723D02*
X153071905Y-82946247D01*
X153071905Y-82946247D02*
X153071905Y-82803390D01*
X153071905Y-82803390D02*
X153119524Y-82612914D01*
X153119524Y-82612914D02*
X153167143Y-82517676D01*
X153167143Y-82517676D02*
X153262381Y-82422438D01*
X153262381Y-82422438D02*
X153405238Y-82374819D01*
X153405238Y-82374819D02*
X153500476Y-82374819D01*
X153500476Y-82374819D02*
X153643333Y-82422438D01*
X153643333Y-82422438D02*
X153690952Y-82470057D01*
X154595714Y-83374819D02*
X154119524Y-83374819D01*
X154119524Y-83374819D02*
X154119524Y-82374819D01*
X152059524Y-75657200D02*
X152202381Y-75704819D01*
X152202381Y-75704819D02*
X152440476Y-75704819D01*
X152440476Y-75704819D02*
X152535714Y-75657200D01*
X152535714Y-75657200D02*
X152583333Y-75609580D01*
X152583333Y-75609580D02*
X152630952Y-75514342D01*
X152630952Y-75514342D02*
X152630952Y-75419104D01*
X152630952Y-75419104D02*
X152583333Y-75323866D01*
X152583333Y-75323866D02*
X152535714Y-75276247D01*
X152535714Y-75276247D02*
X152440476Y-75228628D01*
X152440476Y-75228628D02*
X152250000Y-75181009D01*
X152250000Y-75181009D02*
X152154762Y-75133390D01*
X152154762Y-75133390D02*
X152107143Y-75085771D01*
X152107143Y-75085771D02*
X152059524Y-74990533D01*
X152059524Y-74990533D02*
X152059524Y-74895295D01*
X152059524Y-74895295D02*
X152107143Y-74800057D01*
X152107143Y-74800057D02*
X152154762Y-74752438D01*
X152154762Y-74752438D02*
X152250000Y-74704819D01*
X152250000Y-74704819D02*
X152488095Y-74704819D01*
X152488095Y-74704819D02*
X152630952Y-74752438D01*
X153630952Y-75609580D02*
X153583333Y-75657200D01*
X153583333Y-75657200D02*
X153440476Y-75704819D01*
X153440476Y-75704819D02*
X153345238Y-75704819D01*
X153345238Y-75704819D02*
X153202381Y-75657200D01*
X153202381Y-75657200D02*
X153107143Y-75561961D01*
X153107143Y-75561961D02*
X153059524Y-75466723D01*
X153059524Y-75466723D02*
X153011905Y-75276247D01*
X153011905Y-75276247D02*
X153011905Y-75133390D01*
X153011905Y-75133390D02*
X153059524Y-74942914D01*
X153059524Y-74942914D02*
X153107143Y-74847676D01*
X153107143Y-74847676D02*
X153202381Y-74752438D01*
X153202381Y-74752438D02*
X153345238Y-74704819D01*
X153345238Y-74704819D02*
X153440476Y-74704819D01*
X153440476Y-74704819D02*
X153583333Y-74752438D01*
X153583333Y-74752438D02*
X153630952Y-74800057D01*
X154535714Y-75704819D02*
X154059524Y-75704819D01*
X154059524Y-75704819D02*
X154059524Y-74704819D01*
X152071905Y-85629104D02*
X152548095Y-85629104D01*
X151976667Y-85914819D02*
X152310000Y-84914819D01*
X152310000Y-84914819D02*
X152643333Y-85914819D01*
X152976667Y-85914819D02*
X152976667Y-84914819D01*
X152976667Y-84914819D02*
X153214762Y-84914819D01*
X153214762Y-84914819D02*
X153357619Y-84962438D01*
X153357619Y-84962438D02*
X153452857Y-85057676D01*
X153452857Y-85057676D02*
X153500476Y-85152914D01*
X153500476Y-85152914D02*
X153548095Y-85343390D01*
X153548095Y-85343390D02*
X153548095Y-85486247D01*
X153548095Y-85486247D02*
X153500476Y-85676723D01*
X153500476Y-85676723D02*
X153452857Y-85771961D01*
X153452857Y-85771961D02*
X153357619Y-85867200D01*
X153357619Y-85867200D02*
X153214762Y-85914819D01*
X153214762Y-85914819D02*
X152976667Y-85914819D01*
X153976667Y-85914819D02*
X153976667Y-84914819D01*
X153976667Y-84914819D02*
X154214762Y-84914819D01*
X154214762Y-84914819D02*
X154357619Y-84962438D01*
X154357619Y-84962438D02*
X154452857Y-85057676D01*
X154452857Y-85057676D02*
X154500476Y-85152914D01*
X154500476Y-85152914D02*
X154548095Y-85343390D01*
X154548095Y-85343390D02*
X154548095Y-85486247D01*
X154548095Y-85486247D02*
X154500476Y-85676723D01*
X154500476Y-85676723D02*
X154452857Y-85771961D01*
X154452857Y-85771961D02*
X154357619Y-85867200D01*
X154357619Y-85867200D02*
X154214762Y-85914819D01*
X154214762Y-85914819D02*
X153976667Y-85914819D01*
X152405238Y-88454819D02*
X152405238Y-87454819D01*
X152881428Y-88454819D02*
X152881428Y-87454819D01*
X152881428Y-87454819D02*
X153452856Y-88454819D01*
X153452856Y-88454819D02*
X153452856Y-87454819D01*
X153786190Y-87454819D02*
X154357618Y-87454819D01*
X154071904Y-88454819D02*
X154071904Y-87454819D01*
X127454819Y-66238094D02*
X126454819Y-66238094D01*
X126454819Y-66238094D02*
X126454819Y-65999999D01*
X126454819Y-65999999D02*
X126502438Y-65857142D01*
X126502438Y-65857142D02*
X126597676Y-65761904D01*
X126597676Y-65761904D02*
X126692914Y-65714285D01*
X126692914Y-65714285D02*
X126883390Y-65666666D01*
X126883390Y-65666666D02*
X127026247Y-65666666D01*
X127026247Y-65666666D02*
X127216723Y-65714285D01*
X127216723Y-65714285D02*
X127311961Y-65761904D01*
X127311961Y-65761904D02*
X127407200Y-65857142D01*
X127407200Y-65857142D02*
X127454819Y-65999999D01*
X127454819Y-65999999D02*
X127454819Y-66238094D01*
X126454819Y-65333332D02*
X126454819Y-64714285D01*
X126454819Y-64714285D02*
X126835771Y-65047618D01*
X126835771Y-65047618D02*
X126835771Y-64904761D01*
X126835771Y-64904761D02*
X126883390Y-64809523D01*
X126883390Y-64809523D02*
X126931009Y-64761904D01*
X126931009Y-64761904D02*
X127026247Y-64714285D01*
X127026247Y-64714285D02*
X127264342Y-64714285D01*
X127264342Y-64714285D02*
X127359580Y-64761904D01*
X127359580Y-64761904D02*
X127407200Y-64809523D01*
X127407200Y-64809523D02*
X127454819Y-64904761D01*
X127454819Y-64904761D02*
X127454819Y-65190475D01*
X127454819Y-65190475D02*
X127407200Y-65285713D01*
X127407200Y-65285713D02*
X127359580Y-65333332D01*
X103833333Y-69859580D02*
X103785714Y-69907200D01*
X103785714Y-69907200D02*
X103642857Y-69954819D01*
X103642857Y-69954819D02*
X103547619Y-69954819D01*
X103547619Y-69954819D02*
X103404762Y-69907200D01*
X103404762Y-69907200D02*
X103309524Y-69811961D01*
X103309524Y-69811961D02*
X103261905Y-69716723D01*
X103261905Y-69716723D02*
X103214286Y-69526247D01*
X103214286Y-69526247D02*
X103214286Y-69383390D01*
X103214286Y-69383390D02*
X103261905Y-69192914D01*
X103261905Y-69192914D02*
X103309524Y-69097676D01*
X103309524Y-69097676D02*
X103404762Y-69002438D01*
X103404762Y-69002438D02*
X103547619Y-68954819D01*
X103547619Y-68954819D02*
X103642857Y-68954819D01*
X103642857Y-68954819D02*
X103785714Y-69002438D01*
X103785714Y-69002438D02*
X103833333Y-69050057D01*
X104214286Y-69050057D02*
X104261905Y-69002438D01*
X104261905Y-69002438D02*
X104357143Y-68954819D01*
X104357143Y-68954819D02*
X104595238Y-68954819D01*
X104595238Y-68954819D02*
X104690476Y-69002438D01*
X104690476Y-69002438D02*
X104738095Y-69050057D01*
X104738095Y-69050057D02*
X104785714Y-69145295D01*
X104785714Y-69145295D02*
X104785714Y-69240533D01*
X104785714Y-69240533D02*
X104738095Y-69383390D01*
X104738095Y-69383390D02*
X104166667Y-69954819D01*
X104166667Y-69954819D02*
X104785714Y-69954819D01*
X90333333Y-67859580D02*
X90285714Y-67907200D01*
X90285714Y-67907200D02*
X90142857Y-67954819D01*
X90142857Y-67954819D02*
X90047619Y-67954819D01*
X90047619Y-67954819D02*
X89904762Y-67907200D01*
X89904762Y-67907200D02*
X89809524Y-67811961D01*
X89809524Y-67811961D02*
X89761905Y-67716723D01*
X89761905Y-67716723D02*
X89714286Y-67526247D01*
X89714286Y-67526247D02*
X89714286Y-67383390D01*
X89714286Y-67383390D02*
X89761905Y-67192914D01*
X89761905Y-67192914D02*
X89809524Y-67097676D01*
X89809524Y-67097676D02*
X89904762Y-67002438D01*
X89904762Y-67002438D02*
X90047619Y-66954819D01*
X90047619Y-66954819D02*
X90142857Y-66954819D01*
X90142857Y-66954819D02*
X90285714Y-67002438D01*
X90285714Y-67002438D02*
X90333333Y-67050057D01*
X91190476Y-67288152D02*
X91190476Y-67954819D01*
X90952381Y-66907200D02*
X90714286Y-67621485D01*
X90714286Y-67621485D02*
X91333333Y-67621485D01*
X142954819Y-75666666D02*
X142478628Y-75999999D01*
X142954819Y-76238094D02*
X141954819Y-76238094D01*
X141954819Y-76238094D02*
X141954819Y-75857142D01*
X141954819Y-75857142D02*
X142002438Y-75761904D01*
X142002438Y-75761904D02*
X142050057Y-75714285D01*
X142050057Y-75714285D02*
X142145295Y-75666666D01*
X142145295Y-75666666D02*
X142288152Y-75666666D01*
X142288152Y-75666666D02*
X142383390Y-75714285D01*
X142383390Y-75714285D02*
X142431009Y-75761904D01*
X142431009Y-75761904D02*
X142478628Y-75857142D01*
X142478628Y-75857142D02*
X142478628Y-76238094D01*
X141954819Y-75333332D02*
X141954819Y-74714285D01*
X141954819Y-74714285D02*
X142335771Y-75047618D01*
X142335771Y-75047618D02*
X142335771Y-74904761D01*
X142335771Y-74904761D02*
X142383390Y-74809523D01*
X142383390Y-74809523D02*
X142431009Y-74761904D01*
X142431009Y-74761904D02*
X142526247Y-74714285D01*
X142526247Y-74714285D02*
X142764342Y-74714285D01*
X142764342Y-74714285D02*
X142859580Y-74761904D01*
X142859580Y-74761904D02*
X142907200Y-74809523D01*
X142907200Y-74809523D02*
X142954819Y-74904761D01*
X142954819Y-74904761D02*
X142954819Y-75190475D01*
X142954819Y-75190475D02*
X142907200Y-75285713D01*
X142907200Y-75285713D02*
X142859580Y-75333332D01*
X106833333Y-59359580D02*
X106785714Y-59407200D01*
X106785714Y-59407200D02*
X106642857Y-59454819D01*
X106642857Y-59454819D02*
X106547619Y-59454819D01*
X106547619Y-59454819D02*
X106404762Y-59407200D01*
X106404762Y-59407200D02*
X106309524Y-59311961D01*
X106309524Y-59311961D02*
X106261905Y-59216723D01*
X106261905Y-59216723D02*
X106214286Y-59026247D01*
X106214286Y-59026247D02*
X106214286Y-58883390D01*
X106214286Y-58883390D02*
X106261905Y-58692914D01*
X106261905Y-58692914D02*
X106309524Y-58597676D01*
X106309524Y-58597676D02*
X106404762Y-58502438D01*
X106404762Y-58502438D02*
X106547619Y-58454819D01*
X106547619Y-58454819D02*
X106642857Y-58454819D01*
X106642857Y-58454819D02*
X106785714Y-58502438D01*
X106785714Y-58502438D02*
X106833333Y-58550057D01*
X107785714Y-59454819D02*
X107214286Y-59454819D01*
X107500000Y-59454819D02*
X107500000Y-58454819D01*
X107500000Y-58454819D02*
X107404762Y-58597676D01*
X107404762Y-58597676D02*
X107309524Y-58692914D01*
X107309524Y-58692914D02*
X107214286Y-58740533D01*
X145859580Y-93166666D02*
X145907200Y-93214285D01*
X145907200Y-93214285D02*
X145954819Y-93357142D01*
X145954819Y-93357142D02*
X145954819Y-93452380D01*
X145954819Y-93452380D02*
X145907200Y-93595237D01*
X145907200Y-93595237D02*
X145811961Y-93690475D01*
X145811961Y-93690475D02*
X145716723Y-93738094D01*
X145716723Y-93738094D02*
X145526247Y-93785713D01*
X145526247Y-93785713D02*
X145383390Y-93785713D01*
X145383390Y-93785713D02*
X145192914Y-93738094D01*
X145192914Y-93738094D02*
X145097676Y-93690475D01*
X145097676Y-93690475D02*
X145002438Y-93595237D01*
X145002438Y-93595237D02*
X144954819Y-93452380D01*
X144954819Y-93452380D02*
X144954819Y-93357142D01*
X144954819Y-93357142D02*
X145002438Y-93214285D01*
X145002438Y-93214285D02*
X145050057Y-93166666D01*
X144954819Y-92261904D02*
X144954819Y-92738094D01*
X144954819Y-92738094D02*
X145431009Y-92785713D01*
X145431009Y-92785713D02*
X145383390Y-92738094D01*
X145383390Y-92738094D02*
X145335771Y-92642856D01*
X145335771Y-92642856D02*
X145335771Y-92404761D01*
X145335771Y-92404761D02*
X145383390Y-92309523D01*
X145383390Y-92309523D02*
X145431009Y-92261904D01*
X145431009Y-92261904D02*
X145526247Y-92214285D01*
X145526247Y-92214285D02*
X145764342Y-92214285D01*
X145764342Y-92214285D02*
X145859580Y-92261904D01*
X145859580Y-92261904D02*
X145907200Y-92309523D01*
X145907200Y-92309523D02*
X145954819Y-92404761D01*
X145954819Y-92404761D02*
X145954819Y-92642856D01*
X145954819Y-92642856D02*
X145907200Y-92738094D01*
X145907200Y-92738094D02*
X145859580Y-92785713D01*
X150583333Y-57859580D02*
X150535714Y-57907200D01*
X150535714Y-57907200D02*
X150392857Y-57954819D01*
X150392857Y-57954819D02*
X150297619Y-57954819D01*
X150297619Y-57954819D02*
X150154762Y-57907200D01*
X150154762Y-57907200D02*
X150059524Y-57811961D01*
X150059524Y-57811961D02*
X150011905Y-57716723D01*
X150011905Y-57716723D02*
X149964286Y-57526247D01*
X149964286Y-57526247D02*
X149964286Y-57383390D01*
X149964286Y-57383390D02*
X150011905Y-57192914D01*
X150011905Y-57192914D02*
X150059524Y-57097676D01*
X150059524Y-57097676D02*
X150154762Y-57002438D01*
X150154762Y-57002438D02*
X150297619Y-56954819D01*
X150297619Y-56954819D02*
X150392857Y-56954819D01*
X150392857Y-56954819D02*
X150535714Y-57002438D01*
X150535714Y-57002438D02*
X150583333Y-57050057D01*
X150916667Y-56954819D02*
X151535714Y-56954819D01*
X151535714Y-56954819D02*
X151202381Y-57335771D01*
X151202381Y-57335771D02*
X151345238Y-57335771D01*
X151345238Y-57335771D02*
X151440476Y-57383390D01*
X151440476Y-57383390D02*
X151488095Y-57431009D01*
X151488095Y-57431009D02*
X151535714Y-57526247D01*
X151535714Y-57526247D02*
X151535714Y-57764342D01*
X151535714Y-57764342D02*
X151488095Y-57859580D01*
X151488095Y-57859580D02*
X151440476Y-57907200D01*
X151440476Y-57907200D02*
X151345238Y-57954819D01*
X151345238Y-57954819D02*
X151059524Y-57954819D01*
X151059524Y-57954819D02*
X150964286Y-57907200D01*
X150964286Y-57907200D02*
X150916667Y-57859580D01*
X141954819Y-72761904D02*
X142764342Y-72761904D01*
X142764342Y-72761904D02*
X142859580Y-72714285D01*
X142859580Y-72714285D02*
X142907200Y-72666666D01*
X142907200Y-72666666D02*
X142954819Y-72571428D01*
X142954819Y-72571428D02*
X142954819Y-72380952D01*
X142954819Y-72380952D02*
X142907200Y-72285714D01*
X142907200Y-72285714D02*
X142859580Y-72238095D01*
X142859580Y-72238095D02*
X142764342Y-72190476D01*
X142764342Y-72190476D02*
X141954819Y-72190476D01*
X142954819Y-71190476D02*
X142954819Y-71761904D01*
X142954819Y-71476190D02*
X141954819Y-71476190D01*
X141954819Y-71476190D02*
X142097676Y-71571428D01*
X142097676Y-71571428D02*
X142192914Y-71666666D01*
X142192914Y-71666666D02*
X142240533Y-71761904D01*
X88166666Y-66454819D02*
X88166666Y-67169104D01*
X88166666Y-67169104D02*
X88119047Y-67311961D01*
X88119047Y-67311961D02*
X88023809Y-67407200D01*
X88023809Y-67407200D02*
X87880952Y-67454819D01*
X87880952Y-67454819D02*
X87785714Y-67454819D01*
X89166666Y-67454819D02*
X88595238Y-67454819D01*
X88880952Y-67454819D02*
X88880952Y-66454819D01*
X88880952Y-66454819D02*
X88785714Y-66597676D01*
X88785714Y-66597676D02*
X88690476Y-66692914D01*
X88690476Y-66692914D02*
X88595238Y-66740533D01*
X118166666Y-60454819D02*
X118166666Y-61169104D01*
X118166666Y-61169104D02*
X118119047Y-61311961D01*
X118119047Y-61311961D02*
X118023809Y-61407200D01*
X118023809Y-61407200D02*
X117880952Y-61454819D01*
X117880952Y-61454819D02*
X117785714Y-61454819D01*
X118547619Y-60454819D02*
X119166666Y-60454819D01*
X119166666Y-60454819D02*
X118833333Y-60835771D01*
X118833333Y-60835771D02*
X118976190Y-60835771D01*
X118976190Y-60835771D02*
X119071428Y-60883390D01*
X119071428Y-60883390D02*
X119119047Y-60931009D01*
X119119047Y-60931009D02*
X119166666Y-61026247D01*
X119166666Y-61026247D02*
X119166666Y-61264342D01*
X119166666Y-61264342D02*
X119119047Y-61359580D01*
X119119047Y-61359580D02*
X119071428Y-61407200D01*
X119071428Y-61407200D02*
X118976190Y-61454819D01*
X118976190Y-61454819D02*
X118690476Y-61454819D01*
X118690476Y-61454819D02*
X118595238Y-61407200D01*
X118595238Y-61407200D02*
X118547619Y-61359580D01*
X142954819Y-80166666D02*
X142478628Y-80499999D01*
X142954819Y-80738094D02*
X141954819Y-80738094D01*
X141954819Y-80738094D02*
X141954819Y-80357142D01*
X141954819Y-80357142D02*
X142002438Y-80261904D01*
X142002438Y-80261904D02*
X142050057Y-80214285D01*
X142050057Y-80214285D02*
X142145295Y-80166666D01*
X142145295Y-80166666D02*
X142288152Y-80166666D01*
X142288152Y-80166666D02*
X142383390Y-80214285D01*
X142383390Y-80214285D02*
X142431009Y-80261904D01*
X142431009Y-80261904D02*
X142478628Y-80357142D01*
X142478628Y-80357142D02*
X142478628Y-80738094D01*
X142050057Y-79785713D02*
X142002438Y-79738094D01*
X142002438Y-79738094D02*
X141954819Y-79642856D01*
X141954819Y-79642856D02*
X141954819Y-79404761D01*
X141954819Y-79404761D02*
X142002438Y-79309523D01*
X142002438Y-79309523D02*
X142050057Y-79261904D01*
X142050057Y-79261904D02*
X142145295Y-79214285D01*
X142145295Y-79214285D02*
X142240533Y-79214285D01*
X142240533Y-79214285D02*
X142383390Y-79261904D01*
X142383390Y-79261904D02*
X142954819Y-79833332D01*
X142954819Y-79833332D02*
X142954819Y-79214285D01*
X141454819Y-63166666D02*
X140978628Y-63499999D01*
X141454819Y-63738094D02*
X140454819Y-63738094D01*
X140454819Y-63738094D02*
X140454819Y-63357142D01*
X140454819Y-63357142D02*
X140502438Y-63261904D01*
X140502438Y-63261904D02*
X140550057Y-63214285D01*
X140550057Y-63214285D02*
X140645295Y-63166666D01*
X140645295Y-63166666D02*
X140788152Y-63166666D01*
X140788152Y-63166666D02*
X140883390Y-63214285D01*
X140883390Y-63214285D02*
X140931009Y-63261904D01*
X140931009Y-63261904D02*
X140978628Y-63357142D01*
X140978628Y-63357142D02*
X140978628Y-63738094D01*
X141454819Y-62214285D02*
X141454819Y-62785713D01*
X141454819Y-62499999D02*
X140454819Y-62499999D01*
X140454819Y-62499999D02*
X140597676Y-62595237D01*
X140597676Y-62595237D02*
X140692914Y-62690475D01*
X140692914Y-62690475D02*
X140740533Y-62785713D01*
X97954819Y-58238094D02*
X96954819Y-58238094D01*
X96954819Y-58238094D02*
X96954819Y-57999999D01*
X96954819Y-57999999D02*
X97002438Y-57857142D01*
X97002438Y-57857142D02*
X97097676Y-57761904D01*
X97097676Y-57761904D02*
X97192914Y-57714285D01*
X97192914Y-57714285D02*
X97383390Y-57666666D01*
X97383390Y-57666666D02*
X97526247Y-57666666D01*
X97526247Y-57666666D02*
X97716723Y-57714285D01*
X97716723Y-57714285D02*
X97811961Y-57761904D01*
X97811961Y-57761904D02*
X97907200Y-57857142D01*
X97907200Y-57857142D02*
X97954819Y-57999999D01*
X97954819Y-57999999D02*
X97954819Y-58238094D01*
X97954819Y-56714285D02*
X97954819Y-57285713D01*
X97954819Y-56999999D02*
X96954819Y-56999999D01*
X96954819Y-56999999D02*
X97097676Y-57095237D01*
X97097676Y-57095237D02*
X97192914Y-57190475D01*
X97192914Y-57190475D02*
X97240533Y-57285713D01*
X136454819Y-68363094D02*
X135454819Y-68363094D01*
X135454819Y-68363094D02*
X135454819Y-68124999D01*
X135454819Y-68124999D02*
X135502438Y-67982142D01*
X135502438Y-67982142D02*
X135597676Y-67886904D01*
X135597676Y-67886904D02*
X135692914Y-67839285D01*
X135692914Y-67839285D02*
X135883390Y-67791666D01*
X135883390Y-67791666D02*
X136026247Y-67791666D01*
X136026247Y-67791666D02*
X136216723Y-67839285D01*
X136216723Y-67839285D02*
X136311961Y-67886904D01*
X136311961Y-67886904D02*
X136407200Y-67982142D01*
X136407200Y-67982142D02*
X136454819Y-68124999D01*
X136454819Y-68124999D02*
X136454819Y-68363094D01*
X135550057Y-67410713D02*
X135502438Y-67363094D01*
X135502438Y-67363094D02*
X135454819Y-67267856D01*
X135454819Y-67267856D02*
X135454819Y-67029761D01*
X135454819Y-67029761D02*
X135502438Y-66934523D01*
X135502438Y-66934523D02*
X135550057Y-66886904D01*
X135550057Y-66886904D02*
X135645295Y-66839285D01*
X135645295Y-66839285D02*
X135740533Y-66839285D01*
X135740533Y-66839285D02*
X135883390Y-66886904D01*
X135883390Y-66886904D02*
X136454819Y-67458332D01*
X136454819Y-67458332D02*
X136454819Y-66839285D01*
X93666666Y-58954819D02*
X93666666Y-59669104D01*
X93666666Y-59669104D02*
X93619047Y-59811961D01*
X93619047Y-59811961D02*
X93523809Y-59907200D01*
X93523809Y-59907200D02*
X93380952Y-59954819D01*
X93380952Y-59954819D02*
X93285714Y-59954819D01*
X94095238Y-59050057D02*
X94142857Y-59002438D01*
X94142857Y-59002438D02*
X94238095Y-58954819D01*
X94238095Y-58954819D02*
X94476190Y-58954819D01*
X94476190Y-58954819D02*
X94571428Y-59002438D01*
X94571428Y-59002438D02*
X94619047Y-59050057D01*
X94619047Y-59050057D02*
X94666666Y-59145295D01*
X94666666Y-59145295D02*
X94666666Y-59240533D01*
X94666666Y-59240533D02*
X94619047Y-59383390D01*
X94619047Y-59383390D02*
X94047619Y-59954819D01*
X94047619Y-59954819D02*
X94666666Y-59954819D01*
D12*
%TO.C,U2*%
X148230000Y-68696000D02*
X164740000Y-68696000D01*
X148230000Y-89270000D02*
X148230000Y-68696000D01*
X164740000Y-68696000D02*
X164740000Y-89270000D01*
X164740000Y-89270000D02*
X148230000Y-89270000D01*
X163567832Y-70982000D02*
G75*
G02*
X160832168Y-70982000I-1367832J0D01*
G01*
X160832168Y-70982000D02*
G75*
G02*
X163567832Y-70982000I1367832J0D01*
G01*
X163567832Y-86984000D02*
G75*
G02*
X160832168Y-86984000I-1367832J0D01*
G01*
X160832168Y-86984000D02*
G75*
G02*
X163567832Y-86984000I1367832J0D01*
G01*
%TO.C,D3*%
X122350000Y-60990000D02*
X122350000Y-68000000D01*
X125650000Y-60990000D02*
X122350000Y-60990000D01*
X125650000Y-60990000D02*
X125650000Y-68000000D01*
%TO.C,C2*%
X100761252Y-68765000D02*
X100238748Y-68765000D01*
X100761252Y-70235000D02*
X100238748Y-70235000D01*
%TO.C,C4*%
X90238748Y-69265000D02*
X90761252Y-69265000D01*
X90238748Y-70735000D02*
X90761252Y-70735000D01*
%TO.C,R3*%
X143765000Y-75727064D02*
X143765000Y-75272936D01*
X145235000Y-75727064D02*
X145235000Y-75272936D01*
%TO.C,C1*%
X109770000Y-63500000D02*
G75*
G02*
X103230000Y-63500000I-3270000J0D01*
G01*
X103230000Y-63500000D02*
G75*
G02*
X109770000Y-63500000I3270000J0D01*
G01*
%TO.C,C5*%
X142765000Y-92738748D02*
X142765000Y-93261252D01*
X144235000Y-92738748D02*
X144235000Y-93261252D01*
%TO.C,C3*%
X154020000Y-62000000D02*
G75*
G02*
X147480000Y-62000000I-3270000J0D01*
G01*
X147480000Y-62000000D02*
G75*
G02*
X154020000Y-62000000I3270000J0D01*
G01*
%TO.C,U1*%
X87795000Y-71245000D02*
X140945000Y-71245000D01*
X87795000Y-93995000D02*
X87795000Y-71245000D01*
X88910000Y-73670000D02*
X137230000Y-73670000D01*
X88910000Y-76330000D02*
X88910000Y-73670000D01*
X88970000Y-88970000D02*
X139770000Y-88970000D01*
X88970000Y-91510000D02*
X88970000Y-88970000D01*
X92720000Y-77480000D02*
X92720000Y-87760000D01*
X92720000Y-87760000D02*
X95380000Y-87760000D01*
X95380000Y-77480000D02*
X92720000Y-77480000D01*
X95380000Y-87760000D02*
X95380000Y-77480000D01*
X137230000Y-73670000D02*
X137230000Y-76330000D01*
X137230000Y-76330000D02*
X88910000Y-76330000D01*
X138500000Y-73670000D02*
X139830000Y-73670000D01*
X139770000Y-88970000D02*
X139770000Y-91510000D01*
X139770000Y-91510000D02*
X88970000Y-91510000D01*
X139830000Y-73670000D02*
X139830000Y-75000000D01*
X140945000Y-71245000D02*
X140945000Y-93995000D01*
X140945000Y-93995000D02*
X87795000Y-93995000D01*
%TO.C,J1*%
X88670000Y-62730000D02*
X88670000Y-57590000D01*
X91330000Y-57590000D02*
X88670000Y-57590000D01*
X91330000Y-62730000D02*
X88670000Y-62730000D01*
X91330000Y-62730000D02*
X91330000Y-57590000D01*
X91330000Y-64000000D02*
X91330000Y-65330000D01*
X91330000Y-65330000D02*
X90000000Y-65330000D01*
%TO.C,J3*%
X111040000Y-68910000D02*
X111040000Y-64550000D01*
X113540000Y-68910000D02*
X111040000Y-68910000D01*
X116400000Y-69110000D02*
X117060000Y-69110000D01*
X117060000Y-68910000D02*
X117060000Y-69110000D01*
X119560000Y-68910000D02*
X117060000Y-68910000D01*
X119560000Y-68910000D02*
X119560000Y-64550000D01*
%TO.C,R2*%
X143765000Y-80227064D02*
X143765000Y-79772936D01*
X145235000Y-80227064D02*
X145235000Y-79772936D01*
%TO.C,R1*%
X137915000Y-62772936D02*
X137915000Y-63227064D01*
X139385000Y-62772936D02*
X139385000Y-63227064D01*
%TO.C,D1*%
X98350000Y-66010000D02*
X98350000Y-59000000D01*
X98350000Y-66010000D02*
X101650000Y-66010000D01*
X101650000Y-66010000D02*
X101650000Y-59000000D01*
%TO.C,D2*%
X137250000Y-65425000D02*
X137250000Y-70125000D01*
X137250000Y-70125000D02*
X140050000Y-70125000D01*
X137550000Y-67275000D02*
X137550000Y-67975000D01*
X139750000Y-67275000D02*
X139750000Y-67975000D01*
X140050000Y-70125000D02*
X140050000Y-65425000D01*
%TO.C,J2*%
X93670000Y-66230000D02*
X93670000Y-61090000D01*
X96330000Y-61090000D02*
X93670000Y-61090000D01*
X96330000Y-66230000D02*
X93670000Y-66230000D01*
X96330000Y-66230000D02*
X96330000Y-61090000D01*
X96330000Y-67500000D02*
X96330000Y-68830000D01*
X96330000Y-68830000D02*
X95000000Y-68830000D01*
%TD*%
M02*
