%TF.GenerationSoftware,KiCad,Pcbnew,9.0.6-9.0.6~ubuntu24.04.1*%
%TF.CreationDate,2026-01-12T20:01:20+00:00*%
%TF.ProjectId,CarrierBoard,43617272-6965-4724-926f-6172642e6b69,rev?*%
%TF.SameCoordinates,Original*%
%TF.FileFunction,Soldermask,Top*%
%TF.FilePolarity,Negative*%
%FSLAX46Y46*%
G04 Gerber Fmt 4.6, Leading zero omitted, Abs format (unit mm)*
G04 Created by KiCad (PCBNEW 9.0.6-9.0.6~ubuntu24.04.1) date 2026-01-12 20:01:20*
%MOMM*%
%LPD*%
G01*
G04 APERTURE LIST*
G04 Aperture macros list*
%AMRoundRect*
0 Rectangle with rounded corners*
0 $1 Rounding radius*
0 $2 $3 $4 $5 $6 $7 $8 $9 X,Y pos of 4 corners*
0 Add a 4 corners polygon primitive as box body*
4,1,4,$2,$3,$4,$5,$6,$7,$8,$9,$2,$3,0*
0 Add four circle primitives for the rounded corners*
1,1,$1+$1,$2,$3*
1,1,$1+$1,$4,$5*
1,1,$1+$1,$6,$7*
1,1,$1+$1,$8,$9*
0 Add four rect primitives between the rounded corners*
20,1,$1+$1,$2,$3,$4,$5,0*
20,1,$1+$1,$4,$5,$6,$7,0*
20,1,$1+$1,$6,$7,$8,$9,0*
20,1,$1+$1,$8,$9,$2,$3,0*%
G04 Aperture macros list end*
%ADD10C,1.524000*%
%ADD11RoundRect,0.250000X-0.650000X1.500000X-0.650000X-1.500000X0.650000X-1.500000X0.650000X1.500000X0*%
%ADD12RoundRect,0.250000X0.337500X0.475000X-0.337500X0.475000X-0.337500X-0.475000X0.337500X-0.475000X0*%
%ADD13C,2.700000*%
%ADD14RoundRect,0.250000X-0.337500X-0.475000X0.337500X-0.475000X0.337500X0.475000X-0.337500X0.475000X0*%
%ADD15RoundRect,0.250000X0.450000X-0.350000X0.450000X0.350000X-0.450000X0.350000X-0.450000X-0.350000X0*%
%ADD16C,1.600000*%
%ADD17RoundRect,0.250000X-0.475000X0.337500X-0.475000X-0.337500X0.475000X-0.337500X0.475000X0.337500X0*%
%ADD18R,1.700000X1.700000*%
%ADD19C,1.700000*%
%ADD20O,1.700000X1.700000*%
%ADD21RoundRect,0.100000X0.100000X0.575000X-0.100000X0.575000X-0.100000X-0.575000X0.100000X-0.575000X0*%
%ADD22O,0.900000X1.600000*%
%ADD23RoundRect,0.250000X0.550000X0.450000X-0.550000X0.450000X-0.550000X-0.450000X0.550000X-0.450000X0*%
%ADD24RoundRect,0.250000X0.700000X0.700000X-0.700000X0.700000X-0.700000X-0.700000X0.700000X-0.700000X0*%
%ADD25RoundRect,0.250000X-0.450000X0.350000X-0.450000X-0.350000X0.450000X-0.350000X0.450000X0.350000X0*%
%ADD26RoundRect,0.250000X0.650000X-1.500000X0.650000X1.500000X-0.650000X1.500000X-0.650000X-1.500000X0*%
%ADD27R,2.200000X1.550000*%
G04 APERTURE END LIST*
D10*
%TO.C,U2*%
X149500000Y-70220000D03*
X149500000Y-72760000D03*
X149500000Y-75300000D03*
X149500000Y-77840000D03*
X149500000Y-80380000D03*
X149500000Y-82920000D03*
X149500000Y-85460000D03*
X149500000Y-88000000D03*
%TD*%
D11*
%TO.C,D3*%
X124000000Y-63000000D03*
X124000000Y-68000000D03*
%TD*%
D12*
%TO.C,C2*%
X101537500Y-69500000D03*
X99462500Y-69500000D03*
%TD*%
D13*
%TO.C,REF\u002A\u002A*%
X159500000Y-61500000D03*
%TD*%
D14*
%TO.C,C4*%
X89462500Y-70000000D03*
X91537500Y-70000000D03*
%TD*%
D15*
%TO.C,R3*%
X144500000Y-76500000D03*
X144500000Y-74500000D03*
%TD*%
D16*
%TO.C,C1*%
X107750000Y-63500000D03*
X105250000Y-63500000D03*
%TD*%
D17*
%TO.C,C5*%
X143500000Y-91962500D03*
X143500000Y-94037500D03*
%TD*%
D16*
%TO.C,C3*%
X149500000Y-62000000D03*
X152000000Y-62000000D03*
%TD*%
D18*
%TO.C,U1*%
X138500000Y-75000000D03*
D19*
X135960000Y-75000000D03*
X133420000Y-75000000D03*
X130880000Y-75000000D03*
X128340000Y-75000000D03*
X125800000Y-75000000D03*
X123260000Y-75000000D03*
X120720000Y-75000000D03*
X118180000Y-75000000D03*
X115640000Y-75000000D03*
X113100000Y-75000000D03*
X110560000Y-75000000D03*
X108020000Y-75000000D03*
X105480000Y-75000000D03*
X102940000Y-75000000D03*
X100400000Y-75000000D03*
X97860000Y-75000000D03*
X95320000Y-75000000D03*
X92780000Y-75000000D03*
X90240000Y-75000000D03*
X90240000Y-90240000D03*
X92780000Y-90240000D03*
X95320000Y-90240000D03*
X97860000Y-90240000D03*
X100400000Y-90240000D03*
X102940000Y-90240000D03*
X105480000Y-90240000D03*
X108020000Y-90240000D03*
X110560000Y-90240000D03*
X113100000Y-90240000D03*
X115640000Y-90240000D03*
X118180000Y-90240000D03*
X120720000Y-90240000D03*
X123260000Y-90240000D03*
X125800000Y-90240000D03*
X128340000Y-90240000D03*
X130880000Y-90240000D03*
X133420000Y-90240000D03*
X135960000Y-90240000D03*
X138500000Y-90240000D03*
X94050000Y-86430000D03*
X94050000Y-83890000D03*
X94050000Y-81350000D03*
X94050000Y-78810000D03*
%TD*%
D18*
%TO.C,J1*%
X90000000Y-64000000D03*
D20*
X90000000Y-61460000D03*
X90000000Y-58920000D03*
%TD*%
D21*
%TO.C,J3*%
X116600000Y-68175000D03*
X115950000Y-68175000D03*
X115300000Y-68175000D03*
X114650000Y-68175000D03*
X114000000Y-68175000D03*
D22*
X118600000Y-65500000D03*
D23*
X118500000Y-67950000D03*
D24*
X116500000Y-65500000D03*
X114100000Y-65500000D03*
D23*
X112100000Y-67950000D03*
D22*
X112000000Y-65500000D03*
%TD*%
D15*
%TO.C,R2*%
X144500000Y-81000000D03*
X144500000Y-79000000D03*
%TD*%
D25*
%TO.C,R1*%
X138650000Y-62000000D03*
X138650000Y-64000000D03*
%TD*%
D26*
%TO.C,D1*%
X100000000Y-64000000D03*
X100000000Y-59000000D03*
%TD*%
D13*
%TO.C,REF\u002A\u002A*%
X131000000Y-62000000D03*
%TD*%
D27*
%TO.C,D2*%
X138650000Y-69050000D03*
X138650000Y-66200000D03*
%TD*%
D18*
%TO.C,J2*%
X95000000Y-67500000D03*
D20*
X95000000Y-64960000D03*
X95000000Y-62420000D03*
%TD*%
D13*
%TO.C,REF\u002A\u002A*%
X145000000Y-86000000D03*
%TD*%
M02*
