%TF.GenerationSoftware,KiCad,Pcbnew,9.0.6-9.0.6~ubuntu24.04.1*%
%TF.CreationDate,2026-01-12T20:01:20+00:00*%
%TF.ProjectId,CarrierBoard,43617272-6965-4724-926f-6172642e6b69,rev?*%
%TF.SameCoordinates,Original*%
%TF.FileFunction,Copper,L2,Bot*%
%TF.FilePolarity,Positive*%
%FSLAX46Y46*%
G04 Gerber Fmt 4.6, Leading zero omitted, Abs format (unit mm)*
G04 Created by KiCad (PCBNEW 9.0.6-9.0.6~ubuntu24.04.1) date 2026-01-12 20:01:20*
%MOMM*%
%LPD*%
G01*
G04 APERTURE LIST*
%TA.AperFunction,ComponentPad*%
%ADD10C,1.524000*%
%TD*%
%TA.AperFunction,ComponentPad*%
%ADD11C,1.600000*%
%TD*%
%TA.AperFunction,ComponentPad*%
%ADD12R,1.700000X1.700000*%
%TD*%
%TA.AperFunction,ComponentPad*%
%ADD13C,1.700000*%
%TD*%
%TA.AperFunction,ComponentPad*%
%ADD14O,1.700000X1.700000*%
%TD*%
%TA.AperFunction,ComponentPad*%
%ADD15O,0.900000X1.600000*%
%TD*%
%TA.AperFunction,ViaPad*%
%ADD16C,0.800000*%
%TD*%
%TA.AperFunction,Conductor*%
%ADD17C,0.500000*%
%TD*%
G04 APERTURE END LIST*
D10*
%TO.P,U2,1,VCC*%
%TO.N,+3V3*%
X149500000Y-70220000D03*
%TO.P,U2,2,GND*%
%TO.N,GND*%
X149500000Y-72760000D03*
%TO.P,U2,3,SCL*%
%TO.N,/IMU_I2C_SCL*%
X149500000Y-75300000D03*
%TO.P,U2,4,SDA*%
%TO.N,/IMU_I2C_SDA*%
X149500000Y-77840000D03*
%TO.P,U2,5,XDA*%
%TO.N,unconnected-(U2-XDA-Pad5)*%
X149500000Y-80380000D03*
%TO.P,U2,6,XCL*%
%TO.N,unconnected-(U2-XCL-Pad6)*%
X149500000Y-82920000D03*
%TO.P,U2,7,ADD*%
%TO.N,GND*%
X149500000Y-85460000D03*
%TO.P,U2,8,INT*%
%TO.N,unconnected-(U2-INT-Pad8)*%
X149500000Y-88000000D03*
%TD*%
D11*
%TO.P,C1,1*%
%TO.N,+5V*%
X107750000Y-63500000D03*
%TO.P,C1,2*%
%TO.N,GND*%
X105250000Y-63500000D03*
%TD*%
%TO.P,C3,1*%
%TO.N,+3V3*%
X149500000Y-62000000D03*
%TO.P,C3,2*%
%TO.N,GND*%
X152000000Y-62000000D03*
%TD*%
D12*
%TO.P,U1,1,PB12*%
%TO.N,unconnected-(U1-PB12-Pad1)*%
X138500000Y-75000000D03*
D13*
%TO.P,U1,2,PB13*%
%TO.N,unconnected-(U1-PB13-Pad2)*%
X135960000Y-75000000D03*
%TO.P,U1,3,PB14*%
%TO.N,unconnected-(U1-PB14-Pad3)*%
X133420000Y-75000000D03*
%TO.P,U1,4,PB15*%
%TO.N,unconnected-(U1-PB15-Pad4)*%
X130880000Y-75000000D03*
%TO.P,U1,5,PA8*%
%TO.N,unconnected-(U1-PA8-Pad5)*%
X128340000Y-75000000D03*
%TO.P,U1,6,PA9*%
%TO.N,unconnected-(U1-PA9-Pad6)*%
X125800000Y-75000000D03*
%TO.P,U1,7,PA10*%
%TO.N,unconnected-(U1-PA10-Pad7)*%
X123260000Y-75000000D03*
%TO.P,U1,8,PA11*%
%TO.N,/USB_D-*%
X120720000Y-75000000D03*
%TO.P,U1,9,PA12*%
%TO.N,/USB_D+*%
X118180000Y-75000000D03*
%TO.P,U1,10,PA15*%
%TO.N,unconnected-(U1-PA15-Pad10)*%
X115640000Y-75000000D03*
%TO.P,U1,11,PB3*%
%TO.N,unconnected-(U1-PB3-Pad11)*%
X113100000Y-75000000D03*
%TO.P,U1,12,PB4*%
%TO.N,unconnected-(U1-PB4-Pad12)*%
X110560000Y-75000000D03*
%TO.P,U1,13,PB5*%
%TO.N,unconnected-(U1-PB5-Pad13)*%
X108020000Y-75000000D03*
%TO.P,U1,14,PB6*%
%TO.N,/IMU_I2C_SCL*%
X105480000Y-75000000D03*
%TO.P,U1,15,PB7*%
%TO.N,/IMU_I2C_SDA*%
X102940000Y-75000000D03*
%TO.P,U1,16,PB8*%
%TO.N,unconnected-(U1-PB8-Pad16)*%
X100400000Y-75000000D03*
%TO.P,U1,17,PB9*%
%TO.N,unconnected-(U1-PB9-Pad17)*%
X97860000Y-75000000D03*
%TO.P,U1,18,5V*%
%TO.N,+5V*%
X95320000Y-75000000D03*
%TO.P,U1,19,GND*%
%TO.N,GND*%
X92780000Y-75000000D03*
%TO.P,U1,20,3V3*%
%TO.N,+3V3*%
X90240000Y-75000000D03*
%TO.P,U1,21,VBat*%
%TO.N,unconnected-(U1-VBat-Pad21)*%
X90240000Y-90240000D03*
%TO.P,U1,22,PC13*%
%TO.N,unconnected-(U1-PC13-Pad22)*%
X92780000Y-90240000D03*
%TO.P,U1,23,PC14*%
%TO.N,unconnected-(U1-PC14-Pad23)*%
X95320000Y-90240000D03*
%TO.P,U1,24,PC15*%
%TO.N,unconnected-(U1-PC15-Pad24)*%
X97860000Y-90240000D03*
%TO.P,U1,25,PA0*%
%TO.N,/MOTOR1_PWM*%
X100400000Y-90240000D03*
%TO.P,U1,26,PA1*%
%TO.N,/MOTOR2_PWM*%
X102940000Y-90240000D03*
%TO.P,U1,27,PA2*%
%TO.N,unconnected-(U1-PA2-Pad27)*%
X105480000Y-90240000D03*
%TO.P,U1,28,PA3*%
%TO.N,unconnected-(U1-PA3-Pad28)*%
X108020000Y-90240000D03*
%TO.P,U1,29,PA4*%
%TO.N,unconnected-(U1-PA4-Pad29)*%
X110560000Y-90240000D03*
%TO.P,U1,30,PA5*%
%TO.N,unconnected-(U1-PA5-Pad30)*%
X113100000Y-90240000D03*
%TO.P,U1,31,PA6*%
%TO.N,unconnected-(U1-PA6-Pad31)*%
X115640000Y-90240000D03*
%TO.P,U1,32,PA7*%
%TO.N,unconnected-(U1-PA7-Pad32)*%
X118180000Y-90240000D03*
%TO.P,U1,33,PB0*%
%TO.N,unconnected-(U1-PB0-Pad33)*%
X120720000Y-90240000D03*
%TO.P,U1,34,PB1*%
%TO.N,unconnected-(U1-PB1-Pad34)*%
X123260000Y-90240000D03*
%TO.P,U1,35,PB10*%
%TO.N,unconnected-(U1-PB10-Pad35)*%
X125800000Y-90240000D03*
%TO.P,U1,36,PB11*%
%TO.N,unconnected-(U1-PB11-Pad36)*%
X128340000Y-90240000D03*
%TO.P,U1,37,RST*%
%TO.N,unconnected-(U1-RST-Pad37)*%
X130880000Y-90240000D03*
%TO.P,U1,38,3V3*%
%TO.N,+3V3*%
X133420000Y-90240000D03*
%TO.P,U1,39,GND*%
%TO.N,GND*%
X135960000Y-90240000D03*
%TO.P,U1,40,GND*%
X138500000Y-90240000D03*
%TO.P,U1,41*%
%TO.N,N/C*%
X94050000Y-86430000D03*
%TO.P,U1,42,SWDIO*%
%TO.N,unconnected-(U1-SWDIO-Pad42)*%
X94050000Y-83890000D03*
%TO.P,U1,43,SWDCLK*%
%TO.N,unconnected-(U1-SWDCLK-Pad43)*%
X94050000Y-81350000D03*
%TO.P,U1,44,GND*%
%TO.N,GND*%
X94050000Y-78810000D03*
%TD*%
D12*
%TO.P,J1,1,Pin_1*%
%TO.N,/MOTOR1_PWM*%
X90000000Y-64000000D03*
D14*
%TO.P,J1,2,Pin_2*%
%TO.N,/BEC_VCC*%
X90000000Y-61460000D03*
%TO.P,J1,3,Pin_3*%
%TO.N,GND*%
X90000000Y-58920000D03*
%TD*%
D15*
%TO.P,J3,6,Shield*%
%TO.N,GND*%
X118600000Y-65500000D03*
X112000000Y-65500000D03*
%TD*%
D12*
%TO.P,J2,1,Pin_1*%
%TO.N,/MOTOR2_PWM*%
X95000000Y-67500000D03*
D14*
%TO.P,J2,2,Pin_2*%
%TO.N,unconnected-(J2-Pin_2-Pad2)*%
X95000000Y-64960000D03*
%TO.P,J2,3,Pin_3*%
%TO.N,GND*%
X95000000Y-62420000D03*
%TD*%
D16*
%TO.N,+5V*%
X95000000Y-73000000D03*
X101500000Y-71500000D03*
%TO.N,GND*%
X99500000Y-67500000D03*
X145462500Y-94037500D03*
X136000000Y-69000000D03*
X91000000Y-68500000D03*
X147500000Y-72000000D03*
%TO.N,+3V3*%
X146500000Y-81000000D03*
X146500000Y-77000000D03*
%TD*%
D17*
%TO.N,+5V*%
X95000000Y-73000000D02*
X96500000Y-71500000D01*
X96500000Y-71500000D02*
X101500000Y-71500000D01*
%TO.N,+3V3*%
X146500000Y-77000000D02*
X146500000Y-81000000D01*
%TD*%
%TA.AperFunction,Conductor*%
%TO.N,GND*%
G36*
X164942539Y-56520185D02*
G01*
X164988294Y-56572989D01*
X164999500Y-56624500D01*
X164999500Y-95375500D01*
X164979815Y-95442539D01*
X164927011Y-95488294D01*
X164875500Y-95499500D01*
X87624500Y-95499500D01*
X87557461Y-95479815D01*
X87511706Y-95427011D01*
X87500500Y-95375500D01*
X87500500Y-90133713D01*
X88889500Y-90133713D01*
X88889500Y-90346286D01*
X88922753Y-90556239D01*
X88988444Y-90758414D01*
X89084951Y-90947820D01*
X89209890Y-91119786D01*
X89360213Y-91270109D01*
X89532179Y-91395048D01*
X89532181Y-91395049D01*
X89532184Y-91395051D01*
X89721588Y-91491557D01*
X89923757Y-91557246D01*
X90133713Y-91590500D01*
X90133714Y-91590500D01*
X90346286Y-91590500D01*
X90346287Y-91590500D01*
X90556243Y-91557246D01*
X90758412Y-91491557D01*
X90947816Y-91395051D01*
X91002572Y-91355269D01*
X91119786Y-91270109D01*
X91119788Y-91270106D01*
X91119792Y-91270104D01*
X91270104Y-91119792D01*
X91270106Y-91119788D01*
X91270109Y-91119786D01*
X91395048Y-90947820D01*
X91395047Y-90947820D01*
X91395051Y-90947816D01*
X91399514Y-90939054D01*
X91447488Y-90888259D01*
X91515308Y-90871463D01*
X91581444Y-90893999D01*
X91620486Y-90939056D01*
X91624951Y-90947820D01*
X91749890Y-91119786D01*
X91900213Y-91270109D01*
X92072179Y-91395048D01*
X92072181Y-91395049D01*
X92072184Y-91395051D01*
X92261588Y-91491557D01*
X92463757Y-91557246D01*
X92673713Y-91590500D01*
X92673714Y-91590500D01*
X92886286Y-91590500D01*
X92886287Y-91590500D01*
X93096243Y-91557246D01*
X93298412Y-91491557D01*
X93487816Y-91395051D01*
X93542572Y-91355269D01*
X93659786Y-91270109D01*
X93659788Y-91270106D01*
X93659792Y-91270104D01*
X93810104Y-91119792D01*
X93810106Y-91119788D01*
X93810109Y-91119786D01*
X93935048Y-90947820D01*
X93935047Y-90947820D01*
X93935051Y-90947816D01*
X93939514Y-90939054D01*
X93987488Y-90888259D01*
X94055308Y-90871463D01*
X94121444Y-90893999D01*
X94160486Y-90939056D01*
X94164951Y-90947820D01*
X94289890Y-91119786D01*
X94440213Y-91270109D01*
X94612179Y-91395048D01*
X94612181Y-91395049D01*
X94612184Y-91395051D01*
X94801588Y-91491557D01*
X95003757Y-91557246D01*
X95213713Y-91590500D01*
X95213714Y-91590500D01*
X95426286Y-91590500D01*
X95426287Y-91590500D01*
X95636243Y-91557246D01*
X95838412Y-91491557D01*
X96027816Y-91395051D01*
X96082572Y-91355269D01*
X96199786Y-91270109D01*
X96199788Y-91270106D01*
X96199792Y-91270104D01*
X96350104Y-91119792D01*
X96350106Y-91119788D01*
X96350109Y-91119786D01*
X96475048Y-90947820D01*
X96475047Y-90947820D01*
X96475051Y-90947816D01*
X96479514Y-90939054D01*
X96527488Y-90888259D01*
X96595308Y-90871463D01*
X96661444Y-90893999D01*
X96700486Y-90939056D01*
X96704951Y-90947820D01*
X96829890Y-91119786D01*
X96980213Y-91270109D01*
X97152179Y-91395048D01*
X97152181Y-91395049D01*
X97152184Y-91395051D01*
X97341588Y-91491557D01*
X97543757Y-91557246D01*
X97753713Y-91590500D01*
X97753714Y-91590500D01*
X97966286Y-91590500D01*
X97966287Y-91590500D01*
X98176243Y-91557246D01*
X98378412Y-91491557D01*
X98567816Y-91395051D01*
X98622572Y-91355269D01*
X98739786Y-91270109D01*
X98739788Y-91270106D01*
X98739792Y-91270104D01*
X98890104Y-91119792D01*
X98890106Y-91119788D01*
X98890109Y-91119786D01*
X99015048Y-90947820D01*
X99015047Y-90947820D01*
X99015051Y-90947816D01*
X99019514Y-90939054D01*
X99067488Y-90888259D01*
X99135308Y-90871463D01*
X99201444Y-90893999D01*
X99240486Y-90939056D01*
X99244951Y-90947820D01*
X99369890Y-91119786D01*
X99520213Y-91270109D01*
X99692179Y-91395048D01*
X99692181Y-91395049D01*
X99692184Y-91395051D01*
X99881588Y-91491557D01*
X100083757Y-91557246D01*
X100293713Y-91590500D01*
X100293714Y-91590500D01*
X100506286Y-91590500D01*
X100506287Y-91590500D01*
X100716243Y-91557246D01*
X100918412Y-91491557D01*
X101107816Y-91395051D01*
X101162572Y-91355269D01*
X101279786Y-91270109D01*
X101279788Y-91270106D01*
X101279792Y-91270104D01*
X101430104Y-91119792D01*
X101430106Y-91119788D01*
X101430109Y-91119786D01*
X101555048Y-90947820D01*
X101555047Y-90947820D01*
X101555051Y-90947816D01*
X101559514Y-90939054D01*
X101607488Y-90888259D01*
X101675308Y-90871463D01*
X101741444Y-90893999D01*
X101780486Y-90939056D01*
X101784951Y-90947820D01*
X101909890Y-91119786D01*
X102060213Y-91270109D01*
X102232179Y-91395048D01*
X102232181Y-91395049D01*
X102232184Y-91395051D01*
X102421588Y-91491557D01*
X102623757Y-91557246D01*
X102833713Y-91590500D01*
X102833714Y-91590500D01*
X103046286Y-91590500D01*
X103046287Y-91590500D01*
X103256243Y-91557246D01*
X103458412Y-91491557D01*
X103647816Y-91395051D01*
X103702572Y-91355269D01*
X103819786Y-91270109D01*
X103819788Y-91270106D01*
X103819792Y-91270104D01*
X103970104Y-91119792D01*
X103970106Y-91119788D01*
X103970109Y-91119786D01*
X104095048Y-90947820D01*
X104095047Y-90947820D01*
X104095051Y-90947816D01*
X104099514Y-90939054D01*
X104147488Y-90888259D01*
X104215308Y-90871463D01*
X104281444Y-90893999D01*
X104320486Y-90939056D01*
X104324951Y-90947820D01*
X104449890Y-91119786D01*
X104600213Y-91270109D01*
X104772179Y-91395048D01*
X104772181Y-91395049D01*
X104772184Y-91395051D01*
X104961588Y-91491557D01*
X105163757Y-91557246D01*
X105373713Y-91590500D01*
X105373714Y-91590500D01*
X105586286Y-91590500D01*
X105586287Y-91590500D01*
X105796243Y-91557246D01*
X105998412Y-91491557D01*
X106187816Y-91395051D01*
X106242572Y-91355269D01*
X106359786Y-91270109D01*
X106359788Y-91270106D01*
X106359792Y-91270104D01*
X106510104Y-91119792D01*
X106510106Y-91119788D01*
X106510109Y-91119786D01*
X106635048Y-90947820D01*
X106635047Y-90947820D01*
X106635051Y-90947816D01*
X106639514Y-90939054D01*
X106687488Y-90888259D01*
X106755308Y-90871463D01*
X106821444Y-90893999D01*
X106860486Y-90939056D01*
X106864951Y-90947820D01*
X106989890Y-91119786D01*
X107140213Y-91270109D01*
X107312179Y-91395048D01*
X107312181Y-91395049D01*
X107312184Y-91395051D01*
X107501588Y-91491557D01*
X107703757Y-91557246D01*
X107913713Y-91590500D01*
X107913714Y-91590500D01*
X108126286Y-91590500D01*
X108126287Y-91590500D01*
X108336243Y-91557246D01*
X108538412Y-91491557D01*
X108727816Y-91395051D01*
X108782572Y-91355269D01*
X108899786Y-91270109D01*
X108899788Y-91270106D01*
X108899792Y-91270104D01*
X109050104Y-91119792D01*
X109050106Y-91119788D01*
X109050109Y-91119786D01*
X109175048Y-90947820D01*
X109175047Y-90947820D01*
X109175051Y-90947816D01*
X109179514Y-90939054D01*
X109227488Y-90888259D01*
X109295308Y-90871463D01*
X109361444Y-90893999D01*
X109400486Y-90939056D01*
X109404951Y-90947820D01*
X109529890Y-91119786D01*
X109680213Y-91270109D01*
X109852179Y-91395048D01*
X109852181Y-91395049D01*
X109852184Y-91395051D01*
X110041588Y-91491557D01*
X110243757Y-91557246D01*
X110453713Y-91590500D01*
X110453714Y-91590500D01*
X110666286Y-91590500D01*
X110666287Y-91590500D01*
X110876243Y-91557246D01*
X111078412Y-91491557D01*
X111267816Y-91395051D01*
X111322572Y-91355269D01*
X111439786Y-91270109D01*
X111439788Y-91270106D01*
X111439792Y-91270104D01*
X111590104Y-91119792D01*
X111590106Y-91119788D01*
X111590109Y-91119786D01*
X111715048Y-90947820D01*
X111715047Y-90947820D01*
X111715051Y-90947816D01*
X111719514Y-90939054D01*
X111767488Y-90888259D01*
X111835308Y-90871463D01*
X111901444Y-90893999D01*
X111940486Y-90939056D01*
X111944951Y-90947820D01*
X112069890Y-91119786D01*
X112220213Y-91270109D01*
X112392179Y-91395048D01*
X112392181Y-91395049D01*
X112392184Y-91395051D01*
X112581588Y-91491557D01*
X112783757Y-91557246D01*
X112993713Y-91590500D01*
X112993714Y-91590500D01*
X113206286Y-91590500D01*
X113206287Y-91590500D01*
X113416243Y-91557246D01*
X113618412Y-91491557D01*
X113807816Y-91395051D01*
X113862572Y-91355269D01*
X113979786Y-91270109D01*
X113979788Y-91270106D01*
X113979792Y-91270104D01*
X114130104Y-91119792D01*
X114130106Y-91119788D01*
X114130109Y-91119786D01*
X114255048Y-90947820D01*
X114255047Y-90947820D01*
X114255051Y-90947816D01*
X114259514Y-90939054D01*
X114307488Y-90888259D01*
X114375308Y-90871463D01*
X114441444Y-90893999D01*
X114480486Y-90939056D01*
X114484951Y-90947820D01*
X114609890Y-91119786D01*
X114760213Y-91270109D01*
X114932179Y-91395048D01*
X114932181Y-91395049D01*
X114932184Y-91395051D01*
X115121588Y-91491557D01*
X115323757Y-91557246D01*
X115533713Y-91590500D01*
X115533714Y-91590500D01*
X115746286Y-91590500D01*
X115746287Y-91590500D01*
X115956243Y-91557246D01*
X116158412Y-91491557D01*
X116347816Y-91395051D01*
X116402572Y-91355269D01*
X116519786Y-91270109D01*
X116519788Y-91270106D01*
X116519792Y-91270104D01*
X116670104Y-91119792D01*
X116670106Y-91119788D01*
X116670109Y-91119786D01*
X116795048Y-90947820D01*
X116795047Y-90947820D01*
X116795051Y-90947816D01*
X116799514Y-90939054D01*
X116847488Y-90888259D01*
X116915308Y-90871463D01*
X116981444Y-90893999D01*
X117020486Y-90939056D01*
X117024951Y-90947820D01*
X117149890Y-91119786D01*
X117300213Y-91270109D01*
X117472179Y-91395048D01*
X117472181Y-91395049D01*
X117472184Y-91395051D01*
X117661588Y-91491557D01*
X117863757Y-91557246D01*
X118073713Y-91590500D01*
X118073714Y-91590500D01*
X118286286Y-91590500D01*
X118286287Y-91590500D01*
X118496243Y-91557246D01*
X118698412Y-91491557D01*
X118887816Y-91395051D01*
X118942572Y-91355269D01*
X119059786Y-91270109D01*
X119059788Y-91270106D01*
X119059792Y-91270104D01*
X119210104Y-91119792D01*
X119210106Y-91119788D01*
X119210109Y-91119786D01*
X119335048Y-90947820D01*
X119335047Y-90947820D01*
X119335051Y-90947816D01*
X119339514Y-90939054D01*
X119387488Y-90888259D01*
X119455308Y-90871463D01*
X119521444Y-90893999D01*
X119560486Y-90939056D01*
X119564951Y-90947820D01*
X119689890Y-91119786D01*
X119840213Y-91270109D01*
X120012179Y-91395048D01*
X120012181Y-91395049D01*
X120012184Y-91395051D01*
X120201588Y-91491557D01*
X120403757Y-91557246D01*
X120613713Y-91590500D01*
X120613714Y-91590500D01*
X120826286Y-91590500D01*
X120826287Y-91590500D01*
X121036243Y-91557246D01*
X121238412Y-91491557D01*
X121427816Y-91395051D01*
X121482572Y-91355269D01*
X121599786Y-91270109D01*
X121599788Y-91270106D01*
X121599792Y-91270104D01*
X121750104Y-91119792D01*
X121750106Y-91119788D01*
X121750109Y-91119786D01*
X121875048Y-90947820D01*
X121875047Y-90947820D01*
X121875051Y-90947816D01*
X121879514Y-90939054D01*
X121927488Y-90888259D01*
X121995308Y-90871463D01*
X122061444Y-90893999D01*
X122100486Y-90939056D01*
X122104951Y-90947820D01*
X122229890Y-91119786D01*
X122380213Y-91270109D01*
X122552179Y-91395048D01*
X122552181Y-91395049D01*
X122552184Y-91395051D01*
X122741588Y-91491557D01*
X122943757Y-91557246D01*
X123153713Y-91590500D01*
X123153714Y-91590500D01*
X123366286Y-91590500D01*
X123366287Y-91590500D01*
X123576243Y-91557246D01*
X123778412Y-91491557D01*
X123967816Y-91395051D01*
X124022572Y-91355269D01*
X124139786Y-91270109D01*
X124139788Y-91270106D01*
X124139792Y-91270104D01*
X124290104Y-91119792D01*
X124290106Y-91119788D01*
X124290109Y-91119786D01*
X124415048Y-90947820D01*
X124415047Y-90947820D01*
X124415051Y-90947816D01*
X124419514Y-90939054D01*
X124467488Y-90888259D01*
X124535308Y-90871463D01*
X124601444Y-90893999D01*
X124640486Y-90939056D01*
X124644951Y-90947820D01*
X124769890Y-91119786D01*
X124920213Y-91270109D01*
X125092179Y-91395048D01*
X125092181Y-91395049D01*
X125092184Y-91395051D01*
X125281588Y-91491557D01*
X125483757Y-91557246D01*
X125693713Y-91590500D01*
X125693714Y-91590500D01*
X125906286Y-91590500D01*
X125906287Y-91590500D01*
X126116243Y-91557246D01*
X126318412Y-91491557D01*
X126507816Y-91395051D01*
X126562572Y-91355269D01*
X126679786Y-91270109D01*
X126679788Y-91270106D01*
X126679792Y-91270104D01*
X126830104Y-91119792D01*
X126830106Y-91119788D01*
X126830109Y-91119786D01*
X126955048Y-90947820D01*
X126955047Y-90947820D01*
X126955051Y-90947816D01*
X126959514Y-90939054D01*
X127007488Y-90888259D01*
X127075308Y-90871463D01*
X127141444Y-90893999D01*
X127180486Y-90939056D01*
X127184951Y-90947820D01*
X127309890Y-91119786D01*
X127460213Y-91270109D01*
X127632179Y-91395048D01*
X127632181Y-91395049D01*
X127632184Y-91395051D01*
X127821588Y-91491557D01*
X128023757Y-91557246D01*
X128233713Y-91590500D01*
X128233714Y-91590500D01*
X128446286Y-91590500D01*
X128446287Y-91590500D01*
X128656243Y-91557246D01*
X128858412Y-91491557D01*
X129047816Y-91395051D01*
X129102572Y-91355269D01*
X129219786Y-91270109D01*
X129219788Y-91270106D01*
X129219792Y-91270104D01*
X129370104Y-91119792D01*
X129370106Y-91119788D01*
X129370109Y-91119786D01*
X129495048Y-90947820D01*
X129495047Y-90947820D01*
X129495051Y-90947816D01*
X129499514Y-90939054D01*
X129547488Y-90888259D01*
X129615308Y-90871463D01*
X129681444Y-90893999D01*
X129720486Y-90939056D01*
X129724951Y-90947820D01*
X129849890Y-91119786D01*
X130000213Y-91270109D01*
X130172179Y-91395048D01*
X130172181Y-91395049D01*
X130172184Y-91395051D01*
X130361588Y-91491557D01*
X130563757Y-91557246D01*
X130773713Y-91590500D01*
X130773714Y-91590500D01*
X130986286Y-91590500D01*
X130986287Y-91590500D01*
X131196243Y-91557246D01*
X131398412Y-91491557D01*
X131587816Y-91395051D01*
X131642572Y-91355269D01*
X131759786Y-91270109D01*
X131759788Y-91270106D01*
X131759792Y-91270104D01*
X131910104Y-91119792D01*
X131910106Y-91119788D01*
X131910109Y-91119786D01*
X132035048Y-90947820D01*
X132035047Y-90947820D01*
X132035051Y-90947816D01*
X132039514Y-90939054D01*
X132087488Y-90888259D01*
X132155308Y-90871463D01*
X132221444Y-90893999D01*
X132260486Y-90939056D01*
X132264951Y-90947820D01*
X132389890Y-91119786D01*
X132540213Y-91270109D01*
X132712179Y-91395048D01*
X132712181Y-91395049D01*
X132712184Y-91395051D01*
X132901588Y-91491557D01*
X133103757Y-91557246D01*
X133313713Y-91590500D01*
X133313714Y-91590500D01*
X133526286Y-91590500D01*
X133526287Y-91590500D01*
X133736243Y-91557246D01*
X133938412Y-91491557D01*
X134127816Y-91395051D01*
X134182572Y-91355269D01*
X134299786Y-91270109D01*
X134299788Y-91270106D01*
X134299792Y-91270104D01*
X134450104Y-91119792D01*
X134450106Y-91119788D01*
X134450109Y-91119786D01*
X134535890Y-91001717D01*
X134575051Y-90947816D01*
X134579793Y-90938508D01*
X134627763Y-90887711D01*
X134695583Y-90870911D01*
X134761719Y-90893445D01*
X134800763Y-90938500D01*
X134805373Y-90947547D01*
X134844728Y-91001716D01*
X135477036Y-90369407D01*
X135494075Y-90432993D01*
X135559901Y-90547007D01*
X135652993Y-90640099D01*
X135767007Y-90705925D01*
X135830590Y-90722962D01*
X135198282Y-91355269D01*
X135198282Y-91355270D01*
X135252449Y-91394624D01*
X135441782Y-91491095D01*
X135643870Y-91556757D01*
X135853754Y-91590000D01*
X136066246Y-91590000D01*
X136276127Y-91556757D01*
X136276130Y-91556757D01*
X136478217Y-91491095D01*
X136667554Y-91394622D01*
X136721716Y-91355270D01*
X136721717Y-91355270D01*
X136089408Y-90722962D01*
X136152993Y-90705925D01*
X136267007Y-90640099D01*
X136360099Y-90547007D01*
X136425925Y-90432993D01*
X136442962Y-90369408D01*
X137075270Y-91001717D01*
X137075270Y-91001716D01*
X137114622Y-90947554D01*
X137119514Y-90937954D01*
X137167488Y-90887157D01*
X137235308Y-90870361D01*
X137301444Y-90892897D01*
X137340486Y-90937954D01*
X137345375Y-90947550D01*
X137384728Y-91001716D01*
X138017037Y-90369408D01*
X138034075Y-90432993D01*
X138099901Y-90547007D01*
X138192993Y-90640099D01*
X138307007Y-90705925D01*
X138370590Y-90722962D01*
X137738282Y-91355269D01*
X137738282Y-91355270D01*
X137792449Y-91394624D01*
X137981782Y-91491095D01*
X138183870Y-91556757D01*
X138393754Y-91590000D01*
X138606246Y-91590000D01*
X138816127Y-91556757D01*
X138816130Y-91556757D01*
X139018217Y-91491095D01*
X139207554Y-91394622D01*
X139261716Y-91355270D01*
X139261717Y-91355270D01*
X138629408Y-90722962D01*
X138692993Y-90705925D01*
X138807007Y-90640099D01*
X138900099Y-90547007D01*
X138965925Y-90432993D01*
X138982962Y-90369408D01*
X139615270Y-91001717D01*
X139615270Y-91001716D01*
X139654622Y-90947554D01*
X139751095Y-90758217D01*
X139816757Y-90556130D01*
X139816757Y-90556127D01*
X139850000Y-90346246D01*
X139850000Y-90133753D01*
X139816757Y-89923872D01*
X139816757Y-89923869D01*
X139751095Y-89721782D01*
X139654624Y-89532449D01*
X139615270Y-89478282D01*
X139615269Y-89478282D01*
X138982962Y-90110590D01*
X138965925Y-90047007D01*
X138900099Y-89932993D01*
X138807007Y-89839901D01*
X138692993Y-89774075D01*
X138629409Y-89757037D01*
X139261716Y-89124728D01*
X139207550Y-89085375D01*
X139018217Y-88988904D01*
X138816129Y-88923242D01*
X138606246Y-88890000D01*
X138393754Y-88890000D01*
X138183872Y-88923242D01*
X138183869Y-88923242D01*
X137981782Y-88988904D01*
X137792439Y-89085380D01*
X137738282Y-89124727D01*
X137738282Y-89124728D01*
X138370591Y-89757037D01*
X138307007Y-89774075D01*
X138192993Y-89839901D01*
X138099901Y-89932993D01*
X138034075Y-90047007D01*
X138017037Y-90110591D01*
X137384728Y-89478282D01*
X137384727Y-89478282D01*
X137345380Y-89532440D01*
X137340483Y-89542051D01*
X137292506Y-89592845D01*
X137224684Y-89609638D01*
X137158550Y-89587098D01*
X137119516Y-89542048D01*
X137114626Y-89532452D01*
X137075270Y-89478282D01*
X137075269Y-89478282D01*
X136442962Y-90110590D01*
X136425925Y-90047007D01*
X136360099Y-89932993D01*
X136267007Y-89839901D01*
X136152993Y-89774075D01*
X136089409Y-89757037D01*
X136721716Y-89124728D01*
X136667550Y-89085375D01*
X136478217Y-88988904D01*
X136276129Y-88923242D01*
X136066246Y-88890000D01*
X135853754Y-88890000D01*
X135643872Y-88923242D01*
X135643869Y-88923242D01*
X135441782Y-88988904D01*
X135252439Y-89085380D01*
X135198282Y-89124727D01*
X135198282Y-89124728D01*
X135830591Y-89757037D01*
X135767007Y-89774075D01*
X135652993Y-89839901D01*
X135559901Y-89932993D01*
X135494075Y-90047007D01*
X135477037Y-90110591D01*
X134844728Y-89478282D01*
X134844727Y-89478282D01*
X134805380Y-89532440D01*
X134805376Y-89532446D01*
X134800760Y-89541505D01*
X134752781Y-89592297D01*
X134684959Y-89609087D01*
X134618826Y-89586543D01*
X134579794Y-89541493D01*
X134575051Y-89532184D01*
X134575049Y-89532181D01*
X134575048Y-89532179D01*
X134450109Y-89360213D01*
X134299786Y-89209890D01*
X134127820Y-89084951D01*
X133938414Y-88988444D01*
X133938413Y-88988443D01*
X133938412Y-88988443D01*
X133736243Y-88922754D01*
X133736241Y-88922753D01*
X133736240Y-88922753D01*
X133574957Y-88897208D01*
X133526287Y-88889500D01*
X133313713Y-88889500D01*
X133265042Y-88897208D01*
X133103760Y-88922753D01*
X132901585Y-88988444D01*
X132712179Y-89084951D01*
X132540213Y-89209890D01*
X132389890Y-89360213D01*
X132264949Y-89532182D01*
X132260484Y-89540946D01*
X132212509Y-89591742D01*
X132144688Y-89608536D01*
X132078553Y-89585998D01*
X132039516Y-89540946D01*
X132035050Y-89532182D01*
X131910109Y-89360213D01*
X131759786Y-89209890D01*
X131587820Y-89084951D01*
X131398414Y-88988444D01*
X131398413Y-88988443D01*
X131398412Y-88988443D01*
X131196243Y-88922754D01*
X131196241Y-88922753D01*
X131196240Y-88922753D01*
X131034957Y-88897208D01*
X130986287Y-88889500D01*
X130773713Y-88889500D01*
X130725042Y-88897208D01*
X130563760Y-88922753D01*
X130361585Y-88988444D01*
X130172179Y-89084951D01*
X130000213Y-89209890D01*
X129849890Y-89360213D01*
X129724949Y-89532182D01*
X129720484Y-89540946D01*
X129672509Y-89591742D01*
X129604688Y-89608536D01*
X129538553Y-89585998D01*
X129499516Y-89540946D01*
X129495050Y-89532182D01*
X129370109Y-89360213D01*
X129219786Y-89209890D01*
X129047820Y-89084951D01*
X128858414Y-88988444D01*
X128858413Y-88988443D01*
X128858412Y-88988443D01*
X128656243Y-88922754D01*
X128656241Y-88922753D01*
X128656240Y-88922753D01*
X128494957Y-88897208D01*
X128446287Y-88889500D01*
X128233713Y-88889500D01*
X128185042Y-88897208D01*
X128023760Y-88922753D01*
X127821585Y-88988444D01*
X127632179Y-89084951D01*
X127460213Y-89209890D01*
X127309890Y-89360213D01*
X127184949Y-89532182D01*
X127180484Y-89540946D01*
X127132509Y-89591742D01*
X127064688Y-89608536D01*
X126998553Y-89585998D01*
X126959516Y-89540946D01*
X126955050Y-89532182D01*
X126830109Y-89360213D01*
X126679786Y-89209890D01*
X126507820Y-89084951D01*
X126318414Y-88988444D01*
X126318413Y-88988443D01*
X126318412Y-88988443D01*
X126116243Y-88922754D01*
X126116241Y-88922753D01*
X126116240Y-88922753D01*
X125954957Y-88897208D01*
X125906287Y-88889500D01*
X125693713Y-88889500D01*
X125645042Y-88897208D01*
X125483760Y-88922753D01*
X125281585Y-88988444D01*
X125092179Y-89084951D01*
X124920213Y-89209890D01*
X124769890Y-89360213D01*
X124644949Y-89532182D01*
X124640484Y-89540946D01*
X124592509Y-89591742D01*
X124524688Y-89608536D01*
X124458553Y-89585998D01*
X124419516Y-89540946D01*
X124415050Y-89532182D01*
X124290109Y-89360213D01*
X124139786Y-89209890D01*
X123967820Y-89084951D01*
X123778414Y-88988444D01*
X123778413Y-88988443D01*
X123778412Y-88988443D01*
X123576243Y-88922754D01*
X123576241Y-88922753D01*
X123576240Y-88922753D01*
X123414957Y-88897208D01*
X123366287Y-88889500D01*
X123153713Y-88889500D01*
X123105042Y-88897208D01*
X122943760Y-88922753D01*
X122741585Y-88988444D01*
X122552179Y-89084951D01*
X122380213Y-89209890D01*
X122229890Y-89360213D01*
X122104949Y-89532182D01*
X122100484Y-89540946D01*
X122052509Y-89591742D01*
X121984688Y-89608536D01*
X121918553Y-89585998D01*
X121879516Y-89540946D01*
X121875050Y-89532182D01*
X121750109Y-89360213D01*
X121599786Y-89209890D01*
X121427820Y-89084951D01*
X121238414Y-88988444D01*
X121238413Y-88988443D01*
X121238412Y-88988443D01*
X121036243Y-88922754D01*
X121036241Y-88922753D01*
X121036240Y-88922753D01*
X120874957Y-88897208D01*
X120826287Y-88889500D01*
X120613713Y-88889500D01*
X120565042Y-88897208D01*
X120403760Y-88922753D01*
X120201585Y-88988444D01*
X120012179Y-89084951D01*
X119840213Y-89209890D01*
X119689890Y-89360213D01*
X119564949Y-89532182D01*
X119560484Y-89540946D01*
X119512509Y-89591742D01*
X119444688Y-89608536D01*
X119378553Y-89585998D01*
X119339516Y-89540946D01*
X119335050Y-89532182D01*
X119210109Y-89360213D01*
X119059786Y-89209890D01*
X118887820Y-89084951D01*
X118698414Y-88988444D01*
X118698413Y-88988443D01*
X118698412Y-88988443D01*
X118496243Y-88922754D01*
X118496241Y-88922753D01*
X118496240Y-88922753D01*
X118334957Y-88897208D01*
X118286287Y-88889500D01*
X118073713Y-88889500D01*
X118025042Y-88897208D01*
X117863760Y-88922753D01*
X117661585Y-88988444D01*
X117472179Y-89084951D01*
X117300213Y-89209890D01*
X117149890Y-89360213D01*
X117024949Y-89532182D01*
X117020484Y-89540946D01*
X116972509Y-89591742D01*
X116904688Y-89608536D01*
X116838553Y-89585998D01*
X116799516Y-89540946D01*
X116795050Y-89532182D01*
X116670109Y-89360213D01*
X116519786Y-89209890D01*
X116347820Y-89084951D01*
X116158414Y-88988444D01*
X116158413Y-88988443D01*
X116158412Y-88988443D01*
X115956243Y-88922754D01*
X115956241Y-88922753D01*
X115956240Y-88922753D01*
X115794957Y-88897208D01*
X115746287Y-88889500D01*
X115533713Y-88889500D01*
X115485042Y-88897208D01*
X115323760Y-88922753D01*
X115121585Y-88988444D01*
X114932179Y-89084951D01*
X114760213Y-89209890D01*
X114609890Y-89360213D01*
X114484949Y-89532182D01*
X114480484Y-89540946D01*
X114432509Y-89591742D01*
X114364688Y-89608536D01*
X114298553Y-89585998D01*
X114259516Y-89540946D01*
X114255050Y-89532182D01*
X114130109Y-89360213D01*
X113979786Y-89209890D01*
X113807820Y-89084951D01*
X113618414Y-88988444D01*
X113618413Y-88988443D01*
X113618412Y-88988443D01*
X113416243Y-88922754D01*
X113416241Y-88922753D01*
X113416240Y-88922753D01*
X113254957Y-88897208D01*
X113206287Y-88889500D01*
X112993713Y-88889500D01*
X112945042Y-88897208D01*
X112783760Y-88922753D01*
X112581585Y-88988444D01*
X112392179Y-89084951D01*
X112220213Y-89209890D01*
X112069890Y-89360213D01*
X111944949Y-89532182D01*
X111940484Y-89540946D01*
X111892509Y-89591742D01*
X111824688Y-89608536D01*
X111758553Y-89585998D01*
X111719516Y-89540946D01*
X111715050Y-89532182D01*
X111590109Y-89360213D01*
X111439786Y-89209890D01*
X111267820Y-89084951D01*
X111078414Y-88988444D01*
X111078413Y-88988443D01*
X111078412Y-88988443D01*
X110876243Y-88922754D01*
X110876241Y-88922753D01*
X110876240Y-88922753D01*
X110714957Y-88897208D01*
X110666287Y-88889500D01*
X110453713Y-88889500D01*
X110405042Y-88897208D01*
X110243760Y-88922753D01*
X110041585Y-88988444D01*
X109852179Y-89084951D01*
X109680213Y-89209890D01*
X109529890Y-89360213D01*
X109404949Y-89532182D01*
X109400484Y-89540946D01*
X109352509Y-89591742D01*
X109284688Y-89608536D01*
X109218553Y-89585998D01*
X109179516Y-89540946D01*
X109175050Y-89532182D01*
X109050109Y-89360213D01*
X108899786Y-89209890D01*
X108727820Y-89084951D01*
X108538414Y-88988444D01*
X108538413Y-88988443D01*
X108538412Y-88988443D01*
X108336243Y-88922754D01*
X108336241Y-88922753D01*
X108336240Y-88922753D01*
X108174957Y-88897208D01*
X108126287Y-88889500D01*
X107913713Y-88889500D01*
X107865042Y-88897208D01*
X107703760Y-88922753D01*
X107501585Y-88988444D01*
X107312179Y-89084951D01*
X107140213Y-89209890D01*
X106989890Y-89360213D01*
X106864949Y-89532182D01*
X106860484Y-89540946D01*
X106812509Y-89591742D01*
X106744688Y-89608536D01*
X106678553Y-89585998D01*
X106639516Y-89540946D01*
X106635050Y-89532182D01*
X106510109Y-89360213D01*
X106359786Y-89209890D01*
X106187820Y-89084951D01*
X105998414Y-88988444D01*
X105998413Y-88988443D01*
X105998412Y-88988443D01*
X105796243Y-88922754D01*
X105796241Y-88922753D01*
X105796240Y-88922753D01*
X105634957Y-88897208D01*
X105586287Y-88889500D01*
X105373713Y-88889500D01*
X105325042Y-88897208D01*
X105163760Y-88922753D01*
X104961585Y-88988444D01*
X104772179Y-89084951D01*
X104600213Y-89209890D01*
X104449890Y-89360213D01*
X104324949Y-89532182D01*
X104320484Y-89540946D01*
X104272509Y-89591742D01*
X104204688Y-89608536D01*
X104138553Y-89585998D01*
X104099516Y-89540946D01*
X104095050Y-89532182D01*
X103970109Y-89360213D01*
X103819786Y-89209890D01*
X103647820Y-89084951D01*
X103458414Y-88988444D01*
X103458413Y-88988443D01*
X103458412Y-88988443D01*
X103256243Y-88922754D01*
X103256241Y-88922753D01*
X103256240Y-88922753D01*
X103094957Y-88897208D01*
X103046287Y-88889500D01*
X102833713Y-88889500D01*
X102785042Y-88897208D01*
X102623760Y-88922753D01*
X102421585Y-88988444D01*
X102232179Y-89084951D01*
X102060213Y-89209890D01*
X101909890Y-89360213D01*
X101784949Y-89532182D01*
X101780484Y-89540946D01*
X101732509Y-89591742D01*
X101664688Y-89608536D01*
X101598553Y-89585998D01*
X101559516Y-89540946D01*
X101555050Y-89532182D01*
X101430109Y-89360213D01*
X101279786Y-89209890D01*
X101107820Y-89084951D01*
X100918414Y-88988444D01*
X100918413Y-88988443D01*
X100918412Y-88988443D01*
X100716243Y-88922754D01*
X100716241Y-88922753D01*
X100716240Y-88922753D01*
X100554957Y-88897208D01*
X100506287Y-88889500D01*
X100293713Y-88889500D01*
X100245042Y-88897208D01*
X100083760Y-88922753D01*
X99881585Y-88988444D01*
X99692179Y-89084951D01*
X99520213Y-89209890D01*
X99369890Y-89360213D01*
X99244949Y-89532182D01*
X99240484Y-89540946D01*
X99192509Y-89591742D01*
X99124688Y-89608536D01*
X99058553Y-89585998D01*
X99019516Y-89540946D01*
X99015050Y-89532182D01*
X98890109Y-89360213D01*
X98739786Y-89209890D01*
X98567820Y-89084951D01*
X98378414Y-88988444D01*
X98378413Y-88988443D01*
X98378412Y-88988443D01*
X98176243Y-88922754D01*
X98176241Y-88922753D01*
X98176240Y-88922753D01*
X98014957Y-88897208D01*
X97966287Y-88889500D01*
X97753713Y-88889500D01*
X97705042Y-88897208D01*
X97543760Y-88922753D01*
X97341585Y-88988444D01*
X97152179Y-89084951D01*
X96980213Y-89209890D01*
X96829890Y-89360213D01*
X96704949Y-89532182D01*
X96700484Y-89540946D01*
X96652509Y-89591742D01*
X96584688Y-89608536D01*
X96518553Y-89585998D01*
X96479516Y-89540946D01*
X96475050Y-89532182D01*
X96350109Y-89360213D01*
X96199786Y-89209890D01*
X96027820Y-89084951D01*
X95838414Y-88988444D01*
X95838413Y-88988443D01*
X95838412Y-88988443D01*
X95636243Y-88922754D01*
X95636241Y-88922753D01*
X95636240Y-88922753D01*
X95474957Y-88897208D01*
X95426287Y-88889500D01*
X95213713Y-88889500D01*
X95165042Y-88897208D01*
X95003760Y-88922753D01*
X94801585Y-88988444D01*
X94612179Y-89084951D01*
X94440213Y-89209890D01*
X94289890Y-89360213D01*
X94164949Y-89532182D01*
X94160484Y-89540946D01*
X94112509Y-89591742D01*
X94044688Y-89608536D01*
X93978553Y-89585998D01*
X93939516Y-89540946D01*
X93935050Y-89532182D01*
X93810109Y-89360213D01*
X93659786Y-89209890D01*
X93487820Y-89084951D01*
X93298414Y-88988444D01*
X93298413Y-88988443D01*
X93298412Y-88988443D01*
X93096243Y-88922754D01*
X93096241Y-88922753D01*
X93096240Y-88922753D01*
X92934957Y-88897208D01*
X92886287Y-88889500D01*
X92673713Y-88889500D01*
X92625042Y-88897208D01*
X92463760Y-88922753D01*
X92261585Y-88988444D01*
X92072179Y-89084951D01*
X91900213Y-89209890D01*
X91749890Y-89360213D01*
X91624949Y-89532182D01*
X91620484Y-89540946D01*
X91572509Y-89591742D01*
X91504688Y-89608536D01*
X91438553Y-89585998D01*
X91399516Y-89540946D01*
X91395050Y-89532182D01*
X91270109Y-89360213D01*
X91119786Y-89209890D01*
X90947820Y-89084951D01*
X90758414Y-88988444D01*
X90758413Y-88988443D01*
X90758412Y-88988443D01*
X90556243Y-88922754D01*
X90556241Y-88922753D01*
X90556240Y-88922753D01*
X90394957Y-88897208D01*
X90346287Y-88889500D01*
X90133713Y-88889500D01*
X90085042Y-88897208D01*
X89923760Y-88922753D01*
X89721585Y-88988444D01*
X89532179Y-89084951D01*
X89360213Y-89209890D01*
X89209890Y-89360213D01*
X89084951Y-89532179D01*
X88988444Y-89721585D01*
X88922753Y-89923760D01*
X88889500Y-90133713D01*
X87500500Y-90133713D01*
X87500500Y-81243713D01*
X92699500Y-81243713D01*
X92699500Y-81456286D01*
X92731022Y-81655311D01*
X92732754Y-81666243D01*
X92797625Y-81865896D01*
X92798444Y-81868414D01*
X92894951Y-82057820D01*
X93019890Y-82229786D01*
X93170213Y-82380109D01*
X93342182Y-82505050D01*
X93350946Y-82509516D01*
X93401742Y-82557491D01*
X93418536Y-82625312D01*
X93395998Y-82691447D01*
X93350946Y-82730484D01*
X93342182Y-82734949D01*
X93170213Y-82859890D01*
X93019890Y-83010213D01*
X92894951Y-83182179D01*
X92798444Y-83371585D01*
X92732753Y-83573760D01*
X92699500Y-83783713D01*
X92699500Y-83996286D01*
X92731066Y-84195590D01*
X92732754Y-84206243D01*
X92798221Y-84407730D01*
X92798444Y-84408414D01*
X92894951Y-84597820D01*
X93019890Y-84769786D01*
X93170213Y-84920109D01*
X93342182Y-85045050D01*
X93350946Y-85049516D01*
X93401742Y-85097491D01*
X93418536Y-85165312D01*
X93395998Y-85231447D01*
X93350946Y-85270484D01*
X93342182Y-85274949D01*
X93170213Y-85399890D01*
X93019890Y-85550213D01*
X92894951Y-85722179D01*
X92798444Y-85911585D01*
X92732753Y-86113760D01*
X92725633Y-86158715D01*
X92699500Y-86323713D01*
X92699500Y-86536287D01*
X92709534Y-86599644D01*
X92729295Y-86724408D01*
X92732754Y-86746243D01*
X92762843Y-86838848D01*
X92798444Y-86948414D01*
X92894951Y-87137820D01*
X93019890Y-87309786D01*
X93170213Y-87460109D01*
X93342179Y-87585048D01*
X93342181Y-87585049D01*
X93342184Y-87585051D01*
X93531588Y-87681557D01*
X93733757Y-87747246D01*
X93943713Y-87780500D01*
X93943714Y-87780500D01*
X94156286Y-87780500D01*
X94156287Y-87780500D01*
X94366243Y-87747246D01*
X94568412Y-87681557D01*
X94757816Y-87585051D01*
X94790797Y-87561089D01*
X94929786Y-87460109D01*
X94929788Y-87460106D01*
X94929792Y-87460104D01*
X95080104Y-87309792D01*
X95080106Y-87309788D01*
X95080109Y-87309786D01*
X95205048Y-87137820D01*
X95205047Y-87137820D01*
X95205051Y-87137816D01*
X95301557Y-86948412D01*
X95367246Y-86746243D01*
X95400500Y-86536287D01*
X95400500Y-86323713D01*
X95367246Y-86113757D01*
X95301557Y-85911588D01*
X95282424Y-85874038D01*
X143399500Y-85874038D01*
X143399500Y-86125961D01*
X143438910Y-86374785D01*
X143516760Y-86614383D01*
X143631132Y-86838848D01*
X143779201Y-87042649D01*
X143779205Y-87042654D01*
X143957345Y-87220794D01*
X143957350Y-87220798D01*
X144079841Y-87309792D01*
X144161155Y-87368870D01*
X144304184Y-87441747D01*
X144385616Y-87483239D01*
X144385618Y-87483239D01*
X144385621Y-87483241D01*
X144625215Y-87561090D01*
X144874038Y-87600500D01*
X144874039Y-87600500D01*
X145125961Y-87600500D01*
X145125962Y-87600500D01*
X145374785Y-87561090D01*
X145614379Y-87483241D01*
X145838845Y-87368870D01*
X146042656Y-87220793D01*
X146220793Y-87042656D01*
X146368870Y-86838845D01*
X146483241Y-86614379D01*
X146561090Y-86374785D01*
X146600500Y-86125962D01*
X146600500Y-85874038D01*
X146561090Y-85625215D01*
X146561089Y-85625211D01*
X146561089Y-85625210D01*
X146486004Y-85394124D01*
X146485387Y-85392226D01*
X146483241Y-85385621D01*
X146368870Y-85161155D01*
X146287760Y-85049516D01*
X146220798Y-84957350D01*
X146220794Y-84957345D01*
X146042654Y-84779205D01*
X146042649Y-84779201D01*
X145838848Y-84631132D01*
X145838847Y-84631131D01*
X145838845Y-84631130D01*
X145768747Y-84595413D01*
X145614383Y-84516760D01*
X145374785Y-84438910D01*
X145182242Y-84408414D01*
X145125962Y-84399500D01*
X144874038Y-84399500D01*
X144817758Y-84408414D01*
X144625214Y-84438910D01*
X144385616Y-84516760D01*
X144161151Y-84631132D01*
X143957350Y-84779201D01*
X143957345Y-84779205D01*
X143779205Y-84957345D01*
X143779201Y-84957350D01*
X143631132Y-85161151D01*
X143516760Y-85385616D01*
X143438910Y-85625214D01*
X143399500Y-85874038D01*
X95282424Y-85874038D01*
X95205051Y-85722184D01*
X95205049Y-85722181D01*
X95205048Y-85722179D01*
X95080109Y-85550213D01*
X94929786Y-85399890D01*
X94757820Y-85274951D01*
X94757115Y-85274591D01*
X94749054Y-85270485D01*
X94698259Y-85222512D01*
X94681463Y-85154692D01*
X94703999Y-85088556D01*
X94749054Y-85049515D01*
X94757816Y-85045051D01*
X94779789Y-85029086D01*
X94929786Y-84920109D01*
X94929788Y-84920106D01*
X94929792Y-84920104D01*
X95080104Y-84769792D01*
X95080106Y-84769788D01*
X95080109Y-84769786D01*
X95205048Y-84597820D01*
X95205047Y-84597820D01*
X95205051Y-84597816D01*
X95301557Y-84408412D01*
X95367246Y-84206243D01*
X95400500Y-83996287D01*
X95400500Y-83783713D01*
X95367246Y-83573757D01*
X95301557Y-83371588D01*
X95205051Y-83182184D01*
X95205049Y-83182181D01*
X95205048Y-83182179D01*
X95080109Y-83010213D01*
X94929786Y-82859890D01*
X94757820Y-82734951D01*
X94757115Y-82734591D01*
X94749054Y-82730485D01*
X94698259Y-82682512D01*
X94681463Y-82614692D01*
X94703999Y-82548556D01*
X94749054Y-82509515D01*
X94757816Y-82505051D01*
X94779789Y-82489086D01*
X94929786Y-82380109D01*
X94929788Y-82380106D01*
X94929792Y-82380104D01*
X95080104Y-82229792D01*
X95080106Y-82229788D01*
X95080109Y-82229786D01*
X95205048Y-82057820D01*
X95205047Y-82057820D01*
X95205051Y-82057816D01*
X95301557Y-81868412D01*
X95367246Y-81666243D01*
X95400500Y-81456287D01*
X95400500Y-81243713D01*
X95367246Y-81033757D01*
X95301557Y-80831588D01*
X95205051Y-80642184D01*
X95205049Y-80642181D01*
X95205048Y-80642179D01*
X95080109Y-80470213D01*
X94929786Y-80319890D01*
X94757817Y-80194949D01*
X94748504Y-80190204D01*
X94697707Y-80142230D01*
X94680912Y-80074409D01*
X94703449Y-80008274D01*
X94748507Y-79969232D01*
X94757555Y-79964622D01*
X94811716Y-79925270D01*
X94811717Y-79925270D01*
X94179408Y-79292962D01*
X94242993Y-79275925D01*
X94357007Y-79210099D01*
X94450099Y-79117007D01*
X94515925Y-79002993D01*
X94532962Y-78939409D01*
X95165270Y-79571717D01*
X95165270Y-79571716D01*
X95204622Y-79517554D01*
X95301095Y-79328217D01*
X95366757Y-79126130D01*
X95366757Y-79126127D01*
X95400000Y-78916246D01*
X95400000Y-78703753D01*
X95366757Y-78493872D01*
X95366757Y-78493869D01*
X95301095Y-78291782D01*
X95204624Y-78102449D01*
X95165270Y-78048282D01*
X95165269Y-78048282D01*
X94532962Y-78680590D01*
X94515925Y-78617007D01*
X94450099Y-78502993D01*
X94357007Y-78409901D01*
X94242993Y-78344075D01*
X94179409Y-78327037D01*
X94811716Y-77694728D01*
X94757550Y-77655375D01*
X94568217Y-77558904D01*
X94366129Y-77493242D01*
X94156246Y-77460000D01*
X93943754Y-77460000D01*
X93733872Y-77493242D01*
X93733869Y-77493242D01*
X93531782Y-77558904D01*
X93342439Y-77655380D01*
X93288282Y-77694727D01*
X93288282Y-77694728D01*
X93920591Y-78327037D01*
X93857007Y-78344075D01*
X93742993Y-78409901D01*
X93649901Y-78502993D01*
X93584075Y-78617007D01*
X93567037Y-78680591D01*
X92934728Y-78048282D01*
X92934727Y-78048282D01*
X92895380Y-78102439D01*
X92798904Y-78291782D01*
X92733242Y-78493869D01*
X92733242Y-78493872D01*
X92700000Y-78703753D01*
X92700000Y-78916246D01*
X92733242Y-79126127D01*
X92733242Y-79126130D01*
X92798904Y-79328217D01*
X92895375Y-79517550D01*
X92934728Y-79571716D01*
X93567037Y-78939408D01*
X93584075Y-79002993D01*
X93649901Y-79117007D01*
X93742993Y-79210099D01*
X93857007Y-79275925D01*
X93920590Y-79292962D01*
X93288282Y-79925269D01*
X93288282Y-79925270D01*
X93342452Y-79964626D01*
X93342451Y-79964626D01*
X93351495Y-79969234D01*
X93402292Y-80017208D01*
X93419087Y-80085029D01*
X93396550Y-80151164D01*
X93351499Y-80190202D01*
X93342182Y-80194949D01*
X93170213Y-80319890D01*
X93019890Y-80470213D01*
X92894951Y-80642179D01*
X92798444Y-80831585D01*
X92732753Y-81033760D01*
X92699500Y-81243713D01*
X87500500Y-81243713D01*
X87500500Y-76911304D01*
X145599500Y-76911304D01*
X145599500Y-77088695D01*
X145634103Y-77262658D01*
X145634106Y-77262667D01*
X145701984Y-77426542D01*
X145701985Y-77426543D01*
X145701987Y-77426547D01*
X145724340Y-77460000D01*
X145728602Y-77466378D01*
X145749480Y-77533055D01*
X145749500Y-77535269D01*
X145749500Y-80464729D01*
X145729815Y-80531768D01*
X145728602Y-80533620D01*
X145701988Y-80573449D01*
X145701987Y-80573452D01*
X145634106Y-80737332D01*
X145634103Y-80737341D01*
X145599500Y-80911304D01*
X145599500Y-81088695D01*
X145634103Y-81262658D01*
X145634106Y-81262667D01*
X145701983Y-81426540D01*
X145701990Y-81426553D01*
X145800535Y-81574034D01*
X145800538Y-81574038D01*
X145925961Y-81699461D01*
X145925965Y-81699464D01*
X146073446Y-81798009D01*
X146073459Y-81798016D01*
X146175334Y-81840213D01*
X146237334Y-81865894D01*
X146237336Y-81865894D01*
X146237341Y-81865896D01*
X146411304Y-81900499D01*
X146411307Y-81900500D01*
X146411309Y-81900500D01*
X146588693Y-81900500D01*
X146588694Y-81900499D01*
X146646682Y-81888964D01*
X146762658Y-81865896D01*
X146762661Y-81865894D01*
X146762666Y-81865894D01*
X146926547Y-81798013D01*
X147074035Y-81699464D01*
X147199464Y-81574035D01*
X147298013Y-81426547D01*
X147365894Y-81262666D01*
X147400500Y-81088691D01*
X147400500Y-80911309D01*
X147400500Y-80911306D01*
X147400499Y-80911304D01*
X147365896Y-80737341D01*
X147365893Y-80737332D01*
X147298013Y-80573453D01*
X147298011Y-80573451D01*
X147298011Y-80573449D01*
X147271398Y-80533620D01*
X147250520Y-80466942D01*
X147250500Y-80464729D01*
X147250500Y-77535269D01*
X147270185Y-77468230D01*
X147271398Y-77466378D01*
X147298013Y-77426547D01*
X147365894Y-77262666D01*
X147400500Y-77088691D01*
X147400500Y-76911309D01*
X147400500Y-76911306D01*
X147400499Y-76911304D01*
X147365896Y-76737341D01*
X147365893Y-76737332D01*
X147298016Y-76573459D01*
X147298009Y-76573446D01*
X147199464Y-76425965D01*
X147199461Y-76425961D01*
X147074038Y-76300538D01*
X147074034Y-76300535D01*
X146926553Y-76201990D01*
X146926540Y-76201983D01*
X146762667Y-76134106D01*
X146762658Y-76134103D01*
X146588694Y-76099500D01*
X146588691Y-76099500D01*
X146411309Y-76099500D01*
X146411306Y-76099500D01*
X146237341Y-76134103D01*
X146237332Y-76134106D01*
X146073459Y-76201983D01*
X146073446Y-76201990D01*
X145925965Y-76300535D01*
X145925961Y-76300538D01*
X145800538Y-76425961D01*
X145800535Y-76425965D01*
X145701990Y-76573446D01*
X145701983Y-76573459D01*
X145634106Y-76737332D01*
X145634103Y-76737341D01*
X145599500Y-76911304D01*
X87500500Y-76911304D01*
X87500500Y-74893713D01*
X88889500Y-74893713D01*
X88889500Y-75106287D01*
X88922754Y-75316243D01*
X88949760Y-75399360D01*
X88988444Y-75518414D01*
X89084951Y-75707820D01*
X89209890Y-75879786D01*
X89360213Y-76030109D01*
X89532179Y-76155048D01*
X89532181Y-76155049D01*
X89532184Y-76155051D01*
X89721588Y-76251557D01*
X89923757Y-76317246D01*
X90133713Y-76350500D01*
X90133714Y-76350500D01*
X90346286Y-76350500D01*
X90346287Y-76350500D01*
X90556243Y-76317246D01*
X90758412Y-76251557D01*
X90947816Y-76155051D01*
X90992666Y-76122466D01*
X91119786Y-76030109D01*
X91119788Y-76030106D01*
X91119792Y-76030104D01*
X91270104Y-75879792D01*
X91270106Y-75879788D01*
X91270109Y-75879786D01*
X91355890Y-75761717D01*
X91395051Y-75707816D01*
X91399793Y-75698508D01*
X91447763Y-75647711D01*
X91515583Y-75630911D01*
X91581719Y-75653445D01*
X91620763Y-75698500D01*
X91625373Y-75707547D01*
X91664728Y-75761716D01*
X92297037Y-75129408D01*
X92314075Y-75192993D01*
X92379901Y-75307007D01*
X92472993Y-75400099D01*
X92587007Y-75465925D01*
X92650590Y-75482962D01*
X92018282Y-76115269D01*
X92018282Y-76115270D01*
X92072449Y-76154624D01*
X92261782Y-76251095D01*
X92463870Y-76316757D01*
X92673754Y-76350000D01*
X92886246Y-76350000D01*
X93096127Y-76316757D01*
X93096130Y-76316757D01*
X93298217Y-76251095D01*
X93487554Y-76154622D01*
X93541716Y-76115270D01*
X93541717Y-76115270D01*
X92909408Y-75482962D01*
X92972993Y-75465925D01*
X93087007Y-75400099D01*
X93180099Y-75307007D01*
X93245925Y-75192993D01*
X93262962Y-75129409D01*
X93895270Y-75761717D01*
X93895270Y-75761716D01*
X93934622Y-75707555D01*
X93939232Y-75698507D01*
X93987205Y-75647709D01*
X94055025Y-75630912D01*
X94121161Y-75653447D01*
X94160204Y-75698504D01*
X94164949Y-75707817D01*
X94289890Y-75879786D01*
X94440213Y-76030109D01*
X94612179Y-76155048D01*
X94612181Y-76155049D01*
X94612184Y-76155051D01*
X94801588Y-76251557D01*
X95003757Y-76317246D01*
X95213713Y-76350500D01*
X95213714Y-76350500D01*
X95426286Y-76350500D01*
X95426287Y-76350500D01*
X95636243Y-76317246D01*
X95838412Y-76251557D01*
X96027816Y-76155051D01*
X96072666Y-76122466D01*
X96199786Y-76030109D01*
X96199788Y-76030106D01*
X96199792Y-76030104D01*
X96350104Y-75879792D01*
X96350106Y-75879788D01*
X96350109Y-75879786D01*
X96475048Y-75707820D01*
X96475047Y-75707820D01*
X96475051Y-75707816D01*
X96479514Y-75699054D01*
X96527488Y-75648259D01*
X96595308Y-75631463D01*
X96661444Y-75653999D01*
X96700486Y-75699056D01*
X96704951Y-75707820D01*
X96829890Y-75879786D01*
X96980213Y-76030109D01*
X97152179Y-76155048D01*
X97152181Y-76155049D01*
X97152184Y-76155051D01*
X97341588Y-76251557D01*
X97543757Y-76317246D01*
X97753713Y-76350500D01*
X97753714Y-76350500D01*
X97966286Y-76350500D01*
X97966287Y-76350500D01*
X98176243Y-76317246D01*
X98378412Y-76251557D01*
X98567816Y-76155051D01*
X98612666Y-76122466D01*
X98739786Y-76030109D01*
X98739788Y-76030106D01*
X98739792Y-76030104D01*
X98890104Y-75879792D01*
X98890106Y-75879788D01*
X98890109Y-75879786D01*
X99015048Y-75707820D01*
X99015047Y-75707820D01*
X99015051Y-75707816D01*
X99019514Y-75699054D01*
X99067488Y-75648259D01*
X99135308Y-75631463D01*
X99201444Y-75653999D01*
X99240486Y-75699056D01*
X99244951Y-75707820D01*
X99369890Y-75879786D01*
X99520213Y-76030109D01*
X99692179Y-76155048D01*
X99692181Y-76155049D01*
X99692184Y-76155051D01*
X99881588Y-76251557D01*
X100083757Y-76317246D01*
X100293713Y-76350500D01*
X100293714Y-76350500D01*
X100506286Y-76350500D01*
X100506287Y-76350500D01*
X100716243Y-76317246D01*
X100918412Y-76251557D01*
X101107816Y-76155051D01*
X101152666Y-76122466D01*
X101279786Y-76030109D01*
X101279788Y-76030106D01*
X101279792Y-76030104D01*
X101430104Y-75879792D01*
X101430106Y-75879788D01*
X101430109Y-75879786D01*
X101555048Y-75707820D01*
X101555047Y-75707820D01*
X101555051Y-75707816D01*
X101559514Y-75699054D01*
X101607488Y-75648259D01*
X101675308Y-75631463D01*
X101741444Y-75653999D01*
X101780486Y-75699056D01*
X101784951Y-75707820D01*
X101909890Y-75879786D01*
X102060213Y-76030109D01*
X102232179Y-76155048D01*
X102232181Y-76155049D01*
X102232184Y-76155051D01*
X102421588Y-76251557D01*
X102623757Y-76317246D01*
X102833713Y-76350500D01*
X102833714Y-76350500D01*
X103046286Y-76350500D01*
X103046287Y-76350500D01*
X103256243Y-76317246D01*
X103458412Y-76251557D01*
X103647816Y-76155051D01*
X103692666Y-76122466D01*
X103819786Y-76030109D01*
X103819788Y-76030106D01*
X103819792Y-76030104D01*
X103970104Y-75879792D01*
X103970106Y-75879788D01*
X103970109Y-75879786D01*
X104095048Y-75707820D01*
X104095047Y-75707820D01*
X104095051Y-75707816D01*
X104099514Y-75699054D01*
X104147488Y-75648259D01*
X104215308Y-75631463D01*
X104281444Y-75653999D01*
X104320486Y-75699056D01*
X104324951Y-75707820D01*
X104449890Y-75879786D01*
X104600213Y-76030109D01*
X104772179Y-76155048D01*
X104772181Y-76155049D01*
X104772184Y-76155051D01*
X104961588Y-76251557D01*
X105163757Y-76317246D01*
X105373713Y-76350500D01*
X105373714Y-76350500D01*
X105586286Y-76350500D01*
X105586287Y-76350500D01*
X105796243Y-76317246D01*
X105998412Y-76251557D01*
X106187816Y-76155051D01*
X106232666Y-76122466D01*
X106359786Y-76030109D01*
X106359788Y-76030106D01*
X106359792Y-76030104D01*
X106510104Y-75879792D01*
X106510106Y-75879788D01*
X106510109Y-75879786D01*
X106635048Y-75707820D01*
X106635047Y-75707820D01*
X106635051Y-75707816D01*
X106639514Y-75699054D01*
X106687488Y-75648259D01*
X106755308Y-75631463D01*
X106821444Y-75653999D01*
X106860486Y-75699056D01*
X106864951Y-75707820D01*
X106989890Y-75879786D01*
X107140213Y-76030109D01*
X107312179Y-76155048D01*
X107312181Y-76155049D01*
X107312184Y-76155051D01*
X107501588Y-76251557D01*
X107703757Y-76317246D01*
X107913713Y-76350500D01*
X107913714Y-76350500D01*
X108126286Y-76350500D01*
X108126287Y-76350500D01*
X108336243Y-76317246D01*
X108538412Y-76251557D01*
X108727816Y-76155051D01*
X108772666Y-76122466D01*
X108899786Y-76030109D01*
X108899788Y-76030106D01*
X108899792Y-76030104D01*
X109050104Y-75879792D01*
X109050106Y-75879788D01*
X109050109Y-75879786D01*
X109175048Y-75707820D01*
X109175047Y-75707820D01*
X109175051Y-75707816D01*
X109179514Y-75699054D01*
X109227488Y-75648259D01*
X109295308Y-75631463D01*
X109361444Y-75653999D01*
X109400486Y-75699056D01*
X109404951Y-75707820D01*
X109529890Y-75879786D01*
X109680213Y-76030109D01*
X109852179Y-76155048D01*
X109852181Y-76155049D01*
X109852184Y-76155051D01*
X110041588Y-76251557D01*
X110243757Y-76317246D01*
X110453713Y-76350500D01*
X110453714Y-76350500D01*
X110666286Y-76350500D01*
X110666287Y-76350500D01*
X110876243Y-76317246D01*
X111078412Y-76251557D01*
X111267816Y-76155051D01*
X111312666Y-76122466D01*
X111439786Y-76030109D01*
X111439788Y-76030106D01*
X111439792Y-76030104D01*
X111590104Y-75879792D01*
X111590106Y-75879788D01*
X111590109Y-75879786D01*
X111715048Y-75707820D01*
X111715047Y-75707820D01*
X111715051Y-75707816D01*
X111719514Y-75699054D01*
X111767488Y-75648259D01*
X111835308Y-75631463D01*
X111901444Y-75653999D01*
X111940486Y-75699056D01*
X111944951Y-75707820D01*
X112069890Y-75879786D01*
X112220213Y-76030109D01*
X112392179Y-76155048D01*
X112392181Y-76155049D01*
X112392184Y-76155051D01*
X112581588Y-76251557D01*
X112783757Y-76317246D01*
X112993713Y-76350500D01*
X112993714Y-76350500D01*
X113206286Y-76350500D01*
X113206287Y-76350500D01*
X113416243Y-76317246D01*
X113618412Y-76251557D01*
X113807816Y-76155051D01*
X113852666Y-76122466D01*
X113979786Y-76030109D01*
X113979788Y-76030106D01*
X113979792Y-76030104D01*
X114130104Y-75879792D01*
X114130106Y-75879788D01*
X114130109Y-75879786D01*
X114255048Y-75707820D01*
X114255047Y-75707820D01*
X114255051Y-75707816D01*
X114259514Y-75699054D01*
X114307488Y-75648259D01*
X114375308Y-75631463D01*
X114441444Y-75653999D01*
X114480486Y-75699056D01*
X114484951Y-75707820D01*
X114609890Y-75879786D01*
X114760213Y-76030109D01*
X114932179Y-76155048D01*
X114932181Y-76155049D01*
X114932184Y-76155051D01*
X115121588Y-76251557D01*
X115323757Y-76317246D01*
X115533713Y-76350500D01*
X115533714Y-76350500D01*
X115746286Y-76350500D01*
X115746287Y-76350500D01*
X115956243Y-76317246D01*
X116158412Y-76251557D01*
X116347816Y-76155051D01*
X116392666Y-76122466D01*
X116519786Y-76030109D01*
X116519788Y-76030106D01*
X116519792Y-76030104D01*
X116670104Y-75879792D01*
X116670106Y-75879788D01*
X116670109Y-75879786D01*
X116795048Y-75707820D01*
X116795047Y-75707820D01*
X116795051Y-75707816D01*
X116799514Y-75699054D01*
X116847488Y-75648259D01*
X116915308Y-75631463D01*
X116981444Y-75653999D01*
X117020486Y-75699056D01*
X117024951Y-75707820D01*
X117149890Y-75879786D01*
X117300213Y-76030109D01*
X117472179Y-76155048D01*
X117472181Y-76155049D01*
X117472184Y-76155051D01*
X117661588Y-76251557D01*
X117863757Y-76317246D01*
X118073713Y-76350500D01*
X118073714Y-76350500D01*
X118286286Y-76350500D01*
X118286287Y-76350500D01*
X118496243Y-76317246D01*
X118698412Y-76251557D01*
X118887816Y-76155051D01*
X118932666Y-76122466D01*
X119059786Y-76030109D01*
X119059788Y-76030106D01*
X119059792Y-76030104D01*
X119210104Y-75879792D01*
X119210106Y-75879788D01*
X119210109Y-75879786D01*
X119335048Y-75707820D01*
X119335047Y-75707820D01*
X119335051Y-75707816D01*
X119339514Y-75699054D01*
X119387488Y-75648259D01*
X119455308Y-75631463D01*
X119521444Y-75653999D01*
X119560486Y-75699056D01*
X119564951Y-75707820D01*
X119689890Y-75879786D01*
X119840213Y-76030109D01*
X120012179Y-76155048D01*
X120012181Y-76155049D01*
X120012184Y-76155051D01*
X120201588Y-76251557D01*
X120403757Y-76317246D01*
X120613713Y-76350500D01*
X120613714Y-76350500D01*
X120826286Y-76350500D01*
X120826287Y-76350500D01*
X121036243Y-76317246D01*
X121238412Y-76251557D01*
X121427816Y-76155051D01*
X121472666Y-76122466D01*
X121599786Y-76030109D01*
X121599788Y-76030106D01*
X121599792Y-76030104D01*
X121750104Y-75879792D01*
X121750106Y-75879788D01*
X121750109Y-75879786D01*
X121875048Y-75707820D01*
X121875047Y-75707820D01*
X121875051Y-75707816D01*
X121879514Y-75699054D01*
X121927488Y-75648259D01*
X121995308Y-75631463D01*
X122061444Y-75653999D01*
X122100486Y-75699056D01*
X122104951Y-75707820D01*
X122229890Y-75879786D01*
X122380213Y-76030109D01*
X122552179Y-76155048D01*
X122552181Y-76155049D01*
X122552184Y-76155051D01*
X122741588Y-76251557D01*
X122943757Y-76317246D01*
X123153713Y-76350500D01*
X123153714Y-76350500D01*
X123366286Y-76350500D01*
X123366287Y-76350500D01*
X123576243Y-76317246D01*
X123778412Y-76251557D01*
X123967816Y-76155051D01*
X124012666Y-76122466D01*
X124139786Y-76030109D01*
X124139788Y-76030106D01*
X124139792Y-76030104D01*
X124290104Y-75879792D01*
X124290106Y-75879788D01*
X124290109Y-75879786D01*
X124415048Y-75707820D01*
X124415047Y-75707820D01*
X124415051Y-75707816D01*
X124419514Y-75699054D01*
X124467488Y-75648259D01*
X124535308Y-75631463D01*
X124601444Y-75653999D01*
X124640486Y-75699056D01*
X124644951Y-75707820D01*
X124769890Y-75879786D01*
X124920213Y-76030109D01*
X125092179Y-76155048D01*
X125092181Y-76155049D01*
X125092184Y-76155051D01*
X125281588Y-76251557D01*
X125483757Y-76317246D01*
X125693713Y-76350500D01*
X125693714Y-76350500D01*
X125906286Y-76350500D01*
X125906287Y-76350500D01*
X126116243Y-76317246D01*
X126318412Y-76251557D01*
X126507816Y-76155051D01*
X126552666Y-76122466D01*
X126679786Y-76030109D01*
X126679788Y-76030106D01*
X126679792Y-76030104D01*
X126830104Y-75879792D01*
X126830106Y-75879788D01*
X126830109Y-75879786D01*
X126955048Y-75707820D01*
X126955047Y-75707820D01*
X126955051Y-75707816D01*
X126959514Y-75699054D01*
X127007488Y-75648259D01*
X127075308Y-75631463D01*
X127141444Y-75653999D01*
X127180486Y-75699056D01*
X127184951Y-75707820D01*
X127309890Y-75879786D01*
X127460213Y-76030109D01*
X127632179Y-76155048D01*
X127632181Y-76155049D01*
X127632184Y-76155051D01*
X127821588Y-76251557D01*
X128023757Y-76317246D01*
X128233713Y-76350500D01*
X128233714Y-76350500D01*
X128446286Y-76350500D01*
X128446287Y-76350500D01*
X128656243Y-76317246D01*
X128858412Y-76251557D01*
X129047816Y-76155051D01*
X129092666Y-76122466D01*
X129219786Y-76030109D01*
X129219788Y-76030106D01*
X129219792Y-76030104D01*
X129370104Y-75879792D01*
X129370106Y-75879788D01*
X129370109Y-75879786D01*
X129495048Y-75707820D01*
X129495047Y-75707820D01*
X129495051Y-75707816D01*
X129499514Y-75699054D01*
X129547488Y-75648259D01*
X129615308Y-75631463D01*
X129681444Y-75653999D01*
X129720486Y-75699056D01*
X129724951Y-75707820D01*
X129849890Y-75879786D01*
X130000213Y-76030109D01*
X130172179Y-76155048D01*
X130172181Y-76155049D01*
X130172184Y-76155051D01*
X130361588Y-76251557D01*
X130563757Y-76317246D01*
X130773713Y-76350500D01*
X130773714Y-76350500D01*
X130986286Y-76350500D01*
X130986287Y-76350500D01*
X131196243Y-76317246D01*
X131398412Y-76251557D01*
X131587816Y-76155051D01*
X131632666Y-76122466D01*
X131759786Y-76030109D01*
X131759788Y-76030106D01*
X131759792Y-76030104D01*
X131910104Y-75879792D01*
X131910106Y-75879788D01*
X131910109Y-75879786D01*
X132035048Y-75707820D01*
X132035047Y-75707820D01*
X132035051Y-75707816D01*
X132039514Y-75699054D01*
X132087488Y-75648259D01*
X132155308Y-75631463D01*
X132221444Y-75653999D01*
X132260486Y-75699056D01*
X132264951Y-75707820D01*
X132389890Y-75879786D01*
X132540213Y-76030109D01*
X132712179Y-76155048D01*
X132712181Y-76155049D01*
X132712184Y-76155051D01*
X132901588Y-76251557D01*
X133103757Y-76317246D01*
X133313713Y-76350500D01*
X133313714Y-76350500D01*
X133526286Y-76350500D01*
X133526287Y-76350500D01*
X133736243Y-76317246D01*
X133938412Y-76251557D01*
X134127816Y-76155051D01*
X134172666Y-76122466D01*
X134299786Y-76030109D01*
X134299788Y-76030106D01*
X134299792Y-76030104D01*
X134450104Y-75879792D01*
X134450106Y-75879788D01*
X134450109Y-75879786D01*
X134575048Y-75707820D01*
X134575047Y-75707820D01*
X134575051Y-75707816D01*
X134579514Y-75699054D01*
X134627488Y-75648259D01*
X134695308Y-75631463D01*
X134761444Y-75653999D01*
X134800486Y-75699056D01*
X134804951Y-75707820D01*
X134929890Y-75879786D01*
X135080213Y-76030109D01*
X135252179Y-76155048D01*
X135252181Y-76155049D01*
X135252184Y-76155051D01*
X135441588Y-76251557D01*
X135643757Y-76317246D01*
X135853713Y-76350500D01*
X135853714Y-76350500D01*
X136066286Y-76350500D01*
X136066287Y-76350500D01*
X136276243Y-76317246D01*
X136478412Y-76251557D01*
X136667816Y-76155051D01*
X136839792Y-76030104D01*
X136953329Y-75916566D01*
X137014648Y-75883084D01*
X137084340Y-75888068D01*
X137140274Y-75929939D01*
X137157189Y-75960917D01*
X137206202Y-76092328D01*
X137206206Y-76092335D01*
X137292452Y-76207544D01*
X137292455Y-76207547D01*
X137407664Y-76293793D01*
X137407671Y-76293797D01*
X137542517Y-76344091D01*
X137542516Y-76344091D01*
X137549444Y-76344835D01*
X137602127Y-76350500D01*
X139397872Y-76350499D01*
X139457483Y-76344091D01*
X139592331Y-76293796D01*
X139707546Y-76207546D01*
X139793796Y-76092331D01*
X139844091Y-75957483D01*
X139850500Y-75897873D01*
X139850499Y-75000000D01*
X139850499Y-74102129D01*
X139850498Y-74102123D01*
X139844091Y-74042516D01*
X139793797Y-73907671D01*
X139793793Y-73907664D01*
X139707547Y-73792455D01*
X139707544Y-73792452D01*
X139592335Y-73706206D01*
X139592328Y-73706202D01*
X139457482Y-73655908D01*
X139457483Y-73655908D01*
X139397883Y-73649501D01*
X139397881Y-73649500D01*
X139397873Y-73649500D01*
X139397864Y-73649500D01*
X137602129Y-73649500D01*
X137602123Y-73649501D01*
X137542516Y-73655908D01*
X137407671Y-73706202D01*
X137407664Y-73706206D01*
X137292455Y-73792452D01*
X137292452Y-73792455D01*
X137206206Y-73907664D01*
X137206203Y-73907669D01*
X137157189Y-74039083D01*
X137115317Y-74095016D01*
X137049853Y-74119433D01*
X136981580Y-74104581D01*
X136953326Y-74083430D01*
X136839786Y-73969890D01*
X136667820Y-73844951D01*
X136478414Y-73748444D01*
X136478413Y-73748443D01*
X136478412Y-73748443D01*
X136276243Y-73682754D01*
X136276241Y-73682753D01*
X136276240Y-73682753D01*
X136114957Y-73657208D01*
X136066287Y-73649500D01*
X135853713Y-73649500D01*
X135805042Y-73657208D01*
X135643760Y-73682753D01*
X135441585Y-73748444D01*
X135252179Y-73844951D01*
X135080213Y-73969890D01*
X134929890Y-74120213D01*
X134804949Y-74292182D01*
X134800484Y-74300946D01*
X134752509Y-74351742D01*
X134684688Y-74368536D01*
X134618553Y-74345998D01*
X134579516Y-74300946D01*
X134575050Y-74292182D01*
X134450109Y-74120213D01*
X134299786Y-73969890D01*
X134127820Y-73844951D01*
X133938414Y-73748444D01*
X133938413Y-73748443D01*
X133938412Y-73748443D01*
X133736243Y-73682754D01*
X133736241Y-73682753D01*
X133736240Y-73682753D01*
X133574957Y-73657208D01*
X133526287Y-73649500D01*
X133313713Y-73649500D01*
X133265042Y-73657208D01*
X133103760Y-73682753D01*
X132901585Y-73748444D01*
X132712179Y-73844951D01*
X132540213Y-73969890D01*
X132389890Y-74120213D01*
X132264949Y-74292182D01*
X132260484Y-74300946D01*
X132212509Y-74351742D01*
X132144688Y-74368536D01*
X132078553Y-74345998D01*
X132039516Y-74300946D01*
X132035050Y-74292182D01*
X131910109Y-74120213D01*
X131759786Y-73969890D01*
X131587820Y-73844951D01*
X131398414Y-73748444D01*
X131398413Y-73748443D01*
X131398412Y-73748443D01*
X131196243Y-73682754D01*
X131196241Y-73682753D01*
X131196240Y-73682753D01*
X131034957Y-73657208D01*
X130986287Y-73649500D01*
X130773713Y-73649500D01*
X130725042Y-73657208D01*
X130563760Y-73682753D01*
X130361585Y-73748444D01*
X130172179Y-73844951D01*
X130000213Y-73969890D01*
X129849890Y-74120213D01*
X129724949Y-74292182D01*
X129720484Y-74300946D01*
X129672509Y-74351742D01*
X129604688Y-74368536D01*
X129538553Y-74345998D01*
X129499516Y-74300946D01*
X129495050Y-74292182D01*
X129370109Y-74120213D01*
X129219786Y-73969890D01*
X129047820Y-73844951D01*
X128858414Y-73748444D01*
X128858413Y-73748443D01*
X128858412Y-73748443D01*
X128656243Y-73682754D01*
X128656241Y-73682753D01*
X128656240Y-73682753D01*
X128494957Y-73657208D01*
X128446287Y-73649500D01*
X128233713Y-73649500D01*
X128185042Y-73657208D01*
X128023760Y-73682753D01*
X127821585Y-73748444D01*
X127632179Y-73844951D01*
X127460213Y-73969890D01*
X127309890Y-74120213D01*
X127184949Y-74292182D01*
X127180484Y-74300946D01*
X127132509Y-74351742D01*
X127064688Y-74368536D01*
X126998553Y-74345998D01*
X126959516Y-74300946D01*
X126955050Y-74292182D01*
X126830109Y-74120213D01*
X126679786Y-73969890D01*
X126507820Y-73844951D01*
X126318414Y-73748444D01*
X126318413Y-73748443D01*
X126318412Y-73748443D01*
X126116243Y-73682754D01*
X126116241Y-73682753D01*
X126116240Y-73682753D01*
X125954957Y-73657208D01*
X125906287Y-73649500D01*
X125693713Y-73649500D01*
X125645042Y-73657208D01*
X125483760Y-73682753D01*
X125281585Y-73748444D01*
X125092179Y-73844951D01*
X124920213Y-73969890D01*
X124769890Y-74120213D01*
X124644949Y-74292182D01*
X124640484Y-74300946D01*
X124592509Y-74351742D01*
X124524688Y-74368536D01*
X124458553Y-74345998D01*
X124419516Y-74300946D01*
X124415050Y-74292182D01*
X124290109Y-74120213D01*
X124139786Y-73969890D01*
X123967820Y-73844951D01*
X123778414Y-73748444D01*
X123778413Y-73748443D01*
X123778412Y-73748443D01*
X123576243Y-73682754D01*
X123576241Y-73682753D01*
X123576240Y-73682753D01*
X123414957Y-73657208D01*
X123366287Y-73649500D01*
X123153713Y-73649500D01*
X123105042Y-73657208D01*
X122943760Y-73682753D01*
X122741585Y-73748444D01*
X122552179Y-73844951D01*
X122380213Y-73969890D01*
X122229890Y-74120213D01*
X122104949Y-74292182D01*
X122100484Y-74300946D01*
X122052509Y-74351742D01*
X121984688Y-74368536D01*
X121918553Y-74345998D01*
X121879516Y-74300946D01*
X121875050Y-74292182D01*
X121750109Y-74120213D01*
X121599786Y-73969890D01*
X121427820Y-73844951D01*
X121238414Y-73748444D01*
X121238413Y-73748443D01*
X121238412Y-73748443D01*
X121036243Y-73682754D01*
X121036241Y-73682753D01*
X121036240Y-73682753D01*
X120874957Y-73657208D01*
X120826287Y-73649500D01*
X120613713Y-73649500D01*
X120565042Y-73657208D01*
X120403760Y-73682753D01*
X120201585Y-73748444D01*
X120012179Y-73844951D01*
X119840213Y-73969890D01*
X119689890Y-74120213D01*
X119564949Y-74292182D01*
X119560484Y-74300946D01*
X119512509Y-74351742D01*
X119444688Y-74368536D01*
X119378553Y-74345998D01*
X119339516Y-74300946D01*
X119335050Y-74292182D01*
X119210109Y-74120213D01*
X119059786Y-73969890D01*
X118887820Y-73844951D01*
X118698414Y-73748444D01*
X118698413Y-73748443D01*
X118698412Y-73748443D01*
X118496243Y-73682754D01*
X118496241Y-73682753D01*
X118496240Y-73682753D01*
X118334957Y-73657208D01*
X118286287Y-73649500D01*
X118073713Y-73649500D01*
X118025042Y-73657208D01*
X117863760Y-73682753D01*
X117661585Y-73748444D01*
X117472179Y-73844951D01*
X117300213Y-73969890D01*
X117149890Y-74120213D01*
X117024949Y-74292182D01*
X117020484Y-74300946D01*
X116972509Y-74351742D01*
X116904688Y-74368536D01*
X116838553Y-74345998D01*
X116799516Y-74300946D01*
X116795050Y-74292182D01*
X116670109Y-74120213D01*
X116519786Y-73969890D01*
X116347820Y-73844951D01*
X116158414Y-73748444D01*
X116158413Y-73748443D01*
X116158412Y-73748443D01*
X115956243Y-73682754D01*
X115956241Y-73682753D01*
X115956240Y-73682753D01*
X115794957Y-73657208D01*
X115746287Y-73649500D01*
X115533713Y-73649500D01*
X115485042Y-73657208D01*
X115323760Y-73682753D01*
X115121585Y-73748444D01*
X114932179Y-73844951D01*
X114760213Y-73969890D01*
X114609890Y-74120213D01*
X114484949Y-74292182D01*
X114480484Y-74300946D01*
X114432509Y-74351742D01*
X114364688Y-74368536D01*
X114298553Y-74345998D01*
X114259516Y-74300946D01*
X114255050Y-74292182D01*
X114130109Y-74120213D01*
X113979786Y-73969890D01*
X113807820Y-73844951D01*
X113618414Y-73748444D01*
X113618413Y-73748443D01*
X113618412Y-73748443D01*
X113416243Y-73682754D01*
X113416241Y-73682753D01*
X113416240Y-73682753D01*
X113254957Y-73657208D01*
X113206287Y-73649500D01*
X112993713Y-73649500D01*
X112945042Y-73657208D01*
X112783760Y-73682753D01*
X112581585Y-73748444D01*
X112392179Y-73844951D01*
X112220213Y-73969890D01*
X112069890Y-74120213D01*
X111944949Y-74292182D01*
X111940484Y-74300946D01*
X111892509Y-74351742D01*
X111824688Y-74368536D01*
X111758553Y-74345998D01*
X111719516Y-74300946D01*
X111715050Y-74292182D01*
X111590109Y-74120213D01*
X111439786Y-73969890D01*
X111267820Y-73844951D01*
X111078414Y-73748444D01*
X111078413Y-73748443D01*
X111078412Y-73748443D01*
X110876243Y-73682754D01*
X110876241Y-73682753D01*
X110876240Y-73682753D01*
X110714957Y-73657208D01*
X110666287Y-73649500D01*
X110453713Y-73649500D01*
X110405042Y-73657208D01*
X110243760Y-73682753D01*
X110041585Y-73748444D01*
X109852179Y-73844951D01*
X109680213Y-73969890D01*
X109529890Y-74120213D01*
X109404949Y-74292182D01*
X109400484Y-74300946D01*
X109352509Y-74351742D01*
X109284688Y-74368536D01*
X109218553Y-74345998D01*
X109179516Y-74300946D01*
X109175050Y-74292182D01*
X109050109Y-74120213D01*
X108899786Y-73969890D01*
X108727820Y-73844951D01*
X108538414Y-73748444D01*
X108538413Y-73748443D01*
X108538412Y-73748443D01*
X108336243Y-73682754D01*
X108336241Y-73682753D01*
X108336240Y-73682753D01*
X108174957Y-73657208D01*
X108126287Y-73649500D01*
X107913713Y-73649500D01*
X107865042Y-73657208D01*
X107703760Y-73682753D01*
X107501585Y-73748444D01*
X107312179Y-73844951D01*
X107140213Y-73969890D01*
X106989890Y-74120213D01*
X106864949Y-74292182D01*
X106860484Y-74300946D01*
X106812509Y-74351742D01*
X106744688Y-74368536D01*
X106678553Y-74345998D01*
X106639516Y-74300946D01*
X106635050Y-74292182D01*
X106510109Y-74120213D01*
X106359786Y-73969890D01*
X106187820Y-73844951D01*
X105998414Y-73748444D01*
X105998413Y-73748443D01*
X105998412Y-73748443D01*
X105796243Y-73682754D01*
X105796241Y-73682753D01*
X105796240Y-73682753D01*
X105634957Y-73657208D01*
X105586287Y-73649500D01*
X105373713Y-73649500D01*
X105325042Y-73657208D01*
X105163760Y-73682753D01*
X104961585Y-73748444D01*
X104772179Y-73844951D01*
X104600213Y-73969890D01*
X104449890Y-74120213D01*
X104324949Y-74292182D01*
X104320484Y-74300946D01*
X104272509Y-74351742D01*
X104204688Y-74368536D01*
X104138553Y-74345998D01*
X104099516Y-74300946D01*
X104095050Y-74292182D01*
X103970109Y-74120213D01*
X103819786Y-73969890D01*
X103647820Y-73844951D01*
X103458414Y-73748444D01*
X103458413Y-73748443D01*
X103458412Y-73748443D01*
X103256243Y-73682754D01*
X103256241Y-73682753D01*
X103256240Y-73682753D01*
X103094957Y-73657208D01*
X103046287Y-73649500D01*
X102833713Y-73649500D01*
X102785042Y-73657208D01*
X102623760Y-73682753D01*
X102421585Y-73748444D01*
X102232179Y-73844951D01*
X102060213Y-73969890D01*
X101909890Y-74120213D01*
X101784949Y-74292182D01*
X101780484Y-74300946D01*
X101732509Y-74351742D01*
X101664688Y-74368536D01*
X101598553Y-74345998D01*
X101559516Y-74300946D01*
X101555050Y-74292182D01*
X101430109Y-74120213D01*
X101279786Y-73969890D01*
X101107820Y-73844951D01*
X100918414Y-73748444D01*
X100918413Y-73748443D01*
X100918412Y-73748443D01*
X100716243Y-73682754D01*
X100716241Y-73682753D01*
X100716240Y-73682753D01*
X100554957Y-73657208D01*
X100506287Y-73649500D01*
X100293713Y-73649500D01*
X100245042Y-73657208D01*
X100083760Y-73682753D01*
X99881585Y-73748444D01*
X99692179Y-73844951D01*
X99520213Y-73969890D01*
X99369890Y-74120213D01*
X99244949Y-74292182D01*
X99240484Y-74300946D01*
X99192509Y-74351742D01*
X99124688Y-74368536D01*
X99058553Y-74345998D01*
X99019516Y-74300946D01*
X99015050Y-74292182D01*
X98890109Y-74120213D01*
X98739786Y-73969890D01*
X98567820Y-73844951D01*
X98378414Y-73748444D01*
X98378413Y-73748443D01*
X98378412Y-73748443D01*
X98176243Y-73682754D01*
X98176241Y-73682753D01*
X98176240Y-73682753D01*
X98014957Y-73657208D01*
X97966287Y-73649500D01*
X97753713Y-73649500D01*
X97705042Y-73657208D01*
X97543760Y-73682753D01*
X97341585Y-73748444D01*
X97152179Y-73844951D01*
X96980213Y-73969890D01*
X96829890Y-74120213D01*
X96704949Y-74292182D01*
X96700484Y-74300946D01*
X96652509Y-74351742D01*
X96584688Y-74368536D01*
X96518553Y-74345998D01*
X96479516Y-74300946D01*
X96475050Y-74292182D01*
X96350109Y-74120213D01*
X96199786Y-73969890D01*
X96027820Y-73844951D01*
X95838416Y-73748444D01*
X95784291Y-73730858D01*
X95726616Y-73691420D01*
X95699418Y-73627061D01*
X95711333Y-73558214D01*
X95719509Y-73544035D01*
X95798008Y-73426555D01*
X95798009Y-73426552D01*
X95798013Y-73426547D01*
X95865894Y-73262666D01*
X95875240Y-73215678D01*
X95907624Y-73153770D01*
X95909120Y-73152246D01*
X96774548Y-72286819D01*
X96835871Y-72253334D01*
X96862229Y-72250500D01*
X100964730Y-72250500D01*
X101031769Y-72270185D01*
X101033622Y-72271399D01*
X101073447Y-72298010D01*
X101073450Y-72298011D01*
X101073453Y-72298013D01*
X101237334Y-72365894D01*
X101237336Y-72365894D01*
X101237341Y-72365896D01*
X101411304Y-72400499D01*
X101411307Y-72400500D01*
X101411309Y-72400500D01*
X101588693Y-72400500D01*
X101588694Y-72400499D01*
X101646682Y-72388964D01*
X101762658Y-72365896D01*
X101762661Y-72365894D01*
X101762666Y-72365894D01*
X101926547Y-72298013D01*
X102074035Y-72199464D01*
X102199464Y-72074035D01*
X102298013Y-71926547D01*
X102365894Y-71762666D01*
X102376822Y-71707731D01*
X102398098Y-71600765D01*
X102400500Y-71588691D01*
X102400500Y-71411309D01*
X102400500Y-71411306D01*
X102400499Y-71411304D01*
X102365896Y-71237341D01*
X102365893Y-71237332D01*
X102298016Y-71073459D01*
X102298009Y-71073446D01*
X102199464Y-70925965D01*
X102199461Y-70925961D01*
X102074038Y-70800538D01*
X102074034Y-70800535D01*
X101926553Y-70701990D01*
X101926540Y-70701983D01*
X101762667Y-70634106D01*
X101762658Y-70634103D01*
X101588694Y-70599500D01*
X101588691Y-70599500D01*
X101411309Y-70599500D01*
X101411306Y-70599500D01*
X101237341Y-70634103D01*
X101237332Y-70634106D01*
X101073452Y-70701987D01*
X101073447Y-70701989D01*
X101033622Y-70728601D01*
X100966945Y-70749480D01*
X100964730Y-70749500D01*
X96426080Y-70749500D01*
X96281092Y-70778340D01*
X96281082Y-70778343D01*
X96144511Y-70834912D01*
X96144498Y-70834919D01*
X96021584Y-70917048D01*
X96021580Y-70917051D01*
X94847807Y-72090823D01*
X94786484Y-72124308D01*
X94784319Y-72124759D01*
X94737337Y-72134104D01*
X94737331Y-72134106D01*
X94573459Y-72201983D01*
X94573446Y-72201990D01*
X94425965Y-72300535D01*
X94425961Y-72300538D01*
X94300538Y-72425961D01*
X94300535Y-72425965D01*
X94201990Y-72573446D01*
X94201983Y-72573459D01*
X94134106Y-72737332D01*
X94134103Y-72737341D01*
X94099500Y-72911304D01*
X94099500Y-73088695D01*
X94134103Y-73262658D01*
X94134106Y-73262667D01*
X94201983Y-73426540D01*
X94201990Y-73426553D01*
X94300535Y-73574034D01*
X94300538Y-73574038D01*
X94425961Y-73699461D01*
X94425965Y-73699464D01*
X94479349Y-73735135D01*
X94524154Y-73788748D01*
X94532861Y-73858073D01*
X94502706Y-73921100D01*
X94483344Y-73938555D01*
X94440209Y-73969894D01*
X94289890Y-74120213D01*
X94164949Y-74292182D01*
X94160202Y-74301499D01*
X94112227Y-74352293D01*
X94044405Y-74369087D01*
X93978271Y-74346548D01*
X93939234Y-74301495D01*
X93934626Y-74292452D01*
X93895270Y-74238282D01*
X93895269Y-74238282D01*
X93262962Y-74870590D01*
X93245925Y-74807007D01*
X93180099Y-74692993D01*
X93087007Y-74599901D01*
X92972993Y-74534075D01*
X92909409Y-74517037D01*
X93541716Y-73884728D01*
X93487550Y-73845375D01*
X93298217Y-73748904D01*
X93096129Y-73683242D01*
X92886246Y-73650000D01*
X92673754Y-73650000D01*
X92463872Y-73683242D01*
X92463869Y-73683242D01*
X92261782Y-73748904D01*
X92072439Y-73845380D01*
X92018282Y-73884727D01*
X92018282Y-73884728D01*
X92650591Y-74517037D01*
X92587007Y-74534075D01*
X92472993Y-74599901D01*
X92379901Y-74692993D01*
X92314075Y-74807007D01*
X92297037Y-74870591D01*
X91664728Y-74238282D01*
X91664727Y-74238282D01*
X91625380Y-74292440D01*
X91625376Y-74292446D01*
X91620760Y-74301505D01*
X91572781Y-74352297D01*
X91504959Y-74369087D01*
X91438826Y-74346543D01*
X91399794Y-74301493D01*
X91395051Y-74292184D01*
X91395049Y-74292181D01*
X91395048Y-74292179D01*
X91270109Y-74120213D01*
X91119786Y-73969890D01*
X90947820Y-73844951D01*
X90758414Y-73748444D01*
X90758413Y-73748443D01*
X90758412Y-73748443D01*
X90556243Y-73682754D01*
X90556241Y-73682753D01*
X90556240Y-73682753D01*
X90394957Y-73657208D01*
X90346287Y-73649500D01*
X90133713Y-73649500D01*
X90085042Y-73657208D01*
X89923760Y-73682753D01*
X89721585Y-73748444D01*
X89532179Y-73844951D01*
X89360213Y-73969890D01*
X89209890Y-74120213D01*
X89084951Y-74292179D01*
X88988444Y-74481585D01*
X88922753Y-74683760D01*
X88921291Y-74692993D01*
X88889500Y-74893713D01*
X87500500Y-74893713D01*
X87500500Y-70120639D01*
X148237500Y-70120639D01*
X148237500Y-70319360D01*
X148268587Y-70515637D01*
X148329993Y-70704629D01*
X148329994Y-70704632D01*
X148396376Y-70834912D01*
X148420213Y-70881694D01*
X148537019Y-71042464D01*
X148677536Y-71182981D01*
X148838306Y-71299787D01*
X148995332Y-71379796D01*
X149046127Y-71427769D01*
X149062922Y-71495590D01*
X149040385Y-71561725D01*
X148995332Y-71600764D01*
X148838566Y-71680641D01*
X148801283Y-71707729D01*
X148801282Y-71707730D01*
X149472554Y-72379000D01*
X149449840Y-72379000D01*
X149352939Y-72404964D01*
X149266060Y-72455124D01*
X149195124Y-72526060D01*
X149144964Y-72612939D01*
X149119000Y-72709840D01*
X149119000Y-72732552D01*
X148447730Y-72061282D01*
X148447729Y-72061283D01*
X148420643Y-72098564D01*
X148330457Y-72275562D01*
X148269075Y-72464476D01*
X148269075Y-72464479D01*
X148238000Y-72660678D01*
X148238000Y-72859321D01*
X148269075Y-73055520D01*
X148269075Y-73055523D01*
X148330457Y-73244437D01*
X148420641Y-73421432D01*
X148447730Y-73458715D01*
X148447731Y-73458716D01*
X149119000Y-72787447D01*
X149119000Y-72810160D01*
X149144964Y-72907061D01*
X149195124Y-72993940D01*
X149266060Y-73064876D01*
X149352939Y-73115036D01*
X149449840Y-73141000D01*
X149472553Y-73141000D01*
X148801283Y-73812268D01*
X148801283Y-73812269D01*
X148838567Y-73839358D01*
X148995331Y-73919234D01*
X149046127Y-73967209D01*
X149062922Y-74035030D01*
X149040384Y-74101165D01*
X148995331Y-74140204D01*
X148838305Y-74220213D01*
X148677533Y-74337021D01*
X148537021Y-74477533D01*
X148420213Y-74638305D01*
X148329994Y-74815367D01*
X148329993Y-74815370D01*
X148268587Y-75004362D01*
X148237500Y-75200639D01*
X148237500Y-75399360D01*
X148268587Y-75595637D01*
X148329993Y-75784629D01*
X148329994Y-75784632D01*
X148404033Y-75929939D01*
X148420213Y-75961694D01*
X148537019Y-76122464D01*
X148677536Y-76262981D01*
X148838306Y-76379787D01*
X148928927Y-76425961D01*
X148994780Y-76459515D01*
X149045576Y-76507490D01*
X149062371Y-76575311D01*
X149039833Y-76641446D01*
X148994780Y-76680485D01*
X148838305Y-76760213D01*
X148677533Y-76877021D01*
X148537021Y-77017533D01*
X148420213Y-77178305D01*
X148329994Y-77355367D01*
X148329993Y-77355370D01*
X148268587Y-77544362D01*
X148237500Y-77740639D01*
X148237500Y-77939360D01*
X148268587Y-78135637D01*
X148329993Y-78324629D01*
X148329994Y-78324632D01*
X148397158Y-78456446D01*
X148420213Y-78501694D01*
X148537019Y-78662464D01*
X148677536Y-78802981D01*
X148838306Y-78919787D01*
X148956832Y-78980179D01*
X148994780Y-78999515D01*
X149045576Y-79047490D01*
X149062371Y-79115311D01*
X149039833Y-79181446D01*
X148994780Y-79220485D01*
X148838305Y-79300213D01*
X148677533Y-79417021D01*
X148537021Y-79557533D01*
X148420213Y-79718305D01*
X148329994Y-79895367D01*
X148329993Y-79895370D01*
X148268587Y-80084362D01*
X148251072Y-80194949D01*
X148237500Y-80280639D01*
X148237500Y-80479361D01*
X148246094Y-80533620D01*
X148268587Y-80675637D01*
X148329993Y-80864629D01*
X148329994Y-80864632D01*
X148416169Y-81033757D01*
X148420213Y-81041694D01*
X148537019Y-81202464D01*
X148677536Y-81342981D01*
X148838306Y-81459787D01*
X148956832Y-81520179D01*
X148994780Y-81539515D01*
X149045576Y-81587490D01*
X149062371Y-81655311D01*
X149039833Y-81721446D01*
X148994780Y-81760485D01*
X148838305Y-81840213D01*
X148677533Y-81957021D01*
X148537021Y-82097533D01*
X148420213Y-82258305D01*
X148329994Y-82435367D01*
X148329993Y-82435370D01*
X148268587Y-82624362D01*
X148237500Y-82820639D01*
X148237500Y-83019360D01*
X148268587Y-83215637D01*
X148329993Y-83404629D01*
X148329994Y-83404632D01*
X148416169Y-83573757D01*
X148420213Y-83581694D01*
X148537019Y-83742464D01*
X148677536Y-83882981D01*
X148838306Y-83999787D01*
X148995332Y-84079796D01*
X149046127Y-84127769D01*
X149062922Y-84195590D01*
X149040385Y-84261725D01*
X148995332Y-84300764D01*
X148838566Y-84380641D01*
X148801283Y-84407729D01*
X148801282Y-84407730D01*
X149472554Y-85079000D01*
X149449840Y-85079000D01*
X149352939Y-85104964D01*
X149266060Y-85155124D01*
X149195124Y-85226060D01*
X149144964Y-85312939D01*
X149119000Y-85409840D01*
X149119000Y-85432552D01*
X148447730Y-84761282D01*
X148447729Y-84761283D01*
X148420643Y-84798564D01*
X148330457Y-84975562D01*
X148269075Y-85164476D01*
X148269075Y-85164479D01*
X148238000Y-85360678D01*
X148238000Y-85559321D01*
X148269075Y-85755520D01*
X148269075Y-85755523D01*
X148330457Y-85944437D01*
X148420641Y-86121432D01*
X148447730Y-86158715D01*
X148447731Y-86158716D01*
X149119000Y-85487447D01*
X149119000Y-85510160D01*
X149144964Y-85607061D01*
X149195124Y-85693940D01*
X149266060Y-85764876D01*
X149352939Y-85815036D01*
X149449840Y-85841000D01*
X149472553Y-85841000D01*
X148801283Y-86512268D01*
X148801283Y-86512269D01*
X148838567Y-86539358D01*
X148995331Y-86619234D01*
X149046127Y-86667209D01*
X149062922Y-86735030D01*
X149040384Y-86801165D01*
X148995331Y-86840204D01*
X148838305Y-86920213D01*
X148677533Y-87037021D01*
X148537021Y-87177533D01*
X148420213Y-87338305D01*
X148329994Y-87515367D01*
X148329993Y-87515370D01*
X148268587Y-87704362D01*
X148237500Y-87900639D01*
X148237500Y-88099360D01*
X148268587Y-88295637D01*
X148329993Y-88484629D01*
X148329994Y-88484632D01*
X148420213Y-88661694D01*
X148537019Y-88822464D01*
X148677536Y-88962981D01*
X148838306Y-89079787D01*
X148925149Y-89124035D01*
X149015367Y-89170005D01*
X149015370Y-89170006D01*
X149109866Y-89200709D01*
X149204364Y-89231413D01*
X149400639Y-89262500D01*
X149400640Y-89262500D01*
X149599360Y-89262500D01*
X149599361Y-89262500D01*
X149795636Y-89231413D01*
X149984632Y-89170005D01*
X150161694Y-89079787D01*
X150322464Y-88962981D01*
X150462981Y-88822464D01*
X150579787Y-88661694D01*
X150670005Y-88484632D01*
X150731413Y-88295636D01*
X150762500Y-88099361D01*
X150762500Y-87900639D01*
X150731413Y-87704364D01*
X150670005Y-87515368D01*
X150670005Y-87515367D01*
X150595360Y-87368870D01*
X150579787Y-87338306D01*
X150462981Y-87177536D01*
X150322464Y-87037019D01*
X150161694Y-86920213D01*
X150004667Y-86840203D01*
X149953872Y-86792229D01*
X149937077Y-86724408D01*
X149959614Y-86658273D01*
X150004669Y-86619234D01*
X150161422Y-86539364D01*
X150198716Y-86512268D01*
X149527448Y-85841000D01*
X149550160Y-85841000D01*
X149647061Y-85815036D01*
X149733940Y-85764876D01*
X149804876Y-85693940D01*
X149855036Y-85607061D01*
X149881000Y-85510160D01*
X149881000Y-85487447D01*
X150552268Y-86158715D01*
X150579362Y-86121425D01*
X150669542Y-85944437D01*
X150730924Y-85755523D01*
X150730924Y-85755520D01*
X150762000Y-85559321D01*
X150762000Y-85360678D01*
X150730924Y-85164479D01*
X150730924Y-85164476D01*
X150669542Y-84975562D01*
X150579358Y-84798567D01*
X150552268Y-84761283D01*
X149881000Y-85432551D01*
X149881000Y-85409840D01*
X149855036Y-85312939D01*
X149804876Y-85226060D01*
X149733940Y-85155124D01*
X149647061Y-85104964D01*
X149550160Y-85079000D01*
X149527447Y-85079000D01*
X150198716Y-84407731D01*
X150198715Y-84407730D01*
X150161432Y-84380641D01*
X150004668Y-84300765D01*
X149953872Y-84252790D01*
X149937077Y-84184969D01*
X149959615Y-84118834D01*
X150004667Y-84079796D01*
X150161694Y-83999787D01*
X150322464Y-83882981D01*
X150462981Y-83742464D01*
X150579787Y-83581694D01*
X150670005Y-83404632D01*
X150731413Y-83215636D01*
X150762500Y-83019361D01*
X150762500Y-82820639D01*
X150731413Y-82624364D01*
X150670005Y-82435368D01*
X150670005Y-82435367D01*
X150579786Y-82258305D01*
X150559066Y-82229786D01*
X150462981Y-82097536D01*
X150322464Y-81957019D01*
X150161694Y-81840213D01*
X150005218Y-81760484D01*
X149954423Y-81712510D01*
X149937628Y-81644689D01*
X149960165Y-81578554D01*
X150005218Y-81539515D01*
X150161694Y-81459787D01*
X150322464Y-81342981D01*
X150462981Y-81202464D01*
X150579787Y-81041694D01*
X150670005Y-80864632D01*
X150731413Y-80675636D01*
X150762500Y-80479361D01*
X150762500Y-80280639D01*
X150731413Y-80084364D01*
X150679721Y-79925270D01*
X150670006Y-79895370D01*
X150670005Y-79895367D01*
X150579786Y-79718305D01*
X150462981Y-79557536D01*
X150322464Y-79417019D01*
X150161694Y-79300213D01*
X150005218Y-79220484D01*
X149954423Y-79172510D01*
X149937628Y-79104689D01*
X149960165Y-79038554D01*
X150005218Y-78999515D01*
X150161694Y-78919787D01*
X150322464Y-78802981D01*
X150462981Y-78662464D01*
X150579787Y-78501694D01*
X150670005Y-78324632D01*
X150731413Y-78135636D01*
X150762500Y-77939361D01*
X150762500Y-77740639D01*
X150731413Y-77544364D01*
X150670005Y-77355368D01*
X150670005Y-77355367D01*
X150579786Y-77178305D01*
X150462981Y-77017536D01*
X150322464Y-76877019D01*
X150161694Y-76760213D01*
X150005218Y-76680484D01*
X149954423Y-76632510D01*
X149937628Y-76564689D01*
X149960165Y-76498554D01*
X150005218Y-76459515D01*
X150161694Y-76379787D01*
X150322464Y-76262981D01*
X150462981Y-76122464D01*
X150579787Y-75961694D01*
X150670005Y-75784632D01*
X150731413Y-75595636D01*
X150762500Y-75399361D01*
X150762500Y-75200639D01*
X150731413Y-75004364D01*
X150670005Y-74815368D01*
X150670005Y-74815367D01*
X150624035Y-74725149D01*
X150579787Y-74638306D01*
X150462981Y-74477536D01*
X150322464Y-74337019D01*
X150161694Y-74220213D01*
X150004667Y-74140203D01*
X149953872Y-74092229D01*
X149937077Y-74024408D01*
X149959614Y-73958273D01*
X150004669Y-73919234D01*
X150161422Y-73839364D01*
X150198716Y-73812268D01*
X149527448Y-73141000D01*
X149550160Y-73141000D01*
X149647061Y-73115036D01*
X149733940Y-73064876D01*
X149804876Y-72993940D01*
X149855036Y-72907061D01*
X149881000Y-72810160D01*
X149881000Y-72787447D01*
X150552268Y-73458715D01*
X150579362Y-73421425D01*
X150669542Y-73244437D01*
X150730924Y-73055523D01*
X150730924Y-73055520D01*
X150762000Y-72859321D01*
X150762000Y-72660678D01*
X150730924Y-72464479D01*
X150730924Y-72464476D01*
X150669542Y-72275562D01*
X150579358Y-72098567D01*
X150552268Y-72061283D01*
X149881000Y-72732551D01*
X149881000Y-72709840D01*
X149855036Y-72612939D01*
X149804876Y-72526060D01*
X149733940Y-72455124D01*
X149647061Y-72404964D01*
X149550160Y-72379000D01*
X149527447Y-72379000D01*
X150198716Y-71707731D01*
X150198715Y-71707730D01*
X150161432Y-71680641D01*
X150004668Y-71600765D01*
X149953872Y-71552790D01*
X149937077Y-71484969D01*
X149959615Y-71418834D01*
X150004667Y-71379796D01*
X150161694Y-71299787D01*
X150322464Y-71182981D01*
X150462981Y-71042464D01*
X150579787Y-70881694D01*
X150670005Y-70704632D01*
X150731413Y-70515636D01*
X150762500Y-70319361D01*
X150762500Y-70120639D01*
X150731413Y-69924364D01*
X150670005Y-69735368D01*
X150670005Y-69735367D01*
X150579786Y-69558305D01*
X150462981Y-69397536D01*
X150322464Y-69257019D01*
X150161694Y-69140213D01*
X149984632Y-69049994D01*
X149984629Y-69049993D01*
X149795637Y-68988587D01*
X149697498Y-68973043D01*
X149599361Y-68957500D01*
X149400639Y-68957500D01*
X149335214Y-68967862D01*
X149204362Y-68988587D01*
X149015370Y-69049993D01*
X149015367Y-69049994D01*
X148838305Y-69140213D01*
X148677533Y-69257021D01*
X148537021Y-69397533D01*
X148420213Y-69558305D01*
X148329994Y-69735367D01*
X148329993Y-69735370D01*
X148268587Y-69924362D01*
X148237500Y-70120639D01*
X87500500Y-70120639D01*
X87500500Y-61353713D01*
X88649500Y-61353713D01*
X88649500Y-61566287D01*
X88682754Y-61776243D01*
X88740535Y-61954075D01*
X88748444Y-61978414D01*
X88844951Y-62167820D01*
X88969890Y-62339786D01*
X89083430Y-62453326D01*
X89116915Y-62514649D01*
X89111931Y-62584341D01*
X89070059Y-62640274D01*
X89039083Y-62657189D01*
X88907669Y-62706203D01*
X88907664Y-62706206D01*
X88792455Y-62792452D01*
X88792452Y-62792455D01*
X88706206Y-62907664D01*
X88706202Y-62907671D01*
X88655908Y-63042517D01*
X88649675Y-63100500D01*
X88649501Y-63102123D01*
X88649500Y-63102135D01*
X88649500Y-64897870D01*
X88649501Y-64897876D01*
X88655908Y-64957483D01*
X88706202Y-65092328D01*
X88706206Y-65092335D01*
X88792452Y-65207544D01*
X88792455Y-65207547D01*
X88907664Y-65293793D01*
X88907671Y-65293797D01*
X89042517Y-65344091D01*
X89042516Y-65344091D01*
X89049444Y-65344835D01*
X89102127Y-65350500D01*
X90897872Y-65350499D01*
X90957483Y-65344091D01*
X91092331Y-65293796D01*
X91207546Y-65207546D01*
X91293796Y-65092331D01*
X91344091Y-64957483D01*
X91350500Y-64897873D01*
X91350500Y-64853713D01*
X93649500Y-64853713D01*
X93649500Y-65066286D01*
X93671873Y-65207547D01*
X93682754Y-65276243D01*
X93706881Y-65350499D01*
X93748444Y-65478414D01*
X93844951Y-65667820D01*
X93969890Y-65839786D01*
X94083430Y-65953326D01*
X94116915Y-66014649D01*
X94111931Y-66084341D01*
X94070059Y-66140274D01*
X94039083Y-66157189D01*
X93907669Y-66206203D01*
X93907664Y-66206206D01*
X93792455Y-66292452D01*
X93792452Y-66292455D01*
X93706206Y-66407664D01*
X93706202Y-66407671D01*
X93655908Y-66542517D01*
X93651028Y-66587913D01*
X93649501Y-66602123D01*
X93649500Y-66602135D01*
X93649500Y-68397870D01*
X93649501Y-68397876D01*
X93655908Y-68457483D01*
X93706202Y-68592328D01*
X93706206Y-68592335D01*
X93792452Y-68707544D01*
X93792455Y-68707547D01*
X93907664Y-68793793D01*
X93907671Y-68793797D01*
X94042517Y-68844091D01*
X94042516Y-68844091D01*
X94049444Y-68844835D01*
X94102127Y-68850500D01*
X95897872Y-68850499D01*
X95957483Y-68844091D01*
X96092331Y-68793796D01*
X96207546Y-68707546D01*
X96293796Y-68592331D01*
X96344091Y-68457483D01*
X96350500Y-68397873D01*
X96350499Y-66602128D01*
X96344091Y-66542517D01*
X96311670Y-66455593D01*
X96293797Y-66407671D01*
X96293793Y-66407664D01*
X96207547Y-66292455D01*
X96207544Y-66292452D01*
X96092335Y-66206206D01*
X96092328Y-66206202D01*
X95960917Y-66157189D01*
X95904983Y-66115318D01*
X95880566Y-66049853D01*
X95895418Y-65981580D01*
X95916563Y-65953332D01*
X96030104Y-65839792D01*
X96155051Y-65667816D01*
X96251557Y-65478412D01*
X96317246Y-65276243D01*
X96350500Y-65066287D01*
X96350500Y-65056428D01*
X111050000Y-65056428D01*
X111050000Y-65250000D01*
X111750000Y-65250000D01*
X111750000Y-65750000D01*
X111050000Y-65750000D01*
X111050000Y-65943571D01*
X111086506Y-66127097D01*
X111086508Y-66127105D01*
X111158119Y-66299991D01*
X111158124Y-66300000D01*
X111262086Y-66455589D01*
X111262089Y-66455593D01*
X111394406Y-66587910D01*
X111394410Y-66587913D01*
X111549999Y-66691875D01*
X111550012Y-66691882D01*
X111722889Y-66763489D01*
X111722896Y-66763491D01*
X111750000Y-66768882D01*
X111750000Y-65899728D01*
X111788060Y-65991614D01*
X111858386Y-66061940D01*
X111950272Y-66100000D01*
X112049728Y-66100000D01*
X112141614Y-66061940D01*
X112211940Y-65991614D01*
X112250000Y-65899728D01*
X112250000Y-66768881D01*
X112277103Y-66763491D01*
X112277110Y-66763489D01*
X112449987Y-66691882D01*
X112450000Y-66691875D01*
X112605589Y-66587913D01*
X112605593Y-66587910D01*
X112737910Y-66455593D01*
X112737913Y-66455589D01*
X112841875Y-66300000D01*
X112841880Y-66299991D01*
X112913491Y-66127105D01*
X112913493Y-66127097D01*
X112949999Y-65943571D01*
X112950000Y-65943569D01*
X112950000Y-65750000D01*
X112250000Y-65750000D01*
X112250000Y-65250000D01*
X112950000Y-65250000D01*
X112950000Y-65056430D01*
X112949999Y-65056428D01*
X117650000Y-65056428D01*
X117650000Y-65250000D01*
X118350000Y-65250000D01*
X118350000Y-65750000D01*
X117650000Y-65750000D01*
X117650000Y-65943571D01*
X117686506Y-66127097D01*
X117686508Y-66127105D01*
X117758119Y-66299991D01*
X117758124Y-66300000D01*
X117862086Y-66455589D01*
X117862089Y-66455593D01*
X117994406Y-66587910D01*
X117994410Y-66587913D01*
X118149999Y-66691875D01*
X118150012Y-66691882D01*
X118322889Y-66763489D01*
X118322896Y-66763491D01*
X118350000Y-66768882D01*
X118350000Y-65899728D01*
X118388060Y-65991614D01*
X118458386Y-66061940D01*
X118550272Y-66100000D01*
X118649728Y-66100000D01*
X118741614Y-66061940D01*
X118811940Y-65991614D01*
X118850000Y-65899728D01*
X118850000Y-66768881D01*
X118877103Y-66763491D01*
X118877110Y-66763489D01*
X119049987Y-66691882D01*
X119050000Y-66691875D01*
X119205589Y-66587913D01*
X119205593Y-66587910D01*
X119337910Y-66455593D01*
X119337913Y-66455589D01*
X119441875Y-66300000D01*
X119441880Y-66299991D01*
X119513491Y-66127105D01*
X119513493Y-66127097D01*
X119549999Y-65943571D01*
X119550000Y-65943569D01*
X119550000Y-65750000D01*
X118850000Y-65750000D01*
X118850000Y-65250000D01*
X119550000Y-65250000D01*
X119550000Y-65056430D01*
X119549999Y-65056428D01*
X119513493Y-64872902D01*
X119513491Y-64872894D01*
X119441880Y-64700008D01*
X119441875Y-64699999D01*
X119337913Y-64544410D01*
X119337910Y-64544406D01*
X119205593Y-64412089D01*
X119205589Y-64412086D01*
X119050000Y-64308124D01*
X119049991Y-64308119D01*
X118877103Y-64236507D01*
X118877100Y-64236506D01*
X118850000Y-64231115D01*
X118850000Y-65100272D01*
X118811940Y-65008386D01*
X118741614Y-64938060D01*
X118649728Y-64900000D01*
X118550272Y-64900000D01*
X118458386Y-64938060D01*
X118388060Y-65008386D01*
X118350000Y-65100272D01*
X118350000Y-64231116D01*
X118349999Y-64231115D01*
X118322899Y-64236506D01*
X118322896Y-64236507D01*
X118150008Y-64308119D01*
X118149999Y-64308124D01*
X117994410Y-64412086D01*
X117994406Y-64412089D01*
X117862089Y-64544406D01*
X117862086Y-64544410D01*
X117758124Y-64699999D01*
X117758119Y-64700008D01*
X117686508Y-64872894D01*
X117686506Y-64872902D01*
X117650000Y-65056428D01*
X112949999Y-65056428D01*
X112913493Y-64872902D01*
X112913491Y-64872894D01*
X112841880Y-64700008D01*
X112841875Y-64699999D01*
X112737913Y-64544410D01*
X112737910Y-64544406D01*
X112605593Y-64412089D01*
X112605589Y-64412086D01*
X112450000Y-64308124D01*
X112449991Y-64308119D01*
X112277103Y-64236507D01*
X112277100Y-64236506D01*
X112250000Y-64231115D01*
X112250000Y-65100272D01*
X112211940Y-65008386D01*
X112141614Y-64938060D01*
X112049728Y-64900000D01*
X111950272Y-64900000D01*
X111858386Y-64938060D01*
X111788060Y-65008386D01*
X111750000Y-65100272D01*
X111750000Y-64231116D01*
X111749999Y-64231115D01*
X111722899Y-64236506D01*
X111722896Y-64236507D01*
X111550008Y-64308119D01*
X111549999Y-64308124D01*
X111394410Y-64412086D01*
X111394406Y-64412089D01*
X111262089Y-64544406D01*
X111262086Y-64544410D01*
X111158124Y-64699999D01*
X111158119Y-64700008D01*
X111086508Y-64872894D01*
X111086506Y-64872902D01*
X111050000Y-65056428D01*
X96350500Y-65056428D01*
X96350500Y-64853713D01*
X96317246Y-64643757D01*
X96251557Y-64441588D01*
X96251555Y-64441585D01*
X96251555Y-64441583D01*
X96155048Y-64252179D01*
X96030109Y-64080213D01*
X95879786Y-63929890D01*
X95707817Y-63804949D01*
X95698504Y-63800204D01*
X95647707Y-63752230D01*
X95630912Y-63684409D01*
X95653449Y-63618274D01*
X95698507Y-63579232D01*
X95707558Y-63574620D01*
X95879459Y-63449727D01*
X95879464Y-63449723D01*
X95931505Y-63397682D01*
X103950000Y-63397682D01*
X103950000Y-63602317D01*
X103982009Y-63804417D01*
X104045244Y-63999031D01*
X104138141Y-64181350D01*
X104138147Y-64181359D01*
X104170523Y-64225921D01*
X104170524Y-64225922D01*
X104850000Y-63546446D01*
X104850000Y-63552661D01*
X104877259Y-63654394D01*
X104929920Y-63745606D01*
X105004394Y-63820080D01*
X105095606Y-63872741D01*
X105197339Y-63900000D01*
X105203553Y-63900000D01*
X104524076Y-64579474D01*
X104568650Y-64611859D01*
X104750968Y-64704755D01*
X104945582Y-64767990D01*
X105147683Y-64800000D01*
X105352317Y-64800000D01*
X105554417Y-64767990D01*
X105749031Y-64704755D01*
X105931349Y-64611859D01*
X105975921Y-64579474D01*
X105296447Y-63900000D01*
X105302661Y-63900000D01*
X105404394Y-63872741D01*
X105495606Y-63820080D01*
X105570080Y-63745606D01*
X105622741Y-63654394D01*
X105650000Y-63552661D01*
X105650000Y-63546447D01*
X106329474Y-64225921D01*
X106361859Y-64181349D01*
X106389233Y-64127624D01*
X106437207Y-64076827D01*
X106505028Y-64060031D01*
X106571163Y-64082567D01*
X106610203Y-64127621D01*
X106637713Y-64181611D01*
X106758028Y-64347213D01*
X106902786Y-64491971D01*
X107010920Y-64570533D01*
X107068390Y-64612287D01*
X107184607Y-64671503D01*
X107250776Y-64705218D01*
X107250778Y-64705218D01*
X107250781Y-64705220D01*
X107355137Y-64739127D01*
X107445465Y-64768477D01*
X107546557Y-64784488D01*
X107647648Y-64800500D01*
X107647649Y-64800500D01*
X107852351Y-64800500D01*
X107852352Y-64800500D01*
X108054534Y-64768477D01*
X108249219Y-64705220D01*
X108431610Y-64612287D01*
X108525041Y-64544406D01*
X108597213Y-64491971D01*
X108597215Y-64491968D01*
X108597219Y-64491966D01*
X108741966Y-64347219D01*
X108741968Y-64347215D01*
X108741971Y-64347213D01*
X108826319Y-64231116D01*
X108862287Y-64181610D01*
X108955220Y-63999219D01*
X109018477Y-63804534D01*
X109050500Y-63602352D01*
X109050500Y-63397648D01*
X109029964Y-63267990D01*
X109018477Y-63195465D01*
X108980789Y-63079474D01*
X108955220Y-63000781D01*
X108955218Y-63000778D01*
X108955218Y-63000776D01*
X108907774Y-62907664D01*
X108862287Y-62818390D01*
X108830092Y-62774077D01*
X108741971Y-62652786D01*
X108597213Y-62508028D01*
X108431613Y-62387715D01*
X108431612Y-62387714D01*
X108431610Y-62387713D01*
X108337560Y-62339792D01*
X108249223Y-62294781D01*
X108054534Y-62231522D01*
X107879995Y-62203878D01*
X107852352Y-62199500D01*
X107647648Y-62199500D01*
X107623329Y-62203351D01*
X107445465Y-62231522D01*
X107250776Y-62294781D01*
X107068386Y-62387715D01*
X106902786Y-62508028D01*
X106758028Y-62652786D01*
X106637714Y-62818386D01*
X106610203Y-62872379D01*
X106562227Y-62923174D01*
X106494406Y-62939968D01*
X106428272Y-62917429D01*
X106389234Y-62872376D01*
X106361861Y-62818652D01*
X106329474Y-62774077D01*
X106329474Y-62774076D01*
X105650000Y-63453551D01*
X105650000Y-63447339D01*
X105622741Y-63345606D01*
X105570080Y-63254394D01*
X105495606Y-63179920D01*
X105404394Y-63127259D01*
X105302661Y-63100000D01*
X105296446Y-63100000D01*
X105975922Y-62420524D01*
X105975921Y-62420523D01*
X105931359Y-62388147D01*
X105931350Y-62388141D01*
X105749031Y-62295244D01*
X105554417Y-62232009D01*
X105352317Y-62200000D01*
X105147683Y-62200000D01*
X104945582Y-62232009D01*
X104750968Y-62295244D01*
X104568644Y-62388143D01*
X104524077Y-62420523D01*
X104524077Y-62420524D01*
X105203554Y-63100000D01*
X105197339Y-63100000D01*
X105095606Y-63127259D01*
X105004394Y-63179920D01*
X104929920Y-63254394D01*
X104877259Y-63345606D01*
X104850000Y-63447339D01*
X104850000Y-63453553D01*
X104170524Y-62774077D01*
X104170523Y-62774077D01*
X104138143Y-62818644D01*
X104045244Y-63000968D01*
X103982009Y-63195582D01*
X103950000Y-63397682D01*
X95931505Y-63397682D01*
X96024053Y-63305135D01*
X96029723Y-63299464D01*
X96029727Y-63299459D01*
X96154620Y-63127557D01*
X96251095Y-62938217D01*
X96316757Y-62736129D01*
X96316757Y-62736126D01*
X96327231Y-62670000D01*
X95433012Y-62670000D01*
X95465925Y-62612993D01*
X95500000Y-62485826D01*
X95500000Y-62354174D01*
X95465925Y-62227007D01*
X95433012Y-62170000D01*
X96327231Y-62170000D01*
X96316757Y-62103873D01*
X96316757Y-62103870D01*
X96252948Y-61907484D01*
X96251095Y-61901782D01*
X96236959Y-61874038D01*
X129399500Y-61874038D01*
X129399500Y-62125961D01*
X129438910Y-62374785D01*
X129516760Y-62614383D01*
X129595413Y-62768747D01*
X129621578Y-62820099D01*
X129631132Y-62838848D01*
X129779201Y-63042649D01*
X129779205Y-63042654D01*
X129957345Y-63220794D01*
X129957350Y-63220798D01*
X130073431Y-63305135D01*
X130161155Y-63368870D01*
X130304184Y-63441747D01*
X130385616Y-63483239D01*
X130385618Y-63483239D01*
X130385621Y-63483241D01*
X130625215Y-63561090D01*
X130874038Y-63600500D01*
X130874039Y-63600500D01*
X131125961Y-63600500D01*
X131125962Y-63600500D01*
X131374785Y-63561090D01*
X131614379Y-63483241D01*
X131838845Y-63368870D01*
X132042656Y-63220793D01*
X132220793Y-63042656D01*
X132368870Y-62838845D01*
X132483241Y-62614379D01*
X132561090Y-62374785D01*
X132600500Y-62125962D01*
X132600500Y-61897648D01*
X148199500Y-61897648D01*
X148199500Y-62102352D01*
X148199741Y-62103873D01*
X148231522Y-62304534D01*
X148294781Y-62499223D01*
X148337248Y-62582567D01*
X148387585Y-62681359D01*
X148387715Y-62681613D01*
X148508028Y-62847213D01*
X148652786Y-62991971D01*
X148773226Y-63079474D01*
X148818390Y-63112287D01*
X148934607Y-63171503D01*
X149000776Y-63205218D01*
X149000778Y-63205218D01*
X149000781Y-63205220D01*
X149105137Y-63239127D01*
X149195465Y-63268477D01*
X149296557Y-63284488D01*
X149397648Y-63300500D01*
X149397649Y-63300500D01*
X149602351Y-63300500D01*
X149602352Y-63300500D01*
X149804534Y-63268477D01*
X149999219Y-63205220D01*
X150181610Y-63112287D01*
X150334829Y-63000968D01*
X150347213Y-62991971D01*
X150347215Y-62991968D01*
X150347219Y-62991966D01*
X150491966Y-62847219D01*
X150491968Y-62847215D01*
X150491971Y-62847213D01*
X150594417Y-62706206D01*
X150612287Y-62681610D01*
X150639795Y-62627621D01*
X150687769Y-62576826D01*
X150755589Y-62560030D01*
X150821725Y-62582567D01*
X150860765Y-62627621D01*
X150888141Y-62681350D01*
X150888147Y-62681359D01*
X150920523Y-62725921D01*
X150920524Y-62725922D01*
X151600000Y-62046446D01*
X151600000Y-62052661D01*
X151627259Y-62154394D01*
X151679920Y-62245606D01*
X151754394Y-62320080D01*
X151845606Y-62372741D01*
X151947339Y-62400000D01*
X151953553Y-62400000D01*
X151274076Y-63079474D01*
X151318650Y-63111859D01*
X151500968Y-63204755D01*
X151695582Y-63267990D01*
X151897683Y-63300000D01*
X152102317Y-63300000D01*
X152304417Y-63267990D01*
X152499031Y-63204755D01*
X152681349Y-63111859D01*
X152725921Y-63079474D01*
X152046447Y-62400000D01*
X152052661Y-62400000D01*
X152154394Y-62372741D01*
X152245606Y-62320080D01*
X152320080Y-62245606D01*
X152372741Y-62154394D01*
X152400000Y-62052661D01*
X152400000Y-62046448D01*
X153079474Y-62725922D01*
X153079474Y-62725921D01*
X153111859Y-62681349D01*
X153204755Y-62499031D01*
X153267990Y-62304417D01*
X153300000Y-62102317D01*
X153300000Y-61897682D01*
X153267990Y-61695582D01*
X153204755Y-61500968D01*
X153166282Y-61425461D01*
X153140081Y-61374038D01*
X157899500Y-61374038D01*
X157899500Y-61625962D01*
X157910527Y-61695582D01*
X157938910Y-61874785D01*
X158016760Y-62114383D01*
X158131132Y-62338848D01*
X158279201Y-62542649D01*
X158279205Y-62542654D01*
X158457345Y-62720794D01*
X158457350Y-62720798D01*
X158594027Y-62820099D01*
X158661155Y-62868870D01*
X158767733Y-62923174D01*
X158885616Y-62983239D01*
X158885618Y-62983239D01*
X158885621Y-62983241D01*
X159125215Y-63061090D01*
X159374038Y-63100500D01*
X159374039Y-63100500D01*
X159625961Y-63100500D01*
X159625962Y-63100500D01*
X159874785Y-63061090D01*
X160114379Y-62983241D01*
X160338845Y-62868870D01*
X160542656Y-62720793D01*
X160720793Y-62542656D01*
X160868870Y-62338845D01*
X160983241Y-62114379D01*
X161061090Y-61874785D01*
X161100500Y-61625962D01*
X161100500Y-61374038D01*
X161061090Y-61125215D01*
X160983241Y-60885621D01*
X160983239Y-60885618D01*
X160983239Y-60885616D01*
X160929017Y-60779201D01*
X160868870Y-60661155D01*
X160847056Y-60631130D01*
X160720798Y-60457350D01*
X160720794Y-60457345D01*
X160542654Y-60279205D01*
X160542649Y-60279201D01*
X160338848Y-60131132D01*
X160338847Y-60131131D01*
X160338845Y-60131130D01*
X160268747Y-60095413D01*
X160114383Y-60016760D01*
X159874785Y-59938910D01*
X159625962Y-59899500D01*
X159374038Y-59899500D01*
X159249626Y-59919205D01*
X159125214Y-59938910D01*
X158885616Y-60016760D01*
X158661151Y-60131132D01*
X158457350Y-60279201D01*
X158457345Y-60279205D01*
X158279205Y-60457345D01*
X158279201Y-60457350D01*
X158131132Y-60661151D01*
X158016760Y-60885616D01*
X157938910Y-61125214D01*
X157915332Y-61274077D01*
X157899500Y-61374038D01*
X153140081Y-61374038D01*
X153111859Y-61318650D01*
X153079474Y-61274077D01*
X153079474Y-61274076D01*
X152400000Y-61953551D01*
X152400000Y-61947339D01*
X152372741Y-61845606D01*
X152320080Y-61754394D01*
X152245606Y-61679920D01*
X152154394Y-61627259D01*
X152052661Y-61600000D01*
X152046446Y-61600000D01*
X152725922Y-60920524D01*
X152725921Y-60920523D01*
X152681359Y-60888147D01*
X152681350Y-60888141D01*
X152499031Y-60795244D01*
X152304417Y-60732009D01*
X152102317Y-60700000D01*
X151897683Y-60700000D01*
X151695582Y-60732009D01*
X151500968Y-60795244D01*
X151318644Y-60888143D01*
X151274077Y-60920523D01*
X151274077Y-60920524D01*
X151953554Y-61600000D01*
X151947339Y-61600000D01*
X151845606Y-61627259D01*
X151754394Y-61679920D01*
X151679920Y-61754394D01*
X151627259Y-61845606D01*
X151600000Y-61947339D01*
X151600000Y-61953553D01*
X150920524Y-61274077D01*
X150920523Y-61274077D01*
X150888143Y-61318644D01*
X150860765Y-61372378D01*
X150812790Y-61423174D01*
X150744969Y-61439969D01*
X150678834Y-61417431D01*
X150639795Y-61372378D01*
X150612284Y-61318385D01*
X150491971Y-61152786D01*
X150347213Y-61008028D01*
X150181613Y-60887715D01*
X150181612Y-60887714D01*
X150181610Y-60887713D01*
X150124653Y-60858691D01*
X149999223Y-60794781D01*
X149804534Y-60731522D01*
X149629995Y-60703878D01*
X149602352Y-60699500D01*
X149397648Y-60699500D01*
X149373329Y-60703351D01*
X149195465Y-60731522D01*
X149000776Y-60794781D01*
X148818386Y-60887715D01*
X148652786Y-61008028D01*
X148508028Y-61152786D01*
X148387715Y-61318386D01*
X148294781Y-61500776D01*
X148231522Y-61695465D01*
X148203121Y-61874785D01*
X148199500Y-61897648D01*
X132600500Y-61897648D01*
X132600500Y-61874038D01*
X132561090Y-61625215D01*
X132483241Y-61385621D01*
X132483239Y-61385618D01*
X132483239Y-61385616D01*
X132441747Y-61304184D01*
X132368870Y-61161155D01*
X132319184Y-61092768D01*
X132220798Y-60957350D01*
X132220794Y-60957345D01*
X132042654Y-60779205D01*
X132042649Y-60779201D01*
X131838848Y-60631132D01*
X131838847Y-60631131D01*
X131838845Y-60631130D01*
X131738905Y-60580208D01*
X131614383Y-60516760D01*
X131374785Y-60438910D01*
X131317835Y-60429890D01*
X131125962Y-60399500D01*
X130874038Y-60399500D01*
X130749626Y-60419205D01*
X130625214Y-60438910D01*
X130385616Y-60516760D01*
X130161151Y-60631132D01*
X129957350Y-60779201D01*
X129957345Y-60779205D01*
X129779205Y-60957345D01*
X129779201Y-60957350D01*
X129631132Y-61161151D01*
X129516760Y-61385616D01*
X129438910Y-61625214D01*
X129399500Y-61874038D01*
X96236959Y-61874038D01*
X96154620Y-61712442D01*
X96029727Y-61540540D01*
X96029723Y-61540535D01*
X95879464Y-61390276D01*
X95879459Y-61390272D01*
X95707557Y-61265379D01*
X95518215Y-61168903D01*
X95316124Y-61103241D01*
X95250000Y-61092768D01*
X95250000Y-61986988D01*
X95192993Y-61954075D01*
X95065826Y-61920000D01*
X94934174Y-61920000D01*
X94807007Y-61954075D01*
X94750000Y-61986988D01*
X94750000Y-61092768D01*
X94749999Y-61092768D01*
X94683875Y-61103241D01*
X94481784Y-61168903D01*
X94292442Y-61265379D01*
X94120540Y-61390272D01*
X94120535Y-61390276D01*
X93970276Y-61540535D01*
X93970272Y-61540540D01*
X93845379Y-61712442D01*
X93748904Y-61901782D01*
X93683242Y-62103870D01*
X93683242Y-62103873D01*
X93672769Y-62170000D01*
X94566988Y-62170000D01*
X94534075Y-62227007D01*
X94500000Y-62354174D01*
X94500000Y-62485826D01*
X94534075Y-62612993D01*
X94566988Y-62670000D01*
X93672769Y-62670000D01*
X93683242Y-62736126D01*
X93683242Y-62736129D01*
X93748904Y-62938217D01*
X93845379Y-63127557D01*
X93970272Y-63299459D01*
X93970276Y-63299464D01*
X94120535Y-63449723D01*
X94120540Y-63449727D01*
X94292444Y-63574622D01*
X94301495Y-63579234D01*
X94352292Y-63627208D01*
X94369087Y-63695029D01*
X94346550Y-63761164D01*
X94301499Y-63800202D01*
X94292182Y-63804949D01*
X94120213Y-63929890D01*
X93969890Y-64080213D01*
X93844951Y-64252179D01*
X93748444Y-64441585D01*
X93748443Y-64441587D01*
X93748443Y-64441588D01*
X93715598Y-64542672D01*
X93682753Y-64643760D01*
X93649500Y-64853713D01*
X91350500Y-64853713D01*
X91350499Y-63999223D01*
X91350499Y-63102129D01*
X91350498Y-63102123D01*
X91350497Y-63102116D01*
X91344091Y-63042517D01*
X91328594Y-63000968D01*
X91293797Y-62907671D01*
X91293793Y-62907664D01*
X91207547Y-62792455D01*
X91207544Y-62792452D01*
X91092335Y-62706206D01*
X91092328Y-62706202D01*
X90960917Y-62657189D01*
X90904983Y-62615318D01*
X90904982Y-62615317D01*
X90882659Y-62555465D01*
X90880566Y-62549853D01*
X90881328Y-62546352D01*
X90895418Y-62481579D01*
X90916563Y-62453332D01*
X91030104Y-62339792D01*
X91030106Y-62339788D01*
X91030109Y-62339786D01*
X91155050Y-62167817D01*
X91163738Y-62150768D01*
X91230417Y-62019901D01*
X91251557Y-61978412D01*
X91317246Y-61776243D01*
X91350500Y-61566287D01*
X91350500Y-61353713D01*
X91317246Y-61143757D01*
X91251557Y-60941588D01*
X91155051Y-60752184D01*
X91155049Y-60752181D01*
X91155048Y-60752179D01*
X91030109Y-60580213D01*
X90879786Y-60429890D01*
X90707817Y-60304949D01*
X90698504Y-60300204D01*
X90647707Y-60252230D01*
X90630912Y-60184409D01*
X90653449Y-60118274D01*
X90698507Y-60079232D01*
X90707558Y-60074620D01*
X90879459Y-59949727D01*
X90879464Y-59949723D01*
X91029723Y-59799464D01*
X91029727Y-59799459D01*
X91154620Y-59627557D01*
X91251095Y-59438217D01*
X91316757Y-59236129D01*
X91316757Y-59236126D01*
X91327231Y-59170000D01*
X90433012Y-59170000D01*
X90465925Y-59112993D01*
X90500000Y-58985826D01*
X90500000Y-58854174D01*
X90465925Y-58727007D01*
X90433012Y-58670000D01*
X91327231Y-58670000D01*
X91316757Y-58603873D01*
X91316757Y-58603870D01*
X91251095Y-58401782D01*
X91154620Y-58212442D01*
X91029727Y-58040540D01*
X91029723Y-58040535D01*
X90879464Y-57890276D01*
X90879459Y-57890272D01*
X90707557Y-57765379D01*
X90518215Y-57668903D01*
X90316124Y-57603241D01*
X90250000Y-57592768D01*
X90250000Y-58486988D01*
X90192993Y-58454075D01*
X90065826Y-58420000D01*
X89934174Y-58420000D01*
X89807007Y-58454075D01*
X89750000Y-58486988D01*
X89750000Y-57592768D01*
X89749999Y-57592768D01*
X89683875Y-57603241D01*
X89481784Y-57668903D01*
X89292442Y-57765379D01*
X89120540Y-57890272D01*
X89120535Y-57890276D01*
X88970276Y-58040535D01*
X88970272Y-58040540D01*
X88845379Y-58212442D01*
X88748904Y-58401782D01*
X88683242Y-58603870D01*
X88683242Y-58603873D01*
X88672769Y-58670000D01*
X89566988Y-58670000D01*
X89534075Y-58727007D01*
X89500000Y-58854174D01*
X89500000Y-58985826D01*
X89534075Y-59112993D01*
X89566988Y-59170000D01*
X88672769Y-59170000D01*
X88683242Y-59236126D01*
X88683242Y-59236129D01*
X88748904Y-59438217D01*
X88845379Y-59627557D01*
X88970272Y-59799459D01*
X88970276Y-59799464D01*
X89120535Y-59949723D01*
X89120540Y-59949727D01*
X89292444Y-60074622D01*
X89301495Y-60079234D01*
X89352292Y-60127208D01*
X89369087Y-60195029D01*
X89346550Y-60261164D01*
X89301499Y-60300202D01*
X89292182Y-60304949D01*
X89120213Y-60429890D01*
X88969890Y-60580213D01*
X88844951Y-60752179D01*
X88748444Y-60941585D01*
X88682753Y-61143760D01*
X88679999Y-61161151D01*
X88649500Y-61353713D01*
X87500500Y-61353713D01*
X87500500Y-56624500D01*
X87520185Y-56557461D01*
X87572989Y-56511706D01*
X87624500Y-56500500D01*
X164875500Y-56500500D01*
X164942539Y-56520185D01*
G37*
%TD.AperFunction*%
%TD*%
M02*
