M48
; DRILL file {KiCad 9.0.6-9.0.6~ubuntu24.04.1} date 2026-01-12T20:01:16+0000
; FORMAT={-:-/ absolute / metric / decimal}
; #@! TF.CreationDate,2026-01-12T20:01:16+00:00
; #@! TF.GenerationSoftware,Kicad,Pcbnew,9.0.6-9.0.6~ubuntu24.04.1
; #@! TF.FileFunction,Plated,1,2,PTH
FMAT,2
METRIC
; #@! TA.AperFunction,Plated,PTH,ViaDrill
T1C0.400
; #@! TA.AperFunction,Plated,PTH,ComponentDrill
T2C0.500
; #@! TA.AperFunction,Plated,PTH,ComponentDrill
T3C0.762
; #@! TA.AperFunction,Plated,PTH,ComponentDrill
T4C0.800
; #@! TA.AperFunction,Plated,PTH,ComponentDrill
T5C1.000
%
G90
G05
T1
X91.0Y-68.5
X95.0Y-73.0
X99.5Y-67.5
X101.5Y-71.5
X136.0Y-69.0
X145.463Y-94.037
X146.5Y-77.0
X146.5Y-81.0
X147.5Y-72.0
T3
X149.5Y-70.22
X149.5Y-72.76
X149.5Y-75.3
X149.5Y-77.84
X149.5Y-80.38
X149.5Y-82.92
X149.5Y-85.46
X149.5Y-88.0
T4
X105.25Y-63.5
X107.75Y-63.5
X149.5Y-62.0
X152.0Y-62.0
T5
X90.0Y-58.92
X90.0Y-61.46
X90.0Y-64.0
X90.24Y-75.0
X90.24Y-90.24
X92.78Y-75.0
X92.78Y-90.24
X94.05Y-78.81
X94.05Y-81.35
X94.05Y-83.89
X94.05Y-86.43
X95.0Y-62.42
X95.0Y-64.96
X95.0Y-67.5
X95.32Y-75.0
X95.32Y-90.24
X97.86Y-75.0
X97.86Y-90.24
X100.4Y-75.0
X100.4Y-90.24
X102.94Y-75.0
X102.94Y-90.24
X105.48Y-75.0
X105.48Y-90.24
X108.02Y-75.0
X108.02Y-90.24
X110.56Y-75.0
X110.56Y-90.24
X113.1Y-75.0
X113.1Y-90.24
X115.64Y-75.0
X115.64Y-90.24
X118.18Y-75.0
X118.18Y-90.24
X120.72Y-75.0
X120.72Y-90.24
X123.26Y-75.0
X123.26Y-90.24
X125.8Y-75.0
X125.8Y-90.24
X128.34Y-75.0
X128.34Y-90.24
X130.88Y-75.0
X130.88Y-90.24
X133.42Y-75.0
X133.42Y-90.24
X135.96Y-75.0
X135.96Y-90.24
X138.5Y-75.0
X138.5Y-90.24
T2
G00X112.0Y-65.15
M15
G01X112.0Y-65.85
M16
G05
G00X118.6Y-65.15
M15
G01X118.6Y-65.85
M16
G05
M30
