%TF.GenerationSoftware,KiCad,Pcbnew,9.0.6-9.0.6~ubuntu24.04.1*%
%TF.CreationDate,2026-01-12T20:01:20+00:00*%
%TF.ProjectId,CarrierBoard,43617272-6965-4724-926f-6172642e6b69,rev?*%
%TF.SameCoordinates,Original*%
%TF.FileFunction,Copper,L1,Top*%
%TF.FilePolarity,Positive*%
%FSLAX46Y46*%
G04 Gerber Fmt 4.6, Leading zero omitted, Abs format (unit mm)*
G04 Created by KiCad (PCBNEW 9.0.6-9.0.6~ubuntu24.04.1) date 2026-01-12 20:01:20*
%MOMM*%
%LPD*%
G01*
G04 APERTURE LIST*
G04 Aperture macros list*
%AMRoundRect*
0 Rectangle with rounded corners*
0 $1 Rounding radius*
0 $2 $3 $4 $5 $6 $7 $8 $9 X,Y pos of 4 corners*
0 Add a 4 corners polygon primitive as box body*
4,1,4,$2,$3,$4,$5,$6,$7,$8,$9,$2,$3,0*
0 Add four circle primitives for the rounded corners*
1,1,$1+$1,$2,$3*
1,1,$1+$1,$4,$5*
1,1,$1+$1,$6,$7*
1,1,$1+$1,$8,$9*
0 Add four rect primitives between the rounded corners*
20,1,$1+$1,$2,$3,$4,$5,0*
20,1,$1+$1,$4,$5,$6,$7,0*
20,1,$1+$1,$6,$7,$8,$9,0*
20,1,$1+$1,$8,$9,$2,$3,0*%
G04 Aperture macros list end*
%TA.AperFunction,ComponentPad*%
%ADD10C,1.524000*%
%TD*%
%TA.AperFunction,SMDPad,CuDef*%
%ADD11RoundRect,0.250000X-0.650000X1.500000X-0.650000X-1.500000X0.650000X-1.500000X0.650000X1.500000X0*%
%TD*%
%TA.AperFunction,SMDPad,CuDef*%
%ADD12RoundRect,0.250000X0.337500X0.475000X-0.337500X0.475000X-0.337500X-0.475000X0.337500X-0.475000X0*%
%TD*%
%TA.AperFunction,SMDPad,CuDef*%
%ADD13RoundRect,0.250000X-0.337500X-0.475000X0.337500X-0.475000X0.337500X0.475000X-0.337500X0.475000X0*%
%TD*%
%TA.AperFunction,SMDPad,CuDef*%
%ADD14RoundRect,0.250000X0.450000X-0.350000X0.450000X0.350000X-0.450000X0.350000X-0.450000X-0.350000X0*%
%TD*%
%TA.AperFunction,ComponentPad*%
%ADD15C,1.600000*%
%TD*%
%TA.AperFunction,SMDPad,CuDef*%
%ADD16RoundRect,0.250000X-0.475000X0.337500X-0.475000X-0.337500X0.475000X-0.337500X0.475000X0.337500X0*%
%TD*%
%TA.AperFunction,ComponentPad*%
%ADD17R,1.700000X1.700000*%
%TD*%
%TA.AperFunction,ComponentPad*%
%ADD18C,1.700000*%
%TD*%
%TA.AperFunction,ComponentPad*%
%ADD19O,1.700000X1.700000*%
%TD*%
%TA.AperFunction,SMDPad,CuDef*%
%ADD20RoundRect,0.100000X0.100000X0.575000X-0.100000X0.575000X-0.100000X-0.575000X0.100000X-0.575000X0*%
%TD*%
%TA.AperFunction,ComponentPad*%
%ADD21O,0.900000X1.600000*%
%TD*%
%TA.AperFunction,SMDPad,CuDef*%
%ADD22RoundRect,0.250000X0.550000X0.450000X-0.550000X0.450000X-0.550000X-0.450000X0.550000X-0.450000X0*%
%TD*%
%TA.AperFunction,SMDPad,CuDef*%
%ADD23RoundRect,0.250000X0.700000X0.700000X-0.700000X0.700000X-0.700000X-0.700000X0.700000X-0.700000X0*%
%TD*%
%TA.AperFunction,SMDPad,CuDef*%
%ADD24RoundRect,0.250000X-0.450000X0.350000X-0.450000X-0.350000X0.450000X-0.350000X0.450000X0.350000X0*%
%TD*%
%TA.AperFunction,SMDPad,CuDef*%
%ADD25RoundRect,0.250000X0.650000X-1.500000X0.650000X1.500000X-0.650000X1.500000X-0.650000X-1.500000X0*%
%TD*%
%TA.AperFunction,SMDPad,CuDef*%
%ADD26R,2.200000X1.550000*%
%TD*%
%TA.AperFunction,ViaPad*%
%ADD27C,0.800000*%
%TD*%
%TA.AperFunction,Conductor*%
%ADD28C,0.500000*%
%TD*%
%TA.AperFunction,Conductor*%
%ADD29C,0.300000*%
%TD*%
G04 APERTURE END LIST*
D10*
%TO.P,U2,1,VCC*%
%TO.N,+3V3*%
X149500000Y-70220000D03*
%TO.P,U2,2,GND*%
%TO.N,GND*%
X149500000Y-72760000D03*
%TO.P,U2,3,SCL*%
%TO.N,/IMU_I2C_SCL*%
X149500000Y-75300000D03*
%TO.P,U2,4,SDA*%
%TO.N,/IMU_I2C_SDA*%
X149500000Y-77840000D03*
%TO.P,U2,5,XDA*%
%TO.N,unconnected-(U2-XDA-Pad5)*%
X149500000Y-80380000D03*
%TO.P,U2,6,XCL*%
%TO.N,unconnected-(U2-XCL-Pad6)*%
X149500000Y-82920000D03*
%TO.P,U2,7,ADD*%
%TO.N,GND*%
X149500000Y-85460000D03*
%TO.P,U2,8,INT*%
%TO.N,unconnected-(U2-INT-Pad8)*%
X149500000Y-88000000D03*
%TD*%
D11*
%TO.P,D3,1,K*%
%TO.N,+5V*%
X124000000Y-63000000D03*
%TO.P,D3,2,A*%
%TO.N,/USB_VCC*%
X124000000Y-68000000D03*
%TD*%
D12*
%TO.P,C2,1*%
%TO.N,+5V*%
X101537500Y-69500000D03*
%TO.P,C2,2*%
%TO.N,GND*%
X99462500Y-69500000D03*
%TD*%
D13*
%TO.P,C4,1*%
%TO.N,+3V3*%
X89462500Y-70000000D03*
%TO.P,C4,2*%
%TO.N,GND*%
X91537500Y-70000000D03*
%TD*%
D14*
%TO.P,R3,1*%
%TO.N,+3V3*%
X144500000Y-76500000D03*
%TO.P,R3,2*%
%TO.N,/IMU_I2C_SCL*%
X144500000Y-74500000D03*
%TD*%
D15*
%TO.P,C1,1*%
%TO.N,+5V*%
X107750000Y-63500000D03*
%TO.P,C1,2*%
%TO.N,GND*%
X105250000Y-63500000D03*
%TD*%
D16*
%TO.P,C5,1*%
%TO.N,+3V3*%
X143500000Y-91962500D03*
%TO.P,C5,2*%
%TO.N,GND*%
X143500000Y-94037500D03*
%TD*%
D15*
%TO.P,C3,1*%
%TO.N,+3V3*%
X149500000Y-62000000D03*
%TO.P,C3,2*%
%TO.N,GND*%
X152000000Y-62000000D03*
%TD*%
D17*
%TO.P,U1,1,PB12*%
%TO.N,unconnected-(U1-PB12-Pad1)*%
X138500000Y-75000000D03*
D18*
%TO.P,U1,2,PB13*%
%TO.N,unconnected-(U1-PB13-Pad2)*%
X135960000Y-75000000D03*
%TO.P,U1,3,PB14*%
%TO.N,unconnected-(U1-PB14-Pad3)*%
X133420000Y-75000000D03*
%TO.P,U1,4,PB15*%
%TO.N,unconnected-(U1-PB15-Pad4)*%
X130880000Y-75000000D03*
%TO.P,U1,5,PA8*%
%TO.N,unconnected-(U1-PA8-Pad5)*%
X128340000Y-75000000D03*
%TO.P,U1,6,PA9*%
%TO.N,unconnected-(U1-PA9-Pad6)*%
X125800000Y-75000000D03*
%TO.P,U1,7,PA10*%
%TO.N,unconnected-(U1-PA10-Pad7)*%
X123260000Y-75000000D03*
%TO.P,U1,8,PA11*%
%TO.N,/USB_D-*%
X120720000Y-75000000D03*
%TO.P,U1,9,PA12*%
%TO.N,/USB_D+*%
X118180000Y-75000000D03*
%TO.P,U1,10,PA15*%
%TO.N,unconnected-(U1-PA15-Pad10)*%
X115640000Y-75000000D03*
%TO.P,U1,11,PB3*%
%TO.N,unconnected-(U1-PB3-Pad11)*%
X113100000Y-75000000D03*
%TO.P,U1,12,PB4*%
%TO.N,unconnected-(U1-PB4-Pad12)*%
X110560000Y-75000000D03*
%TO.P,U1,13,PB5*%
%TO.N,unconnected-(U1-PB5-Pad13)*%
X108020000Y-75000000D03*
%TO.P,U1,14,PB6*%
%TO.N,/IMU_I2C_SCL*%
X105480000Y-75000000D03*
%TO.P,U1,15,PB7*%
%TO.N,/IMU_I2C_SDA*%
X102940000Y-75000000D03*
%TO.P,U1,16,PB8*%
%TO.N,unconnected-(U1-PB8-Pad16)*%
X100400000Y-75000000D03*
%TO.P,U1,17,PB9*%
%TO.N,unconnected-(U1-PB9-Pad17)*%
X97860000Y-75000000D03*
%TO.P,U1,18,5V*%
%TO.N,+5V*%
X95320000Y-75000000D03*
%TO.P,U1,19,GND*%
%TO.N,GND*%
X92780000Y-75000000D03*
%TO.P,U1,20,3V3*%
%TO.N,+3V3*%
X90240000Y-75000000D03*
%TO.P,U1,21,VBat*%
%TO.N,unconnected-(U1-VBat-Pad21)*%
X90240000Y-90240000D03*
%TO.P,U1,22,PC13*%
%TO.N,unconnected-(U1-PC13-Pad22)*%
X92780000Y-90240000D03*
%TO.P,U1,23,PC14*%
%TO.N,unconnected-(U1-PC14-Pad23)*%
X95320000Y-90240000D03*
%TO.P,U1,24,PC15*%
%TO.N,unconnected-(U1-PC15-Pad24)*%
X97860000Y-90240000D03*
%TO.P,U1,25,PA0*%
%TO.N,/MOTOR1_PWM*%
X100400000Y-90240000D03*
%TO.P,U1,26,PA1*%
%TO.N,/MOTOR2_PWM*%
X102940000Y-90240000D03*
%TO.P,U1,27,PA2*%
%TO.N,unconnected-(U1-PA2-Pad27)*%
X105480000Y-90240000D03*
%TO.P,U1,28,PA3*%
%TO.N,unconnected-(U1-PA3-Pad28)*%
X108020000Y-90240000D03*
%TO.P,U1,29,PA4*%
%TO.N,unconnected-(U1-PA4-Pad29)*%
X110560000Y-90240000D03*
%TO.P,U1,30,PA5*%
%TO.N,unconnected-(U1-PA5-Pad30)*%
X113100000Y-90240000D03*
%TO.P,U1,31,PA6*%
%TO.N,unconnected-(U1-PA6-Pad31)*%
X115640000Y-90240000D03*
%TO.P,U1,32,PA7*%
%TO.N,unconnected-(U1-PA7-Pad32)*%
X118180000Y-90240000D03*
%TO.P,U1,33,PB0*%
%TO.N,unconnected-(U1-PB0-Pad33)*%
X120720000Y-90240000D03*
%TO.P,U1,34,PB1*%
%TO.N,unconnected-(U1-PB1-Pad34)*%
X123260000Y-90240000D03*
%TO.P,U1,35,PB10*%
%TO.N,unconnected-(U1-PB10-Pad35)*%
X125800000Y-90240000D03*
%TO.P,U1,36,PB11*%
%TO.N,unconnected-(U1-PB11-Pad36)*%
X128340000Y-90240000D03*
%TO.P,U1,37,RST*%
%TO.N,unconnected-(U1-RST-Pad37)*%
X130880000Y-90240000D03*
%TO.P,U1,38,3V3*%
%TO.N,+3V3*%
X133420000Y-90240000D03*
%TO.P,U1,39,GND*%
%TO.N,GND*%
X135960000Y-90240000D03*
%TO.P,U1,40,GND*%
X138500000Y-90240000D03*
%TO.P,U1,41*%
%TO.N,N/C*%
X94050000Y-86430000D03*
%TO.P,U1,42,SWDIO*%
%TO.N,unconnected-(U1-SWDIO-Pad42)*%
X94050000Y-83890000D03*
%TO.P,U1,43,SWDCLK*%
%TO.N,unconnected-(U1-SWDCLK-Pad43)*%
X94050000Y-81350000D03*
%TO.P,U1,44,GND*%
%TO.N,GND*%
X94050000Y-78810000D03*
%TD*%
D17*
%TO.P,J1,1,Pin_1*%
%TO.N,/MOTOR1_PWM*%
X90000000Y-64000000D03*
D19*
%TO.P,J1,2,Pin_2*%
%TO.N,/BEC_VCC*%
X90000000Y-61460000D03*
%TO.P,J1,3,Pin_3*%
%TO.N,GND*%
X90000000Y-58920000D03*
%TD*%
D20*
%TO.P,J3,1,VBUS*%
%TO.N,/USB_VCC*%
X116600000Y-68175000D03*
%TO.P,J3,2,D-*%
%TO.N,/USB_D-*%
X115950000Y-68175000D03*
%TO.P,J3,3,D+*%
%TO.N,/USB_D+*%
X115300000Y-68175000D03*
%TO.P,J3,4,ID*%
%TO.N,unconnected-(J3-ID-Pad4)*%
X114650000Y-68175000D03*
%TO.P,J3,5,GND*%
%TO.N,GND*%
X114000000Y-68175000D03*
D21*
%TO.P,J3,6,Shield*%
X118600000Y-65500000D03*
D22*
X118500000Y-67950000D03*
D23*
X116500000Y-65500000D03*
X114100000Y-65500000D03*
D22*
X112100000Y-67950000D03*
D21*
X112000000Y-65500000D03*
%TD*%
D14*
%TO.P,R2,1*%
%TO.N,+3V3*%
X144500000Y-81000000D03*
%TO.P,R2,2*%
%TO.N,/IMU_I2C_SDA*%
X144500000Y-79000000D03*
%TD*%
D24*
%TO.P,R1,1*%
%TO.N,+5V*%
X138650000Y-62000000D03*
%TO.P,R1,2*%
%TO.N,Net-(D2-A)*%
X138650000Y-64000000D03*
%TD*%
D25*
%TO.P,D1,1,K*%
%TO.N,+5V*%
X100000000Y-64000000D03*
%TO.P,D1,2,A*%
%TO.N,/BEC_VCC*%
X100000000Y-59000000D03*
%TD*%
D26*
%TO.P,D2,1,K*%
%TO.N,GND*%
X138650000Y-69050000D03*
%TO.P,D2,2,A*%
%TO.N,Net-(D2-A)*%
X138650000Y-66200000D03*
%TD*%
D17*
%TO.P,J2,1,Pin_1*%
%TO.N,/MOTOR2_PWM*%
X95000000Y-67500000D03*
D19*
%TO.P,J2,2,Pin_2*%
%TO.N,unconnected-(J2-Pin_2-Pad2)*%
X95000000Y-64960000D03*
%TO.P,J2,3,Pin_3*%
%TO.N,GND*%
X95000000Y-62420000D03*
%TD*%
D27*
%TO.N,+5V*%
X95000000Y-73000000D03*
X101500000Y-71500000D03*
%TO.N,GND*%
X99500000Y-67500000D03*
X145462500Y-94037500D03*
X136000000Y-69000000D03*
X91000000Y-68500000D03*
X147500000Y-72000000D03*
%TO.N,+3V3*%
X146500000Y-81000000D03*
X146500000Y-77000000D03*
%TD*%
D28*
%TO.N,+5V*%
X101500000Y-71500000D02*
X101500000Y-69537500D01*
X101500000Y-69537500D02*
X101537500Y-69500000D01*
X95320000Y-75000000D02*
X95320000Y-73320000D01*
X95320000Y-73320000D02*
X95000000Y-73000000D01*
%TO.N,GND*%
X112100000Y-67950000D02*
X112100000Y-65600000D01*
X112100000Y-65600000D02*
X112000000Y-65500000D01*
X118500000Y-65600000D02*
X118600000Y-65500000D01*
X112000000Y-65500000D02*
X114100000Y-65500000D01*
X118500000Y-67950000D02*
X118500000Y-65600000D01*
X149500000Y-72760000D02*
X148260000Y-72760000D01*
X145500000Y-94000000D02*
X145462500Y-94037500D01*
X91537500Y-70000000D02*
X91537500Y-73757500D01*
X99462500Y-67537500D02*
X99500000Y-67500000D01*
X112100000Y-67950000D02*
X113775000Y-67950000D01*
X138650000Y-69050000D02*
X136050000Y-69050000D01*
X91537500Y-70000000D02*
X91537500Y-69037500D01*
X99462500Y-69500000D02*
X99462500Y-67537500D01*
X91000000Y-68500000D02*
X91537500Y-69037500D01*
X113899000Y-68074000D02*
X113899000Y-68175000D01*
X116500000Y-65500000D02*
X118600000Y-65500000D01*
X136050000Y-69050000D02*
X136000000Y-69000000D01*
X113775000Y-67950000D02*
X113899000Y-68074000D01*
X143500000Y-94037500D02*
X145462500Y-94037500D01*
X148260000Y-72760000D02*
X147500000Y-72000000D01*
X138500000Y-90240000D02*
X142297500Y-94037500D01*
X91537500Y-73757500D02*
X92780000Y-75000000D01*
X142297500Y-94037500D02*
X143500000Y-94037500D01*
X116500000Y-65500000D02*
X114100000Y-65500000D01*
%TO.N,/BEC_VCC*%
X92460000Y-59000000D02*
X100000000Y-59000000D01*
X90000000Y-61460000D02*
X92460000Y-59000000D01*
%TO.N,Net-(D2-A)*%
X138650000Y-64000000D02*
X138650000Y-66200000D01*
%TO.N,/USB_VCC*%
X124000000Y-68000000D02*
X122500000Y-69500000D01*
X117910288Y-69500000D02*
X116701000Y-68290712D01*
X122500000Y-69500000D02*
X117910288Y-69500000D01*
X116701000Y-68290712D02*
X116701000Y-68175000D01*
D29*
%TO.N,/MOTOR1_PWM*%
X96621000Y-86461000D02*
X100400000Y-90240000D01*
X95000000Y-70500000D02*
X96621000Y-72121000D01*
X93000000Y-67000000D02*
X93000000Y-70159892D01*
X96621000Y-72121000D02*
X96621000Y-86461000D01*
X93340108Y-70500000D02*
X95000000Y-70500000D01*
X93000000Y-70159892D02*
X93340108Y-70500000D01*
X90000000Y-64000000D02*
X93000000Y-67000000D01*
%TO.N,/MOTOR2_PWM*%
X95000000Y-67500000D02*
X99061000Y-71561000D01*
X99061000Y-86361000D02*
X102940000Y-90240000D01*
X99061000Y-71561000D02*
X99061000Y-86361000D01*
%TO.N,/USB_D+*%
X116892434Y-71950252D02*
X118180000Y-73237818D01*
X115350000Y-69237501D02*
X115350000Y-70407818D01*
X115300000Y-68175000D02*
X115300000Y-69187501D01*
X115300000Y-69187501D02*
X115350000Y-69237501D01*
X115350000Y-70407818D02*
X116362745Y-71420563D01*
X116362745Y-71420563D02*
X116892434Y-71950252D01*
X118180000Y-73237818D02*
X118180000Y-75000000D01*
%TO.N,/USB_D-*%
X116853980Y-71133980D02*
X120720000Y-75000000D01*
X115950000Y-69187501D02*
X115900000Y-69237501D01*
X115900000Y-69237501D02*
X115900000Y-70180000D01*
X115950000Y-68175000D02*
X115950000Y-69187501D01*
X116775731Y-71055731D02*
X116853980Y-71133980D01*
X115900000Y-70180000D02*
X116775731Y-71055731D01*
D28*
%TO.N,+3V3*%
X146000000Y-76500000D02*
X146500000Y-77000000D01*
X89462500Y-70000000D02*
X89462500Y-74222500D01*
X89462500Y-74222500D02*
X90240000Y-75000000D01*
X144500000Y-76500000D02*
X146000000Y-76500000D01*
X144500000Y-81000000D02*
X146500000Y-81000000D01*
D29*
%TO.N,/IMU_I2C_SDA*%
X144500000Y-79000000D02*
X148340000Y-79000000D01*
X102940000Y-75000000D02*
X106940000Y-79000000D01*
X106940000Y-79000000D02*
X144500000Y-79000000D01*
X148340000Y-79000000D02*
X149500000Y-77840000D01*
%TO.N,/IMU_I2C_SCL*%
X107980000Y-77500000D02*
X141500000Y-77500000D01*
X141500000Y-77500000D02*
X144500000Y-74500000D01*
X148700000Y-74500000D02*
X149500000Y-75300000D01*
X105480000Y-75000000D02*
X107980000Y-77500000D01*
X144500000Y-74500000D02*
X148700000Y-74500000D01*
%TD*%
%TA.AperFunction,Conductor*%
%TO.N,+3V3*%
G36*
X164942539Y-56520185D02*
G01*
X164988294Y-56572989D01*
X164999500Y-56624500D01*
X164999500Y-95375500D01*
X164979815Y-95442539D01*
X164927011Y-95488294D01*
X164875500Y-95499500D01*
X87624500Y-95499500D01*
X87557461Y-95479815D01*
X87511706Y-95427011D01*
X87500500Y-95375500D01*
X87500500Y-73124000D01*
X87520185Y-73056961D01*
X87572989Y-73011206D01*
X87624500Y-73000000D01*
X90663000Y-73000000D01*
X90730039Y-73019685D01*
X90775794Y-73072489D01*
X90787000Y-73124000D01*
X90787000Y-73587585D01*
X90767315Y-73654624D01*
X90714511Y-73700379D01*
X90645353Y-73710323D01*
X90624683Y-73705516D01*
X90556134Y-73683243D01*
X90556127Y-73683242D01*
X90346246Y-73650000D01*
X90133754Y-73650000D01*
X89923872Y-73683242D01*
X89923869Y-73683242D01*
X89721782Y-73748904D01*
X89532439Y-73845380D01*
X89478282Y-73884727D01*
X89478282Y-73884728D01*
X90110591Y-74517037D01*
X90047007Y-74534075D01*
X89932993Y-74599901D01*
X89839901Y-74692993D01*
X89774075Y-74807007D01*
X89757037Y-74870591D01*
X89124728Y-74238282D01*
X89124727Y-74238282D01*
X89085380Y-74292439D01*
X88988904Y-74481782D01*
X88923242Y-74683869D01*
X88923242Y-74683872D01*
X88890000Y-74893753D01*
X88890000Y-75106246D01*
X88923242Y-75316127D01*
X88923242Y-75316130D01*
X88988904Y-75518217D01*
X89085375Y-75707550D01*
X89124728Y-75761716D01*
X89757037Y-75129408D01*
X89774075Y-75192993D01*
X89839901Y-75307007D01*
X89932993Y-75400099D01*
X90047007Y-75465925D01*
X90110590Y-75482962D01*
X89478282Y-76115269D01*
X89478282Y-76115270D01*
X89532449Y-76154624D01*
X89721782Y-76251095D01*
X89923870Y-76316757D01*
X90133754Y-76350000D01*
X90346246Y-76350000D01*
X90556127Y-76316757D01*
X90556130Y-76316757D01*
X90758217Y-76251095D01*
X90947554Y-76154622D01*
X91001716Y-76115270D01*
X91001717Y-76115270D01*
X90369408Y-75482962D01*
X90432993Y-75465925D01*
X90547007Y-75400099D01*
X90640099Y-75307007D01*
X90705925Y-75192993D01*
X90722962Y-75129408D01*
X91355270Y-75761717D01*
X91355270Y-75761716D01*
X91394622Y-75707555D01*
X91399232Y-75698507D01*
X91447205Y-75647709D01*
X91515025Y-75630912D01*
X91581161Y-75653447D01*
X91620204Y-75698504D01*
X91624949Y-75707817D01*
X91749890Y-75879786D01*
X91749896Y-75879792D01*
X91900208Y-76030104D01*
X91948885Y-76065470D01*
X91991550Y-76120797D01*
X92000000Y-76165787D01*
X92000000Y-77499999D01*
X92000000Y-77500000D01*
X93189596Y-77487608D01*
X93256833Y-77506592D01*
X93303136Y-77558916D01*
X93313799Y-77627967D01*
X93285438Y-77691822D01*
X93263770Y-77711918D01*
X93170209Y-77779894D01*
X93019890Y-77930213D01*
X92894951Y-78102179D01*
X92798444Y-78291585D01*
X92732753Y-78493760D01*
X92699500Y-78703713D01*
X92699500Y-78916286D01*
X92724069Y-79071413D01*
X92732754Y-79126243D01*
X92763375Y-79220485D01*
X92798444Y-79328414D01*
X92894951Y-79517820D01*
X93019890Y-79689786D01*
X93170213Y-79840109D01*
X93342182Y-79965050D01*
X93350946Y-79969516D01*
X93401742Y-80017491D01*
X93418536Y-80085312D01*
X93395998Y-80151447D01*
X93350946Y-80190484D01*
X93342182Y-80194949D01*
X93170213Y-80319890D01*
X93019890Y-80470213D01*
X92894951Y-80642179D01*
X92798444Y-80831585D01*
X92732753Y-81033760D01*
X92699500Y-81243713D01*
X92699500Y-81456286D01*
X92731022Y-81655311D01*
X92732754Y-81666243D01*
X92782175Y-81818345D01*
X92798444Y-81868414D01*
X92894951Y-82057820D01*
X93019890Y-82229786D01*
X93170213Y-82380109D01*
X93342182Y-82505050D01*
X93350946Y-82509516D01*
X93401742Y-82557491D01*
X93418536Y-82625312D01*
X93395998Y-82691447D01*
X93350946Y-82730484D01*
X93342182Y-82734949D01*
X93170213Y-82859890D01*
X93019890Y-83010213D01*
X92894951Y-83182179D01*
X92798444Y-83371585D01*
X92732753Y-83573760D01*
X92699500Y-83783713D01*
X92699500Y-83996286D01*
X92731022Y-84195311D01*
X92732754Y-84206243D01*
X92795547Y-84399500D01*
X92798444Y-84408414D01*
X92894951Y-84597820D01*
X93019890Y-84769786D01*
X93170213Y-84920109D01*
X93342182Y-85045050D01*
X93350946Y-85049516D01*
X93401742Y-85097491D01*
X93418536Y-85165312D01*
X93395998Y-85231447D01*
X93350946Y-85270484D01*
X93342182Y-85274949D01*
X93170213Y-85399890D01*
X93019890Y-85550213D01*
X92894951Y-85722179D01*
X92798444Y-85911585D01*
X92732753Y-86113760D01*
X92699500Y-86323713D01*
X92699500Y-86536286D01*
X92731022Y-86735311D01*
X92732754Y-86746243D01*
X92774807Y-86875669D01*
X92798444Y-86948414D01*
X92894951Y-87137820D01*
X93019890Y-87309786D01*
X93170213Y-87460109D01*
X93342179Y-87585048D01*
X93342181Y-87585049D01*
X93342184Y-87585051D01*
X93531588Y-87681557D01*
X93733757Y-87747246D01*
X93943713Y-87780500D01*
X93943714Y-87780500D01*
X94156286Y-87780500D01*
X94156287Y-87780500D01*
X94366243Y-87747246D01*
X94568412Y-87681557D01*
X94757816Y-87585051D01*
X94790797Y-87561089D01*
X94929786Y-87460109D01*
X94929788Y-87460106D01*
X94929792Y-87460104D01*
X95080104Y-87309792D01*
X95080106Y-87309788D01*
X95080109Y-87309786D01*
X95205048Y-87137820D01*
X95205047Y-87137820D01*
X95205051Y-87137816D01*
X95301557Y-86948412D01*
X95367246Y-86746243D01*
X95400500Y-86536287D01*
X95400500Y-86323713D01*
X95367246Y-86113757D01*
X95301557Y-85911588D01*
X95205051Y-85722184D01*
X95205049Y-85722181D01*
X95205048Y-85722179D01*
X95080109Y-85550213D01*
X94929786Y-85399890D01*
X94757820Y-85274951D01*
X94757115Y-85274591D01*
X94749054Y-85270485D01*
X94698259Y-85222512D01*
X94681463Y-85154692D01*
X94703999Y-85088556D01*
X94749054Y-85049515D01*
X94757816Y-85045051D01*
X94779789Y-85029086D01*
X94929786Y-84920109D01*
X94929788Y-84920106D01*
X94929792Y-84920104D01*
X95080104Y-84769792D01*
X95080106Y-84769788D01*
X95080109Y-84769786D01*
X95205048Y-84597820D01*
X95205047Y-84597820D01*
X95205051Y-84597816D01*
X95301557Y-84408412D01*
X95367246Y-84206243D01*
X95400500Y-83996287D01*
X95400500Y-83783713D01*
X95367246Y-83573757D01*
X95301557Y-83371588D01*
X95205051Y-83182184D01*
X95205049Y-83182181D01*
X95205048Y-83182179D01*
X95080109Y-83010213D01*
X94929786Y-82859890D01*
X94757820Y-82734951D01*
X94757115Y-82734591D01*
X94749054Y-82730485D01*
X94698259Y-82682512D01*
X94681463Y-82614692D01*
X94703999Y-82548556D01*
X94749054Y-82509515D01*
X94757816Y-82505051D01*
X94779789Y-82489086D01*
X94929786Y-82380109D01*
X94929788Y-82380106D01*
X94929792Y-82380104D01*
X95080104Y-82229792D01*
X95080106Y-82229788D01*
X95080109Y-82229786D01*
X95205048Y-82057820D01*
X95205047Y-82057820D01*
X95205051Y-82057816D01*
X95301557Y-81868412D01*
X95367246Y-81666243D01*
X95400500Y-81456287D01*
X95400500Y-81243713D01*
X95367246Y-81033757D01*
X95301557Y-80831588D01*
X95205051Y-80642184D01*
X95205049Y-80642181D01*
X95205048Y-80642179D01*
X95080109Y-80470213D01*
X94929786Y-80319890D01*
X94757820Y-80194951D01*
X94757115Y-80194591D01*
X94749054Y-80190485D01*
X94698259Y-80142512D01*
X94681463Y-80074692D01*
X94703999Y-80008556D01*
X94749054Y-79969515D01*
X94757816Y-79965051D01*
X94829910Y-79912672D01*
X94929786Y-79840109D01*
X94929788Y-79840106D01*
X94929792Y-79840104D01*
X95080104Y-79689792D01*
X95080106Y-79689788D01*
X95080109Y-79689786D01*
X95205048Y-79517820D01*
X95205047Y-79517820D01*
X95205051Y-79517816D01*
X95301557Y-79328412D01*
X95367246Y-79126243D01*
X95400500Y-78916287D01*
X95400500Y-78703713D01*
X95367246Y-78493757D01*
X95301557Y-78291588D01*
X95205051Y-78102184D01*
X95205049Y-78102181D01*
X95205048Y-78102179D01*
X95080109Y-77930213D01*
X94929790Y-77779894D01*
X94929785Y-77779890D01*
X94811943Y-77694273D01*
X94769277Y-77638943D01*
X94763298Y-77569330D01*
X94795903Y-77507535D01*
X94856742Y-77473178D01*
X94883525Y-77469963D01*
X95845210Y-77459945D01*
X95912449Y-77478930D01*
X95958752Y-77531255D01*
X95970500Y-77583938D01*
X95970500Y-86525071D01*
X95991373Y-86630002D01*
X95991373Y-86630003D01*
X95995497Y-86650737D01*
X95995500Y-86650747D01*
X96044532Y-86769123D01*
X96115726Y-86875673D01*
X96115727Y-86875674D01*
X97917873Y-88677819D01*
X97951358Y-88739142D01*
X97946374Y-88808834D01*
X97904502Y-88864767D01*
X97839038Y-88889184D01*
X97830192Y-88889500D01*
X97753713Y-88889500D01*
X97705042Y-88897208D01*
X97543760Y-88922753D01*
X97341585Y-88988444D01*
X97152179Y-89084951D01*
X96980213Y-89209890D01*
X96829890Y-89360213D01*
X96704949Y-89532182D01*
X96700484Y-89540946D01*
X96652509Y-89591742D01*
X96584688Y-89608536D01*
X96518553Y-89585998D01*
X96479516Y-89540946D01*
X96475050Y-89532182D01*
X96350109Y-89360213D01*
X96199786Y-89209890D01*
X96027820Y-89084951D01*
X95838414Y-88988444D01*
X95838413Y-88988443D01*
X95838412Y-88988443D01*
X95636243Y-88922754D01*
X95636241Y-88922753D01*
X95636240Y-88922753D01*
X95474957Y-88897208D01*
X95426287Y-88889500D01*
X95213713Y-88889500D01*
X95165042Y-88897208D01*
X95003760Y-88922753D01*
X94801585Y-88988444D01*
X94612179Y-89084951D01*
X94440213Y-89209890D01*
X94289890Y-89360213D01*
X94164949Y-89532182D01*
X94160484Y-89540946D01*
X94112509Y-89591742D01*
X94044688Y-89608536D01*
X93978553Y-89585998D01*
X93939516Y-89540946D01*
X93935050Y-89532182D01*
X93810109Y-89360213D01*
X93659786Y-89209890D01*
X93487820Y-89084951D01*
X93298414Y-88988444D01*
X93298413Y-88988443D01*
X93298412Y-88988443D01*
X93096243Y-88922754D01*
X93096241Y-88922753D01*
X93096240Y-88922753D01*
X92934957Y-88897208D01*
X92886287Y-88889500D01*
X92673713Y-88889500D01*
X92625042Y-88897208D01*
X92463760Y-88922753D01*
X92261585Y-88988444D01*
X92072179Y-89084951D01*
X91900213Y-89209890D01*
X91749890Y-89360213D01*
X91624949Y-89532182D01*
X91620484Y-89540946D01*
X91572509Y-89591742D01*
X91504688Y-89608536D01*
X91438553Y-89585998D01*
X91399516Y-89540946D01*
X91395050Y-89532182D01*
X91270109Y-89360213D01*
X91119786Y-89209890D01*
X90947820Y-89084951D01*
X90758414Y-88988444D01*
X90758413Y-88988443D01*
X90758412Y-88988443D01*
X90556243Y-88922754D01*
X90556241Y-88922753D01*
X90556240Y-88922753D01*
X90394957Y-88897208D01*
X90346287Y-88889500D01*
X90133713Y-88889500D01*
X90085042Y-88897208D01*
X89923760Y-88922753D01*
X89721585Y-88988444D01*
X89532179Y-89084951D01*
X89360213Y-89209890D01*
X89209890Y-89360213D01*
X89084951Y-89532179D01*
X88988444Y-89721585D01*
X88922753Y-89923760D01*
X88889500Y-90133713D01*
X88889500Y-90346286D01*
X88922753Y-90556239D01*
X88988444Y-90758414D01*
X89084951Y-90947820D01*
X89209890Y-91119786D01*
X89360213Y-91270109D01*
X89532179Y-91395048D01*
X89532181Y-91395049D01*
X89532184Y-91395051D01*
X89721588Y-91491557D01*
X89923757Y-91557246D01*
X90133713Y-91590500D01*
X90133714Y-91590500D01*
X90346286Y-91590500D01*
X90346287Y-91590500D01*
X90556243Y-91557246D01*
X90758412Y-91491557D01*
X90947816Y-91395051D01*
X91002572Y-91355269D01*
X91119786Y-91270109D01*
X91119788Y-91270106D01*
X91119792Y-91270104D01*
X91270104Y-91119792D01*
X91270106Y-91119788D01*
X91270109Y-91119786D01*
X91395048Y-90947820D01*
X91395047Y-90947820D01*
X91395051Y-90947816D01*
X91399514Y-90939054D01*
X91447488Y-90888259D01*
X91515308Y-90871463D01*
X91581444Y-90893999D01*
X91620484Y-90939054D01*
X91624591Y-90947115D01*
X91624951Y-90947820D01*
X91749890Y-91119786D01*
X91900213Y-91270109D01*
X92072179Y-91395048D01*
X92072181Y-91395049D01*
X92072184Y-91395051D01*
X92261588Y-91491557D01*
X92463757Y-91557246D01*
X92673713Y-91590500D01*
X92673714Y-91590500D01*
X92886286Y-91590500D01*
X92886287Y-91590500D01*
X93096243Y-91557246D01*
X93298412Y-91491557D01*
X93487816Y-91395051D01*
X93542572Y-91355269D01*
X93659786Y-91270109D01*
X93659788Y-91270106D01*
X93659792Y-91270104D01*
X93810104Y-91119792D01*
X93810106Y-91119788D01*
X93810109Y-91119786D01*
X93935048Y-90947820D01*
X93935047Y-90947820D01*
X93935051Y-90947816D01*
X93939514Y-90939054D01*
X93987488Y-90888259D01*
X94055308Y-90871463D01*
X94121444Y-90893999D01*
X94160484Y-90939054D01*
X94164591Y-90947115D01*
X94164951Y-90947820D01*
X94289890Y-91119786D01*
X94440213Y-91270109D01*
X94612179Y-91395048D01*
X94612181Y-91395049D01*
X94612184Y-91395051D01*
X94801588Y-91491557D01*
X95003757Y-91557246D01*
X95213713Y-91590500D01*
X95213714Y-91590500D01*
X95426286Y-91590500D01*
X95426287Y-91590500D01*
X95636243Y-91557246D01*
X95838412Y-91491557D01*
X96027816Y-91395051D01*
X96082572Y-91355269D01*
X96199786Y-91270109D01*
X96199788Y-91270106D01*
X96199792Y-91270104D01*
X96350104Y-91119792D01*
X96350106Y-91119788D01*
X96350109Y-91119786D01*
X96475048Y-90947820D01*
X96475047Y-90947820D01*
X96475051Y-90947816D01*
X96479514Y-90939054D01*
X96527488Y-90888259D01*
X96595308Y-90871463D01*
X96661444Y-90893999D01*
X96700484Y-90939054D01*
X96704591Y-90947115D01*
X96704951Y-90947820D01*
X96829890Y-91119786D01*
X96980213Y-91270109D01*
X97152179Y-91395048D01*
X97152181Y-91395049D01*
X97152184Y-91395051D01*
X97341588Y-91491557D01*
X97543757Y-91557246D01*
X97753713Y-91590500D01*
X97753714Y-91590500D01*
X97966286Y-91590500D01*
X97966287Y-91590500D01*
X98176243Y-91557246D01*
X98378412Y-91491557D01*
X98567816Y-91395051D01*
X98622572Y-91355269D01*
X98739786Y-91270109D01*
X98739788Y-91270106D01*
X98739792Y-91270104D01*
X98890104Y-91119792D01*
X98890106Y-91119788D01*
X98890109Y-91119786D01*
X99015048Y-90947820D01*
X99015047Y-90947820D01*
X99015051Y-90947816D01*
X99019514Y-90939054D01*
X99067488Y-90888259D01*
X99135308Y-90871463D01*
X99201444Y-90893999D01*
X99240484Y-90939054D01*
X99244591Y-90947115D01*
X99244951Y-90947820D01*
X99369890Y-91119786D01*
X99520213Y-91270109D01*
X99692179Y-91395048D01*
X99692181Y-91395049D01*
X99692184Y-91395051D01*
X99881588Y-91491557D01*
X100083757Y-91557246D01*
X100293713Y-91590500D01*
X100293714Y-91590500D01*
X100506286Y-91590500D01*
X100506287Y-91590500D01*
X100716243Y-91557246D01*
X100918412Y-91491557D01*
X101107816Y-91395051D01*
X101162572Y-91355269D01*
X101279786Y-91270109D01*
X101279788Y-91270106D01*
X101279792Y-91270104D01*
X101430104Y-91119792D01*
X101430106Y-91119788D01*
X101430109Y-91119786D01*
X101555048Y-90947820D01*
X101555047Y-90947820D01*
X101555051Y-90947816D01*
X101559514Y-90939054D01*
X101607488Y-90888259D01*
X101675308Y-90871463D01*
X101741444Y-90893999D01*
X101780484Y-90939054D01*
X101784591Y-90947115D01*
X101784951Y-90947820D01*
X101909890Y-91119786D01*
X102060213Y-91270109D01*
X102232179Y-91395048D01*
X102232181Y-91395049D01*
X102232184Y-91395051D01*
X102421588Y-91491557D01*
X102623757Y-91557246D01*
X102833713Y-91590500D01*
X102833714Y-91590500D01*
X103046286Y-91590500D01*
X103046287Y-91590500D01*
X103256243Y-91557246D01*
X103458412Y-91491557D01*
X103647816Y-91395051D01*
X103702572Y-91355269D01*
X103819786Y-91270109D01*
X103819788Y-91270106D01*
X103819792Y-91270104D01*
X103970104Y-91119792D01*
X103970106Y-91119788D01*
X103970109Y-91119786D01*
X104095048Y-90947820D01*
X104095047Y-90947820D01*
X104095051Y-90947816D01*
X104099514Y-90939054D01*
X104147488Y-90888259D01*
X104215308Y-90871463D01*
X104281444Y-90893999D01*
X104320484Y-90939054D01*
X104324591Y-90947115D01*
X104324951Y-90947820D01*
X104449890Y-91119786D01*
X104600213Y-91270109D01*
X104772179Y-91395048D01*
X104772181Y-91395049D01*
X104772184Y-91395051D01*
X104961588Y-91491557D01*
X105163757Y-91557246D01*
X105373713Y-91590500D01*
X105373714Y-91590500D01*
X105586286Y-91590500D01*
X105586287Y-91590500D01*
X105796243Y-91557246D01*
X105998412Y-91491557D01*
X106187816Y-91395051D01*
X106242572Y-91355269D01*
X106359786Y-91270109D01*
X106359788Y-91270106D01*
X106359792Y-91270104D01*
X106510104Y-91119792D01*
X106510106Y-91119788D01*
X106510109Y-91119786D01*
X106635048Y-90947820D01*
X106635047Y-90947820D01*
X106635051Y-90947816D01*
X106639514Y-90939054D01*
X106687488Y-90888259D01*
X106755308Y-90871463D01*
X106821444Y-90893999D01*
X106860484Y-90939054D01*
X106864591Y-90947115D01*
X106864951Y-90947820D01*
X106989890Y-91119786D01*
X107140213Y-91270109D01*
X107312179Y-91395048D01*
X107312181Y-91395049D01*
X107312184Y-91395051D01*
X107501588Y-91491557D01*
X107703757Y-91557246D01*
X107913713Y-91590500D01*
X107913714Y-91590500D01*
X108126286Y-91590500D01*
X108126287Y-91590500D01*
X108336243Y-91557246D01*
X108538412Y-91491557D01*
X108727816Y-91395051D01*
X108782572Y-91355269D01*
X108899786Y-91270109D01*
X108899788Y-91270106D01*
X108899792Y-91270104D01*
X109050104Y-91119792D01*
X109050106Y-91119788D01*
X109050109Y-91119786D01*
X109175048Y-90947820D01*
X109175047Y-90947820D01*
X109175051Y-90947816D01*
X109179514Y-90939054D01*
X109227488Y-90888259D01*
X109295308Y-90871463D01*
X109361444Y-90893999D01*
X109400484Y-90939054D01*
X109404591Y-90947115D01*
X109404951Y-90947820D01*
X109529890Y-91119786D01*
X109680213Y-91270109D01*
X109852179Y-91395048D01*
X109852181Y-91395049D01*
X109852184Y-91395051D01*
X110041588Y-91491557D01*
X110243757Y-91557246D01*
X110453713Y-91590500D01*
X110453714Y-91590500D01*
X110666286Y-91590500D01*
X110666287Y-91590500D01*
X110876243Y-91557246D01*
X111078412Y-91491557D01*
X111267816Y-91395051D01*
X111322572Y-91355269D01*
X111439786Y-91270109D01*
X111439788Y-91270106D01*
X111439792Y-91270104D01*
X111590104Y-91119792D01*
X111590106Y-91119788D01*
X111590109Y-91119786D01*
X111715048Y-90947820D01*
X111715047Y-90947820D01*
X111715051Y-90947816D01*
X111719514Y-90939054D01*
X111767488Y-90888259D01*
X111835308Y-90871463D01*
X111901444Y-90893999D01*
X111940484Y-90939054D01*
X111944591Y-90947115D01*
X111944951Y-90947820D01*
X112069890Y-91119786D01*
X112220213Y-91270109D01*
X112392179Y-91395048D01*
X112392181Y-91395049D01*
X112392184Y-91395051D01*
X112581588Y-91491557D01*
X112783757Y-91557246D01*
X112993713Y-91590500D01*
X112993714Y-91590500D01*
X113206286Y-91590500D01*
X113206287Y-91590500D01*
X113416243Y-91557246D01*
X113618412Y-91491557D01*
X113807816Y-91395051D01*
X113862572Y-91355269D01*
X113979786Y-91270109D01*
X113979788Y-91270106D01*
X113979792Y-91270104D01*
X114130104Y-91119792D01*
X114130106Y-91119788D01*
X114130109Y-91119786D01*
X114255048Y-90947820D01*
X114255047Y-90947820D01*
X114255051Y-90947816D01*
X114259514Y-90939054D01*
X114307488Y-90888259D01*
X114375308Y-90871463D01*
X114441444Y-90893999D01*
X114480484Y-90939054D01*
X114484591Y-90947115D01*
X114484951Y-90947820D01*
X114609890Y-91119786D01*
X114760213Y-91270109D01*
X114932179Y-91395048D01*
X114932181Y-91395049D01*
X114932184Y-91395051D01*
X115121588Y-91491557D01*
X115323757Y-91557246D01*
X115533713Y-91590500D01*
X115533714Y-91590500D01*
X115746286Y-91590500D01*
X115746287Y-91590500D01*
X115956243Y-91557246D01*
X116158412Y-91491557D01*
X116347816Y-91395051D01*
X116402572Y-91355269D01*
X116519786Y-91270109D01*
X116519788Y-91270106D01*
X116519792Y-91270104D01*
X116670104Y-91119792D01*
X116670106Y-91119788D01*
X116670109Y-91119786D01*
X116795048Y-90947820D01*
X116795047Y-90947820D01*
X116795051Y-90947816D01*
X116799514Y-90939054D01*
X116847488Y-90888259D01*
X116915308Y-90871463D01*
X116981444Y-90893999D01*
X117020484Y-90939054D01*
X117024591Y-90947115D01*
X117024951Y-90947820D01*
X117149890Y-91119786D01*
X117300213Y-91270109D01*
X117472179Y-91395048D01*
X117472181Y-91395049D01*
X117472184Y-91395051D01*
X117661588Y-91491557D01*
X117863757Y-91557246D01*
X118073713Y-91590500D01*
X118073714Y-91590500D01*
X118286286Y-91590500D01*
X118286287Y-91590500D01*
X118496243Y-91557246D01*
X118698412Y-91491557D01*
X118887816Y-91395051D01*
X118942572Y-91355269D01*
X119059786Y-91270109D01*
X119059788Y-91270106D01*
X119059792Y-91270104D01*
X119210104Y-91119792D01*
X119210106Y-91119788D01*
X119210109Y-91119786D01*
X119335048Y-90947820D01*
X119335047Y-90947820D01*
X119335051Y-90947816D01*
X119339514Y-90939054D01*
X119387488Y-90888259D01*
X119455308Y-90871463D01*
X119521444Y-90893999D01*
X119560484Y-90939054D01*
X119564591Y-90947115D01*
X119564951Y-90947820D01*
X119689890Y-91119786D01*
X119840213Y-91270109D01*
X120012179Y-91395048D01*
X120012181Y-91395049D01*
X120012184Y-91395051D01*
X120201588Y-91491557D01*
X120403757Y-91557246D01*
X120613713Y-91590500D01*
X120613714Y-91590500D01*
X120826286Y-91590500D01*
X120826287Y-91590500D01*
X121036243Y-91557246D01*
X121238412Y-91491557D01*
X121427816Y-91395051D01*
X121482572Y-91355269D01*
X121599786Y-91270109D01*
X121599788Y-91270106D01*
X121599792Y-91270104D01*
X121750104Y-91119792D01*
X121750106Y-91119788D01*
X121750109Y-91119786D01*
X121875048Y-90947820D01*
X121875047Y-90947820D01*
X121875051Y-90947816D01*
X121879514Y-90939054D01*
X121927488Y-90888259D01*
X121995308Y-90871463D01*
X122061444Y-90893999D01*
X122100484Y-90939054D01*
X122104591Y-90947115D01*
X122104951Y-90947820D01*
X122229890Y-91119786D01*
X122380213Y-91270109D01*
X122552179Y-91395048D01*
X122552181Y-91395049D01*
X122552184Y-91395051D01*
X122741588Y-91491557D01*
X122943757Y-91557246D01*
X123153713Y-91590500D01*
X123153714Y-91590500D01*
X123366286Y-91590500D01*
X123366287Y-91590500D01*
X123576243Y-91557246D01*
X123778412Y-91491557D01*
X123967816Y-91395051D01*
X124022572Y-91355269D01*
X124139786Y-91270109D01*
X124139788Y-91270106D01*
X124139792Y-91270104D01*
X124290104Y-91119792D01*
X124290106Y-91119788D01*
X124290109Y-91119786D01*
X124415048Y-90947820D01*
X124415047Y-90947820D01*
X124415051Y-90947816D01*
X124419514Y-90939054D01*
X124467488Y-90888259D01*
X124535308Y-90871463D01*
X124601444Y-90893999D01*
X124640484Y-90939054D01*
X124644591Y-90947115D01*
X124644951Y-90947820D01*
X124769890Y-91119786D01*
X124920213Y-91270109D01*
X125092179Y-91395048D01*
X125092181Y-91395049D01*
X125092184Y-91395051D01*
X125281588Y-91491557D01*
X125483757Y-91557246D01*
X125693713Y-91590500D01*
X125693714Y-91590500D01*
X125906286Y-91590500D01*
X125906287Y-91590500D01*
X126116243Y-91557246D01*
X126318412Y-91491557D01*
X126507816Y-91395051D01*
X126562572Y-91355269D01*
X126679786Y-91270109D01*
X126679788Y-91270106D01*
X126679792Y-91270104D01*
X126830104Y-91119792D01*
X126830106Y-91119788D01*
X126830109Y-91119786D01*
X126955048Y-90947820D01*
X126955047Y-90947820D01*
X126955051Y-90947816D01*
X126959514Y-90939054D01*
X127007488Y-90888259D01*
X127075308Y-90871463D01*
X127141444Y-90893999D01*
X127180484Y-90939054D01*
X127184591Y-90947115D01*
X127184951Y-90947820D01*
X127309890Y-91119786D01*
X127460213Y-91270109D01*
X127632179Y-91395048D01*
X127632181Y-91395049D01*
X127632184Y-91395051D01*
X127821588Y-91491557D01*
X128023757Y-91557246D01*
X128233713Y-91590500D01*
X128233714Y-91590500D01*
X128446286Y-91590500D01*
X128446287Y-91590500D01*
X128656243Y-91557246D01*
X128858412Y-91491557D01*
X129047816Y-91395051D01*
X129102572Y-91355269D01*
X129219786Y-91270109D01*
X129219788Y-91270106D01*
X129219792Y-91270104D01*
X129370104Y-91119792D01*
X129370106Y-91119788D01*
X129370109Y-91119786D01*
X129495048Y-90947820D01*
X129495047Y-90947820D01*
X129495051Y-90947816D01*
X129499514Y-90939054D01*
X129547488Y-90888259D01*
X129615308Y-90871463D01*
X129681444Y-90893999D01*
X129720484Y-90939054D01*
X129724591Y-90947115D01*
X129724951Y-90947820D01*
X129849890Y-91119786D01*
X130000213Y-91270109D01*
X130172179Y-91395048D01*
X130172181Y-91395049D01*
X130172184Y-91395051D01*
X130361588Y-91491557D01*
X130563757Y-91557246D01*
X130773713Y-91590500D01*
X130773714Y-91590500D01*
X130986286Y-91590500D01*
X130986287Y-91590500D01*
X131196243Y-91557246D01*
X131398412Y-91491557D01*
X131587816Y-91395051D01*
X131642572Y-91355269D01*
X131759786Y-91270109D01*
X131759788Y-91270106D01*
X131759792Y-91270104D01*
X131910104Y-91119792D01*
X131910106Y-91119788D01*
X131910109Y-91119786D01*
X131995890Y-91001717D01*
X132035051Y-90947816D01*
X132039793Y-90938508D01*
X132087763Y-90887711D01*
X132155583Y-90870911D01*
X132221719Y-90893445D01*
X132260763Y-90938500D01*
X132265373Y-90947547D01*
X132304728Y-91001716D01*
X132937037Y-90369408D01*
X132954075Y-90432993D01*
X133019901Y-90547007D01*
X133112993Y-90640099D01*
X133227007Y-90705925D01*
X133290590Y-90722962D01*
X132658282Y-91355269D01*
X132658282Y-91355270D01*
X132712449Y-91394624D01*
X132901782Y-91491095D01*
X133103870Y-91556757D01*
X133313754Y-91590000D01*
X133526246Y-91590000D01*
X133736127Y-91556757D01*
X133736130Y-91556757D01*
X133938217Y-91491095D01*
X134127554Y-91394622D01*
X134181716Y-91355270D01*
X134181717Y-91355270D01*
X133549408Y-90722962D01*
X133612993Y-90705925D01*
X133727007Y-90640099D01*
X133820099Y-90547007D01*
X133885925Y-90432993D01*
X133902962Y-90369409D01*
X134535270Y-91001717D01*
X134535270Y-91001716D01*
X134574622Y-90947555D01*
X134579232Y-90938507D01*
X134627205Y-90887709D01*
X134695025Y-90870912D01*
X134761161Y-90893447D01*
X134800204Y-90938504D01*
X134804949Y-90947817D01*
X134929890Y-91119786D01*
X135080213Y-91270109D01*
X135252179Y-91395048D01*
X135252181Y-91395049D01*
X135252184Y-91395051D01*
X135441588Y-91491557D01*
X135643757Y-91557246D01*
X135853713Y-91590500D01*
X135853714Y-91590500D01*
X136066286Y-91590500D01*
X136066287Y-91590500D01*
X136276243Y-91557246D01*
X136478412Y-91491557D01*
X136667816Y-91395051D01*
X136722572Y-91355269D01*
X136839786Y-91270109D01*
X136839788Y-91270106D01*
X136839792Y-91270104D01*
X136990104Y-91119792D01*
X136990106Y-91119788D01*
X136990109Y-91119786D01*
X137115048Y-90947820D01*
X137115047Y-90947820D01*
X137115051Y-90947816D01*
X137119514Y-90939054D01*
X137167488Y-90888259D01*
X137235308Y-90871463D01*
X137301444Y-90893999D01*
X137340484Y-90939054D01*
X137344591Y-90947115D01*
X137344951Y-90947820D01*
X137469890Y-91119786D01*
X137620213Y-91270109D01*
X137792179Y-91395048D01*
X137792181Y-91395049D01*
X137792184Y-91395051D01*
X137981588Y-91491557D01*
X138183757Y-91557246D01*
X138393713Y-91590500D01*
X138393714Y-91590500D01*
X138606286Y-91590500D01*
X138606287Y-91590500D01*
X138701728Y-91575383D01*
X138771021Y-91584337D01*
X138808807Y-91610175D01*
X141819086Y-94620454D01*
X141848558Y-94640145D01*
X141892770Y-94669686D01*
X141942005Y-94702584D01*
X141942006Y-94702584D01*
X141942007Y-94702585D01*
X141942009Y-94702586D01*
X142078582Y-94759156D01*
X142078587Y-94759158D01*
X142078591Y-94759158D01*
X142078592Y-94759159D01*
X142223579Y-94788000D01*
X142223582Y-94788000D01*
X142223583Y-94788000D01*
X142328752Y-94788000D01*
X142395791Y-94807685D01*
X142426531Y-94838997D01*
X142427807Y-94837989D01*
X142432288Y-94843656D01*
X142556344Y-94967712D01*
X142705666Y-95059814D01*
X142872203Y-95114999D01*
X142974991Y-95125500D01*
X144025008Y-95125499D01*
X144025016Y-95125498D01*
X144025019Y-95125498D01*
X144081302Y-95119748D01*
X144127797Y-95114999D01*
X144294334Y-95059814D01*
X144443656Y-94967712D01*
X144567712Y-94843656D01*
X144567715Y-94843650D01*
X144572193Y-94837989D01*
X144574015Y-94839430D01*
X144617665Y-94800175D01*
X144671248Y-94788000D01*
X144927230Y-94788000D01*
X144994269Y-94807685D01*
X144996122Y-94808899D01*
X145035947Y-94835510D01*
X145035950Y-94835511D01*
X145035953Y-94835513D01*
X145199834Y-94903394D01*
X145199836Y-94903394D01*
X145199841Y-94903396D01*
X145373804Y-94937999D01*
X145373807Y-94938000D01*
X145373809Y-94938000D01*
X145551193Y-94938000D01*
X145551194Y-94937999D01*
X145609182Y-94926464D01*
X145725158Y-94903396D01*
X145725161Y-94903394D01*
X145725166Y-94903394D01*
X145869388Y-94843656D01*
X145889040Y-94835516D01*
X145889040Y-94835515D01*
X145889047Y-94835513D01*
X146036535Y-94736964D01*
X146161964Y-94611535D01*
X146260513Y-94464047D01*
X146328394Y-94300166D01*
X146363000Y-94126191D01*
X146363000Y-93948809D01*
X146363000Y-93948806D01*
X146362999Y-93948804D01*
X146328396Y-93774841D01*
X146328393Y-93774832D01*
X146260516Y-93610959D01*
X146260509Y-93610946D01*
X146161964Y-93463465D01*
X146161961Y-93463461D01*
X146036538Y-93338038D01*
X146036534Y-93338035D01*
X145889053Y-93239490D01*
X145889040Y-93239483D01*
X145725167Y-93171606D01*
X145725158Y-93171603D01*
X145551194Y-93137000D01*
X145551191Y-93137000D01*
X145373809Y-93137000D01*
X145373806Y-93137000D01*
X145199841Y-93171603D01*
X145199832Y-93171606D01*
X145035952Y-93239487D01*
X145035947Y-93239489D01*
X144996122Y-93266101D01*
X144929445Y-93286980D01*
X144927230Y-93287000D01*
X144671248Y-93287000D01*
X144604209Y-93267315D01*
X144584239Y-93251348D01*
X144573569Y-93240839D01*
X144567712Y-93231344D01*
X144443656Y-93107288D01*
X144428416Y-93097888D01*
X144418431Y-93088054D01*
X144407990Y-93069276D01*
X144393618Y-93053297D01*
X144391347Y-93039342D01*
X144384479Y-93026989D01*
X144385848Y-93005541D01*
X144382397Y-92984334D01*
X144388030Y-92971368D01*
X144388931Y-92957261D01*
X144401677Y-92939959D01*
X144410240Y-92920252D01*
X144426708Y-92905982D01*
X144430373Y-92901009D01*
X144434083Y-92899592D01*
X144440348Y-92894165D01*
X144443342Y-92892318D01*
X144567315Y-92768345D01*
X144659356Y-92619124D01*
X144659358Y-92619119D01*
X144714505Y-92452697D01*
X144714506Y-92452690D01*
X144724999Y-92349986D01*
X144725000Y-92349973D01*
X144725000Y-92212500D01*
X142275001Y-92212500D01*
X142275001Y-92349986D01*
X142285494Y-92452697D01*
X142340641Y-92619119D01*
X142340643Y-92619124D01*
X142427811Y-92760445D01*
X142446251Y-92827838D01*
X142425328Y-92894501D01*
X142371686Y-92939271D01*
X142302356Y-92947932D01*
X142239348Y-92917735D01*
X142234591Y-92913223D01*
X140896381Y-91575013D01*
X142275000Y-91575013D01*
X142275000Y-91712500D01*
X143250000Y-91712500D01*
X143750000Y-91712500D01*
X144724999Y-91712500D01*
X144724999Y-91575028D01*
X144724998Y-91575013D01*
X144714505Y-91472302D01*
X144659358Y-91305880D01*
X144659356Y-91305875D01*
X144567315Y-91156654D01*
X144443345Y-91032684D01*
X144294124Y-90940643D01*
X144294119Y-90940641D01*
X144127697Y-90885494D01*
X144127690Y-90885493D01*
X144024986Y-90875000D01*
X143750000Y-90875000D01*
X143750000Y-91712500D01*
X143250000Y-91712500D01*
X143250000Y-90875000D01*
X142975029Y-90875000D01*
X142975012Y-90875001D01*
X142872302Y-90885494D01*
X142705880Y-90940641D01*
X142705875Y-90940643D01*
X142556654Y-91032684D01*
X142432684Y-91156654D01*
X142340643Y-91305875D01*
X142340641Y-91305880D01*
X142285494Y-91472302D01*
X142285493Y-91472309D01*
X142275000Y-91575013D01*
X140896381Y-91575013D01*
X139870175Y-90548807D01*
X139836690Y-90487484D01*
X139835383Y-90441728D01*
X139850500Y-90346285D01*
X139850500Y-90133713D01*
X139836767Y-90047007D01*
X139817246Y-89923757D01*
X139751557Y-89721588D01*
X139655051Y-89532184D01*
X139655049Y-89532181D01*
X139655048Y-89532179D01*
X139530109Y-89360213D01*
X139379786Y-89209890D01*
X139207820Y-89084951D01*
X139018414Y-88988444D01*
X139018413Y-88988443D01*
X139018412Y-88988443D01*
X138816243Y-88922754D01*
X138816241Y-88922753D01*
X138816240Y-88922753D01*
X138654957Y-88897208D01*
X138606287Y-88889500D01*
X138393713Y-88889500D01*
X138345042Y-88897208D01*
X138183760Y-88922753D01*
X137981585Y-88988444D01*
X137792179Y-89084951D01*
X137620213Y-89209890D01*
X137469890Y-89360213D01*
X137344949Y-89532182D01*
X137340484Y-89540946D01*
X137292509Y-89591742D01*
X137224688Y-89608536D01*
X137158553Y-89585998D01*
X137119516Y-89540946D01*
X137115050Y-89532182D01*
X136990109Y-89360213D01*
X136839786Y-89209890D01*
X136667820Y-89084951D01*
X136478414Y-88988444D01*
X136478413Y-88988443D01*
X136478412Y-88988443D01*
X136276243Y-88922754D01*
X136276241Y-88922753D01*
X136276240Y-88922753D01*
X136114957Y-88897208D01*
X136066287Y-88889500D01*
X135853713Y-88889500D01*
X135805042Y-88897208D01*
X135643760Y-88922753D01*
X135441585Y-88988444D01*
X135252179Y-89084951D01*
X135080213Y-89209890D01*
X134929890Y-89360213D01*
X134804949Y-89532182D01*
X134800202Y-89541499D01*
X134752227Y-89592293D01*
X134684405Y-89609087D01*
X134618271Y-89586548D01*
X134579234Y-89541495D01*
X134574626Y-89532452D01*
X134535270Y-89478282D01*
X134535269Y-89478282D01*
X133902962Y-90110590D01*
X133885925Y-90047007D01*
X133820099Y-89932993D01*
X133727007Y-89839901D01*
X133612993Y-89774075D01*
X133549409Y-89757037D01*
X134181716Y-89124728D01*
X134127550Y-89085375D01*
X133938217Y-88988904D01*
X133736129Y-88923242D01*
X133526246Y-88890000D01*
X133313754Y-88890000D01*
X133103872Y-88923242D01*
X133103869Y-88923242D01*
X132901782Y-88988904D01*
X132712439Y-89085380D01*
X132658282Y-89124727D01*
X132658282Y-89124728D01*
X133290591Y-89757037D01*
X133227007Y-89774075D01*
X133112993Y-89839901D01*
X133019901Y-89932993D01*
X132954075Y-90047007D01*
X132937037Y-90110591D01*
X132304728Y-89478282D01*
X132304727Y-89478282D01*
X132265380Y-89532440D01*
X132265376Y-89532446D01*
X132260760Y-89541505D01*
X132212781Y-89592297D01*
X132144959Y-89609087D01*
X132078826Y-89586543D01*
X132039794Y-89541493D01*
X132035051Y-89532184D01*
X132035049Y-89532181D01*
X132035048Y-89532179D01*
X131910109Y-89360213D01*
X131759786Y-89209890D01*
X131587820Y-89084951D01*
X131398414Y-88988444D01*
X131398413Y-88988443D01*
X131398412Y-88988443D01*
X131196243Y-88922754D01*
X131196241Y-88922753D01*
X131196240Y-88922753D01*
X131034957Y-88897208D01*
X130986287Y-88889500D01*
X130773713Y-88889500D01*
X130725042Y-88897208D01*
X130563760Y-88922753D01*
X130361585Y-88988444D01*
X130172179Y-89084951D01*
X130000213Y-89209890D01*
X129849890Y-89360213D01*
X129724949Y-89532182D01*
X129720484Y-89540946D01*
X129672509Y-89591742D01*
X129604688Y-89608536D01*
X129538553Y-89585998D01*
X129499516Y-89540946D01*
X129495050Y-89532182D01*
X129370109Y-89360213D01*
X129219786Y-89209890D01*
X129047820Y-89084951D01*
X128858414Y-88988444D01*
X128858413Y-88988443D01*
X128858412Y-88988443D01*
X128656243Y-88922754D01*
X128656241Y-88922753D01*
X128656240Y-88922753D01*
X128494957Y-88897208D01*
X128446287Y-88889500D01*
X128233713Y-88889500D01*
X128185042Y-88897208D01*
X128023760Y-88922753D01*
X127821585Y-88988444D01*
X127632179Y-89084951D01*
X127460213Y-89209890D01*
X127309890Y-89360213D01*
X127184949Y-89532182D01*
X127180484Y-89540946D01*
X127132509Y-89591742D01*
X127064688Y-89608536D01*
X126998553Y-89585998D01*
X126959516Y-89540946D01*
X126955050Y-89532182D01*
X126830109Y-89360213D01*
X126679786Y-89209890D01*
X126507820Y-89084951D01*
X126318414Y-88988444D01*
X126318413Y-88988443D01*
X126318412Y-88988443D01*
X126116243Y-88922754D01*
X126116241Y-88922753D01*
X126116240Y-88922753D01*
X125954957Y-88897208D01*
X125906287Y-88889500D01*
X125693713Y-88889500D01*
X125645042Y-88897208D01*
X125483760Y-88922753D01*
X125281585Y-88988444D01*
X125092179Y-89084951D01*
X124920213Y-89209890D01*
X124769890Y-89360213D01*
X124644949Y-89532182D01*
X124640484Y-89540946D01*
X124592509Y-89591742D01*
X124524688Y-89608536D01*
X124458553Y-89585998D01*
X124419516Y-89540946D01*
X124415050Y-89532182D01*
X124290109Y-89360213D01*
X124139786Y-89209890D01*
X123967820Y-89084951D01*
X123778414Y-88988444D01*
X123778413Y-88988443D01*
X123778412Y-88988443D01*
X123576243Y-88922754D01*
X123576241Y-88922753D01*
X123576240Y-88922753D01*
X123414957Y-88897208D01*
X123366287Y-88889500D01*
X123153713Y-88889500D01*
X123105042Y-88897208D01*
X122943760Y-88922753D01*
X122741585Y-88988444D01*
X122552179Y-89084951D01*
X122380213Y-89209890D01*
X122229890Y-89360213D01*
X122104949Y-89532182D01*
X122100484Y-89540946D01*
X122052509Y-89591742D01*
X121984688Y-89608536D01*
X121918553Y-89585998D01*
X121879516Y-89540946D01*
X121875050Y-89532182D01*
X121750109Y-89360213D01*
X121599786Y-89209890D01*
X121427820Y-89084951D01*
X121238414Y-88988444D01*
X121238413Y-88988443D01*
X121238412Y-88988443D01*
X121036243Y-88922754D01*
X121036241Y-88922753D01*
X121036240Y-88922753D01*
X120874957Y-88897208D01*
X120826287Y-88889500D01*
X120613713Y-88889500D01*
X120565042Y-88897208D01*
X120403760Y-88922753D01*
X120201585Y-88988444D01*
X120012179Y-89084951D01*
X119840213Y-89209890D01*
X119689890Y-89360213D01*
X119564949Y-89532182D01*
X119560484Y-89540946D01*
X119512509Y-89591742D01*
X119444688Y-89608536D01*
X119378553Y-89585998D01*
X119339516Y-89540946D01*
X119335050Y-89532182D01*
X119210109Y-89360213D01*
X119059786Y-89209890D01*
X118887820Y-89084951D01*
X118698414Y-88988444D01*
X118698413Y-88988443D01*
X118698412Y-88988443D01*
X118496243Y-88922754D01*
X118496241Y-88922753D01*
X118496240Y-88922753D01*
X118334957Y-88897208D01*
X118286287Y-88889500D01*
X118073713Y-88889500D01*
X118025042Y-88897208D01*
X117863760Y-88922753D01*
X117661585Y-88988444D01*
X117472179Y-89084951D01*
X117300213Y-89209890D01*
X117149890Y-89360213D01*
X117024949Y-89532182D01*
X117020484Y-89540946D01*
X116972509Y-89591742D01*
X116904688Y-89608536D01*
X116838553Y-89585998D01*
X116799516Y-89540946D01*
X116795050Y-89532182D01*
X116670109Y-89360213D01*
X116519786Y-89209890D01*
X116347820Y-89084951D01*
X116158414Y-88988444D01*
X116158413Y-88988443D01*
X116158412Y-88988443D01*
X115956243Y-88922754D01*
X115956241Y-88922753D01*
X115956240Y-88922753D01*
X115794957Y-88897208D01*
X115746287Y-88889500D01*
X115533713Y-88889500D01*
X115485042Y-88897208D01*
X115323760Y-88922753D01*
X115121585Y-88988444D01*
X114932179Y-89084951D01*
X114760213Y-89209890D01*
X114609890Y-89360213D01*
X114484949Y-89532182D01*
X114480484Y-89540946D01*
X114432509Y-89591742D01*
X114364688Y-89608536D01*
X114298553Y-89585998D01*
X114259516Y-89540946D01*
X114255050Y-89532182D01*
X114130109Y-89360213D01*
X113979786Y-89209890D01*
X113807820Y-89084951D01*
X113618414Y-88988444D01*
X113618413Y-88988443D01*
X113618412Y-88988443D01*
X113416243Y-88922754D01*
X113416241Y-88922753D01*
X113416240Y-88922753D01*
X113254957Y-88897208D01*
X113206287Y-88889500D01*
X112993713Y-88889500D01*
X112945042Y-88897208D01*
X112783760Y-88922753D01*
X112581585Y-88988444D01*
X112392179Y-89084951D01*
X112220213Y-89209890D01*
X112069890Y-89360213D01*
X111944949Y-89532182D01*
X111940484Y-89540946D01*
X111892509Y-89591742D01*
X111824688Y-89608536D01*
X111758553Y-89585998D01*
X111719516Y-89540946D01*
X111715050Y-89532182D01*
X111590109Y-89360213D01*
X111439786Y-89209890D01*
X111267820Y-89084951D01*
X111078414Y-88988444D01*
X111078413Y-88988443D01*
X111078412Y-88988443D01*
X110876243Y-88922754D01*
X110876241Y-88922753D01*
X110876240Y-88922753D01*
X110714957Y-88897208D01*
X110666287Y-88889500D01*
X110453713Y-88889500D01*
X110405042Y-88897208D01*
X110243760Y-88922753D01*
X110041585Y-88988444D01*
X109852179Y-89084951D01*
X109680213Y-89209890D01*
X109529890Y-89360213D01*
X109404949Y-89532182D01*
X109400484Y-89540946D01*
X109352509Y-89591742D01*
X109284688Y-89608536D01*
X109218553Y-89585998D01*
X109179516Y-89540946D01*
X109175050Y-89532182D01*
X109050109Y-89360213D01*
X108899786Y-89209890D01*
X108727820Y-89084951D01*
X108538414Y-88988444D01*
X108538413Y-88988443D01*
X108538412Y-88988443D01*
X108336243Y-88922754D01*
X108336241Y-88922753D01*
X108336240Y-88922753D01*
X108174957Y-88897208D01*
X108126287Y-88889500D01*
X107913713Y-88889500D01*
X107865042Y-88897208D01*
X107703760Y-88922753D01*
X107501585Y-88988444D01*
X107312179Y-89084951D01*
X107140213Y-89209890D01*
X106989890Y-89360213D01*
X106864949Y-89532182D01*
X106860484Y-89540946D01*
X106812509Y-89591742D01*
X106744688Y-89608536D01*
X106678553Y-89585998D01*
X106639516Y-89540946D01*
X106635050Y-89532182D01*
X106510109Y-89360213D01*
X106359786Y-89209890D01*
X106187820Y-89084951D01*
X105998414Y-88988444D01*
X105998413Y-88988443D01*
X105998412Y-88988443D01*
X105796243Y-88922754D01*
X105796241Y-88922753D01*
X105796240Y-88922753D01*
X105634957Y-88897208D01*
X105586287Y-88889500D01*
X105373713Y-88889500D01*
X105325042Y-88897208D01*
X105163760Y-88922753D01*
X104961585Y-88988444D01*
X104772179Y-89084951D01*
X104600213Y-89209890D01*
X104449890Y-89360213D01*
X104324949Y-89532182D01*
X104320484Y-89540946D01*
X104272509Y-89591742D01*
X104204688Y-89608536D01*
X104138553Y-89585998D01*
X104099516Y-89540946D01*
X104095050Y-89532182D01*
X103970109Y-89360213D01*
X103819786Y-89209890D01*
X103647820Y-89084951D01*
X103458414Y-88988444D01*
X103458413Y-88988443D01*
X103458412Y-88988443D01*
X103256243Y-88922754D01*
X103256241Y-88922753D01*
X103256240Y-88922753D01*
X103094957Y-88897208D01*
X103046287Y-88889500D01*
X102833713Y-88889500D01*
X102723888Y-88906894D01*
X102618945Y-88923516D01*
X102618686Y-88921882D01*
X102556094Y-88918730D01*
X102509288Y-88889342D01*
X99747819Y-86127873D01*
X99733115Y-86100945D01*
X99716523Y-86075127D01*
X99715631Y-86068926D01*
X99714334Y-86066550D01*
X99711500Y-86040192D01*
X99711500Y-85874038D01*
X143399500Y-85874038D01*
X143399500Y-86125961D01*
X143438910Y-86374785D01*
X143516760Y-86614383D01*
X143578377Y-86735311D01*
X143612074Y-86801446D01*
X143631132Y-86838848D01*
X143779201Y-87042649D01*
X143779205Y-87042654D01*
X143957345Y-87220794D01*
X143957350Y-87220798D01*
X144079841Y-87309792D01*
X144161155Y-87368870D01*
X144304184Y-87441747D01*
X144385616Y-87483239D01*
X144385618Y-87483239D01*
X144385621Y-87483241D01*
X144625215Y-87561090D01*
X144874038Y-87600500D01*
X144874039Y-87600500D01*
X145125961Y-87600500D01*
X145125962Y-87600500D01*
X145374785Y-87561090D01*
X145614379Y-87483241D01*
X145838845Y-87368870D01*
X146042656Y-87220793D01*
X146220793Y-87042656D01*
X146368870Y-86838845D01*
X146483241Y-86614379D01*
X146561090Y-86374785D01*
X146600500Y-86125962D01*
X146600500Y-85874038D01*
X146561090Y-85625215D01*
X146483241Y-85385621D01*
X146483239Y-85385618D01*
X146483239Y-85385616D01*
X146424576Y-85270484D01*
X146368870Y-85161155D01*
X146287760Y-85049516D01*
X146220798Y-84957350D01*
X146220794Y-84957345D01*
X146042654Y-84779205D01*
X146042649Y-84779201D01*
X145838848Y-84631132D01*
X145838847Y-84631131D01*
X145838845Y-84631130D01*
X145768747Y-84595413D01*
X145614383Y-84516760D01*
X145374785Y-84438910D01*
X145182242Y-84408414D01*
X145125962Y-84399500D01*
X144874038Y-84399500D01*
X144817758Y-84408414D01*
X144625214Y-84438910D01*
X144385616Y-84516760D01*
X144161151Y-84631132D01*
X143957350Y-84779201D01*
X143957345Y-84779205D01*
X143779205Y-84957345D01*
X143779201Y-84957350D01*
X143631132Y-85161151D01*
X143516760Y-85385616D01*
X143438910Y-85625214D01*
X143399500Y-85874038D01*
X99711500Y-85874038D01*
X99711500Y-81399986D01*
X143300001Y-81399986D01*
X143310494Y-81502697D01*
X143365641Y-81669119D01*
X143365643Y-81669124D01*
X143457684Y-81818345D01*
X143581654Y-81942315D01*
X143730875Y-82034356D01*
X143730880Y-82034358D01*
X143897302Y-82089505D01*
X143897309Y-82089506D01*
X144000019Y-82099999D01*
X144249999Y-82099999D01*
X144750000Y-82099999D01*
X144999972Y-82099999D01*
X144999986Y-82099998D01*
X145102697Y-82089505D01*
X145269119Y-82034358D01*
X145269124Y-82034356D01*
X145418345Y-81942315D01*
X145542315Y-81818345D01*
X145634356Y-81669124D01*
X145634358Y-81669119D01*
X145689505Y-81502697D01*
X145689506Y-81502690D01*
X145699999Y-81399986D01*
X145700000Y-81399973D01*
X145700000Y-81250000D01*
X144750000Y-81250000D01*
X144750000Y-82099999D01*
X144249999Y-82099999D01*
X144250000Y-82099998D01*
X144250000Y-81250000D01*
X143300001Y-81250000D01*
X143300001Y-81399986D01*
X99711500Y-81399986D01*
X99711500Y-77542385D01*
X99731185Y-77475346D01*
X99783989Y-77429591D01*
X99834200Y-77418393D01*
X104338866Y-77371470D01*
X104406103Y-77390454D01*
X104427835Y-77407781D01*
X106525324Y-79505271D01*
X106525331Y-79505277D01*
X106631871Y-79576464D01*
X106631870Y-79576464D01*
X106666544Y-79590826D01*
X106750256Y-79625501D01*
X106750260Y-79625501D01*
X106750261Y-79625502D01*
X106875928Y-79650500D01*
X106875931Y-79650500D01*
X143284362Y-79650500D01*
X143351401Y-79670185D01*
X143389899Y-79709401D01*
X143457287Y-79818654D01*
X143457289Y-79818657D01*
X143551304Y-79912672D01*
X143584789Y-79973995D01*
X143579805Y-80043687D01*
X143551305Y-80088034D01*
X143457682Y-80181657D01*
X143365643Y-80330875D01*
X143365641Y-80330880D01*
X143310494Y-80497302D01*
X143310493Y-80497309D01*
X143300000Y-80600013D01*
X143300000Y-80750000D01*
X145699999Y-80750000D01*
X145699999Y-80600028D01*
X145699998Y-80600013D01*
X145689505Y-80497302D01*
X145634358Y-80330880D01*
X145634356Y-80330875D01*
X145542315Y-80181654D01*
X145448695Y-80088034D01*
X145415210Y-80026711D01*
X145420194Y-79957019D01*
X145448691Y-79912676D01*
X145542712Y-79818656D01*
X145610099Y-79709402D01*
X145662047Y-79662679D01*
X145715638Y-79650500D01*
X148252412Y-79650500D01*
X148319451Y-79670185D01*
X148365206Y-79722989D01*
X148375150Y-79792147D01*
X148362896Y-79830796D01*
X148329996Y-79895362D01*
X148329993Y-79895370D01*
X148268587Y-80084362D01*
X148237500Y-80280639D01*
X148237500Y-80479360D01*
X148268587Y-80675637D01*
X148329993Y-80864629D01*
X148329994Y-80864632D01*
X148416169Y-81033757D01*
X148420213Y-81041694D01*
X148537019Y-81202464D01*
X148677536Y-81342981D01*
X148838306Y-81459787D01*
X148956832Y-81520179D01*
X148994780Y-81539515D01*
X149045576Y-81587490D01*
X149062371Y-81655311D01*
X149039833Y-81721446D01*
X148994780Y-81760485D01*
X148838305Y-81840213D01*
X148677533Y-81957021D01*
X148537021Y-82097533D01*
X148420213Y-82258305D01*
X148329994Y-82435367D01*
X148329993Y-82435370D01*
X148268587Y-82624362D01*
X148237500Y-82820639D01*
X148237500Y-83019360D01*
X148268587Y-83215637D01*
X148329993Y-83404629D01*
X148329994Y-83404632D01*
X148416169Y-83573757D01*
X148420213Y-83581694D01*
X148537019Y-83742464D01*
X148677536Y-83882981D01*
X148838306Y-83999787D01*
X148956832Y-84060179D01*
X148994780Y-84079515D01*
X149045576Y-84127490D01*
X149062371Y-84195311D01*
X149039833Y-84261446D01*
X148994780Y-84300485D01*
X148838305Y-84380213D01*
X148677533Y-84497021D01*
X148537021Y-84637533D01*
X148420213Y-84798305D01*
X148329994Y-84975367D01*
X148329993Y-84975370D01*
X148268587Y-85164362D01*
X148237500Y-85360639D01*
X148237500Y-85559360D01*
X148268587Y-85755637D01*
X148329993Y-85944629D01*
X148329994Y-85944632D01*
X148393326Y-86068926D01*
X148420213Y-86121694D01*
X148537019Y-86282464D01*
X148677536Y-86422981D01*
X148838306Y-86539787D01*
X148956832Y-86600179D01*
X148994780Y-86619515D01*
X149045576Y-86667490D01*
X149062371Y-86735311D01*
X149039833Y-86801446D01*
X148994780Y-86840485D01*
X148838305Y-86920213D01*
X148677533Y-87037021D01*
X148537021Y-87177533D01*
X148420213Y-87338305D01*
X148329994Y-87515367D01*
X148329993Y-87515370D01*
X148268587Y-87704362D01*
X148237500Y-87900639D01*
X148237500Y-88099360D01*
X148268587Y-88295637D01*
X148329993Y-88484629D01*
X148329994Y-88484632D01*
X148420213Y-88661694D01*
X148537019Y-88822464D01*
X148677536Y-88962981D01*
X148838306Y-89079787D01*
X148925149Y-89124035D01*
X149015367Y-89170005D01*
X149015370Y-89170006D01*
X149109866Y-89200709D01*
X149204364Y-89231413D01*
X149400639Y-89262500D01*
X149400640Y-89262500D01*
X149599360Y-89262500D01*
X149599361Y-89262500D01*
X149795636Y-89231413D01*
X149984632Y-89170005D01*
X150161694Y-89079787D01*
X150322464Y-88962981D01*
X150462981Y-88822464D01*
X150579787Y-88661694D01*
X150670005Y-88484632D01*
X150731413Y-88295636D01*
X150762500Y-88099361D01*
X150762500Y-87900639D01*
X150731413Y-87704364D01*
X150670005Y-87515368D01*
X150670005Y-87515367D01*
X150595360Y-87368870D01*
X150579787Y-87338306D01*
X150462981Y-87177536D01*
X150322464Y-87037019D01*
X150161694Y-86920213D01*
X150005218Y-86840484D01*
X149954423Y-86792510D01*
X149937628Y-86724689D01*
X149960165Y-86658554D01*
X150005218Y-86619515D01*
X150161694Y-86539787D01*
X150322464Y-86422981D01*
X150462981Y-86282464D01*
X150579787Y-86121694D01*
X150670005Y-85944632D01*
X150731413Y-85755636D01*
X150762500Y-85559361D01*
X150762500Y-85360639D01*
X150731413Y-85164364D01*
X150670005Y-84975368D01*
X150670005Y-84975367D01*
X150579786Y-84798305D01*
X150462981Y-84637536D01*
X150322464Y-84497019D01*
X150161694Y-84380213D01*
X150005218Y-84300484D01*
X149954423Y-84252510D01*
X149937628Y-84184689D01*
X149960165Y-84118554D01*
X150005218Y-84079515D01*
X150161694Y-83999787D01*
X150322464Y-83882981D01*
X150462981Y-83742464D01*
X150579787Y-83581694D01*
X150670005Y-83404632D01*
X150731413Y-83215636D01*
X150762500Y-83019361D01*
X150762500Y-82820639D01*
X150731413Y-82624364D01*
X150670005Y-82435368D01*
X150670005Y-82435367D01*
X150579786Y-82258305D01*
X150464770Y-82099999D01*
X150462981Y-82097536D01*
X150322464Y-81957019D01*
X150161694Y-81840213D01*
X150005218Y-81760484D01*
X149954423Y-81712510D01*
X149937628Y-81644689D01*
X149960165Y-81578554D01*
X150005218Y-81539515D01*
X150161694Y-81459787D01*
X150322464Y-81342981D01*
X150462981Y-81202464D01*
X150579787Y-81041694D01*
X150670005Y-80864632D01*
X150731413Y-80675636D01*
X150762500Y-80479361D01*
X150762500Y-80280639D01*
X150731413Y-80084364D01*
X150692645Y-79965048D01*
X150670006Y-79895370D01*
X150670005Y-79895367D01*
X150579786Y-79718305D01*
X150462981Y-79557536D01*
X150322464Y-79417019D01*
X150161694Y-79300213D01*
X150005218Y-79220484D01*
X149954423Y-79172510D01*
X149937628Y-79104689D01*
X149960165Y-79038554D01*
X150005218Y-78999515D01*
X150161694Y-78919787D01*
X150322464Y-78802981D01*
X150462981Y-78662464D01*
X150579787Y-78501694D01*
X150670005Y-78324632D01*
X150731413Y-78135636D01*
X150762500Y-77939361D01*
X150762500Y-77740639D01*
X150731413Y-77544364D01*
X150670005Y-77355368D01*
X150670005Y-77355367D01*
X150579786Y-77178305D01*
X150573112Y-77169119D01*
X150462981Y-77017536D01*
X150322464Y-76877019D01*
X150161694Y-76760213D01*
X150005218Y-76680484D01*
X149954423Y-76632510D01*
X149937628Y-76564689D01*
X149960165Y-76498554D01*
X150005218Y-76459515D01*
X150161694Y-76379787D01*
X150322464Y-76262981D01*
X150462981Y-76122464D01*
X150579787Y-75961694D01*
X150670005Y-75784632D01*
X150731413Y-75595636D01*
X150762500Y-75399361D01*
X150762500Y-75200639D01*
X150731413Y-75004364D01*
X150695461Y-74893713D01*
X150670006Y-74815370D01*
X150670005Y-74815367D01*
X150624035Y-74725149D01*
X150579787Y-74638306D01*
X150462981Y-74477536D01*
X150322464Y-74337019D01*
X150161694Y-74220213D01*
X150005218Y-74140484D01*
X149954423Y-74092510D01*
X149937628Y-74024689D01*
X149960165Y-73958554D01*
X150005218Y-73919515D01*
X150161694Y-73839787D01*
X150322464Y-73722981D01*
X150462981Y-73582464D01*
X150579787Y-73421694D01*
X150670005Y-73244632D01*
X150731413Y-73055636D01*
X150762500Y-72859361D01*
X150762500Y-72660639D01*
X150731413Y-72464364D01*
X150670005Y-72275368D01*
X150670005Y-72275367D01*
X150579786Y-72098305D01*
X150549726Y-72056931D01*
X150462981Y-71937536D01*
X150322464Y-71797019D01*
X150161694Y-71680213D01*
X150004667Y-71600203D01*
X149953872Y-71552229D01*
X149937077Y-71484408D01*
X149959614Y-71418273D01*
X150004669Y-71379234D01*
X150161422Y-71299364D01*
X150198716Y-71272268D01*
X149527448Y-70601000D01*
X149550160Y-70601000D01*
X149647061Y-70575036D01*
X149733940Y-70524876D01*
X149804876Y-70453940D01*
X149855036Y-70367061D01*
X149881000Y-70270160D01*
X149881000Y-70247447D01*
X150552268Y-70918715D01*
X150579362Y-70881425D01*
X150669542Y-70704437D01*
X150730924Y-70515523D01*
X150730924Y-70515520D01*
X150762000Y-70319321D01*
X150762000Y-70120678D01*
X150730924Y-69924479D01*
X150730924Y-69924476D01*
X150669542Y-69735562D01*
X150579358Y-69558567D01*
X150552268Y-69521283D01*
X149881000Y-70192551D01*
X149881000Y-70169840D01*
X149855036Y-70072939D01*
X149804876Y-69986060D01*
X149733940Y-69915124D01*
X149647061Y-69864964D01*
X149550160Y-69839000D01*
X149527447Y-69839000D01*
X150198716Y-69167731D01*
X150198715Y-69167730D01*
X150161432Y-69140641D01*
X149984437Y-69050457D01*
X149795522Y-68989075D01*
X149599321Y-68958000D01*
X149400679Y-68958000D01*
X149204479Y-68989075D01*
X149204476Y-68989075D01*
X149015562Y-69050457D01*
X148838564Y-69140643D01*
X148801283Y-69167729D01*
X148801282Y-69167730D01*
X149472554Y-69839000D01*
X149449840Y-69839000D01*
X149352939Y-69864964D01*
X149266060Y-69915124D01*
X149195124Y-69986060D01*
X149144964Y-70072939D01*
X149119000Y-70169840D01*
X149119000Y-70192552D01*
X148447730Y-69521282D01*
X148447729Y-69521283D01*
X148420643Y-69558564D01*
X148330457Y-69735562D01*
X148269075Y-69924476D01*
X148269075Y-69924479D01*
X148238000Y-70120678D01*
X148238000Y-70319321D01*
X148269075Y-70515520D01*
X148269075Y-70515523D01*
X148330457Y-70704437D01*
X148420641Y-70881432D01*
X148447730Y-70918715D01*
X148447731Y-70918716D01*
X149119000Y-70247447D01*
X149119000Y-70270160D01*
X149144964Y-70367061D01*
X149195124Y-70453940D01*
X149266060Y-70524876D01*
X149352939Y-70575036D01*
X149449840Y-70601000D01*
X149472553Y-70601000D01*
X148801283Y-71272268D01*
X148801283Y-71272269D01*
X148838567Y-71299358D01*
X148995331Y-71379234D01*
X149046127Y-71427209D01*
X149062922Y-71495030D01*
X149040384Y-71561165D01*
X148995331Y-71600204D01*
X148838305Y-71680213D01*
X148677533Y-71797021D01*
X148677532Y-71797022D01*
X148605641Y-71868912D01*
X148597695Y-71873250D01*
X148592271Y-71880497D01*
X148567512Y-71889731D01*
X148544317Y-71902397D01*
X148535287Y-71901750D01*
X148526807Y-71904914D01*
X148500985Y-71899296D01*
X148474626Y-71897411D01*
X148465573Y-71891593D01*
X148458534Y-71890062D01*
X148430280Y-71868911D01*
X148409175Y-71847806D01*
X148375690Y-71786483D01*
X148375258Y-71784410D01*
X148365894Y-71737334D01*
X148304325Y-71588691D01*
X148298016Y-71573459D01*
X148298009Y-71573446D01*
X148199464Y-71425965D01*
X148199461Y-71425961D01*
X148074038Y-71300538D01*
X148074034Y-71300535D01*
X147926553Y-71201990D01*
X147926540Y-71201983D01*
X147762667Y-71134106D01*
X147762658Y-71134103D01*
X147588694Y-71099500D01*
X147588691Y-71099500D01*
X147411309Y-71099500D01*
X147411306Y-71099500D01*
X147237341Y-71134103D01*
X147237332Y-71134106D01*
X147073459Y-71201983D01*
X147073446Y-71201990D01*
X146925965Y-71300535D01*
X146925961Y-71300538D01*
X146800538Y-71425961D01*
X146800535Y-71425965D01*
X146701990Y-71573446D01*
X146701983Y-71573459D01*
X146634106Y-71737332D01*
X146634103Y-71737341D01*
X146599500Y-71911304D01*
X146599500Y-72088695D01*
X146634103Y-72262658D01*
X146634106Y-72262667D01*
X146701983Y-72426540D01*
X146701990Y-72426553D01*
X146800535Y-72574034D01*
X146800538Y-72574038D01*
X146925961Y-72699461D01*
X146925965Y-72699464D01*
X147073446Y-72798009D01*
X147073459Y-72798016D01*
X147150106Y-72829763D01*
X147237334Y-72865894D01*
X147284318Y-72875239D01*
X147346227Y-72907622D01*
X147347807Y-72909175D01*
X147781580Y-73342948D01*
X147781584Y-73342951D01*
X147904498Y-73425080D01*
X147904511Y-73425087D01*
X148001320Y-73465186D01*
X148041087Y-73481658D01*
X148041091Y-73481658D01*
X148041092Y-73481659D01*
X148186079Y-73510500D01*
X148186082Y-73510500D01*
X148333917Y-73510500D01*
X148421553Y-73510500D01*
X148453561Y-73519898D01*
X148485827Y-73528458D01*
X148487288Y-73529802D01*
X148488592Y-73530185D01*
X148513099Y-73550862D01*
X148517786Y-73555992D01*
X148537019Y-73582464D01*
X148594356Y-73639801D01*
X148596239Y-73641862D01*
X148610404Y-73670839D01*
X148625859Y-73699142D01*
X148625652Y-73702030D01*
X148626924Y-73704632D01*
X148623175Y-73736660D01*
X148620875Y-73768834D01*
X148619139Y-73771152D01*
X148618803Y-73774028D01*
X148598328Y-73798952D01*
X148579003Y-73824767D01*
X148576290Y-73825778D01*
X148574452Y-73828017D01*
X148543752Y-73837914D01*
X148513539Y-73849184D01*
X148508209Y-73849374D01*
X148507953Y-73849457D01*
X148507708Y-73849392D01*
X148504693Y-73849500D01*
X145715638Y-73849500D01*
X145648599Y-73829815D01*
X145610099Y-73790597D01*
X145606125Y-73784154D01*
X145542712Y-73681344D01*
X145418656Y-73557288D01*
X145269334Y-73465186D01*
X145102797Y-73410001D01*
X145102795Y-73410000D01*
X145000010Y-73399500D01*
X143999998Y-73399500D01*
X143999980Y-73399501D01*
X143897203Y-73410000D01*
X143897200Y-73410001D01*
X143730668Y-73465185D01*
X143730663Y-73465187D01*
X143581342Y-73557289D01*
X143457289Y-73681342D01*
X143365187Y-73830663D01*
X143365185Y-73830668D01*
X143339670Y-73907669D01*
X143310001Y-73997203D01*
X143310001Y-73997204D01*
X143310000Y-73997204D01*
X143299500Y-74099983D01*
X143299500Y-74729191D01*
X143279815Y-74796230D01*
X143263181Y-74816872D01*
X141266873Y-76813181D01*
X141205550Y-76846666D01*
X141179192Y-76849500D01*
X140321661Y-76849500D01*
X140254622Y-76829815D01*
X140208867Y-76777011D01*
X140198923Y-76707853D01*
X140217047Y-76658927D01*
X143500000Y-71500000D01*
X143500000Y-61897682D01*
X148200000Y-61897682D01*
X148200000Y-62102317D01*
X148232009Y-62304417D01*
X148295244Y-62499031D01*
X148388141Y-62681350D01*
X148388147Y-62681359D01*
X148420523Y-62725921D01*
X148420524Y-62725922D01*
X149100000Y-62046446D01*
X149100000Y-62052661D01*
X149127259Y-62154394D01*
X149179920Y-62245606D01*
X149254394Y-62320080D01*
X149345606Y-62372741D01*
X149447339Y-62400000D01*
X149453553Y-62400000D01*
X148774076Y-63079474D01*
X148818650Y-63111859D01*
X149000968Y-63204755D01*
X149195582Y-63267990D01*
X149397683Y-63300000D01*
X149602317Y-63300000D01*
X149804417Y-63267990D01*
X149999031Y-63204755D01*
X150181349Y-63111859D01*
X150225921Y-63079474D01*
X149546447Y-62400000D01*
X149552661Y-62400000D01*
X149654394Y-62372741D01*
X149745606Y-62320080D01*
X149820080Y-62245606D01*
X149872741Y-62154394D01*
X149900000Y-62052661D01*
X149900000Y-62046447D01*
X150579474Y-62725921D01*
X150611859Y-62681349D01*
X150639233Y-62627624D01*
X150687207Y-62576827D01*
X150755028Y-62560031D01*
X150821163Y-62582567D01*
X150860203Y-62627621D01*
X150887713Y-62681611D01*
X151008028Y-62847213D01*
X151152786Y-62991971D01*
X151273226Y-63079474D01*
X151318390Y-63112287D01*
X151434607Y-63171503D01*
X151500776Y-63205218D01*
X151500778Y-63205218D01*
X151500781Y-63205220D01*
X151548710Y-63220793D01*
X151695465Y-63268477D01*
X151796557Y-63284488D01*
X151897648Y-63300500D01*
X151897649Y-63300500D01*
X152102351Y-63300500D01*
X152102352Y-63300500D01*
X152304534Y-63268477D01*
X152499219Y-63205220D01*
X152681610Y-63112287D01*
X152777641Y-63042517D01*
X152847213Y-62991971D01*
X152847215Y-62991968D01*
X152847219Y-62991966D01*
X152991966Y-62847219D01*
X152991968Y-62847215D01*
X152991971Y-62847213D01*
X153072594Y-62736243D01*
X153112287Y-62681610D01*
X153205220Y-62499219D01*
X153268477Y-62304534D01*
X153300500Y-62102352D01*
X153300500Y-61897648D01*
X153296879Y-61874785D01*
X153268477Y-61695465D01*
X153226504Y-61566287D01*
X153205220Y-61500781D01*
X153205218Y-61500778D01*
X153205217Y-61500773D01*
X153166844Y-61425462D01*
X153166843Y-61425461D01*
X153140641Y-61374038D01*
X157899500Y-61374038D01*
X157899500Y-61625962D01*
X157910527Y-61695582D01*
X157938910Y-61874785D01*
X158016760Y-62114383D01*
X158131132Y-62338848D01*
X158279201Y-62542649D01*
X158279205Y-62542654D01*
X158457345Y-62720794D01*
X158457350Y-62720798D01*
X158555977Y-62792454D01*
X158661155Y-62868870D01*
X158797639Y-62938412D01*
X158885616Y-62983239D01*
X158885618Y-62983239D01*
X158885621Y-62983241D01*
X159125215Y-63061090D01*
X159374038Y-63100500D01*
X159374039Y-63100500D01*
X159625961Y-63100500D01*
X159625962Y-63100500D01*
X159874785Y-63061090D01*
X160114379Y-62983241D01*
X160338845Y-62868870D01*
X160542656Y-62720793D01*
X160720793Y-62542656D01*
X160868870Y-62338845D01*
X160983241Y-62114379D01*
X161061090Y-61874785D01*
X161100500Y-61625962D01*
X161100500Y-61374038D01*
X161061090Y-61125215D01*
X160983241Y-60885621D01*
X160983239Y-60885618D01*
X160983239Y-60885616D01*
X160919234Y-60760001D01*
X160868870Y-60661155D01*
X160788117Y-60550008D01*
X160720798Y-60457350D01*
X160720794Y-60457345D01*
X160542654Y-60279205D01*
X160542649Y-60279201D01*
X160338848Y-60131132D01*
X160338847Y-60131131D01*
X160338845Y-60131130D01*
X160228784Y-60075051D01*
X160114383Y-60016760D01*
X159874785Y-59938910D01*
X159625962Y-59899500D01*
X159374038Y-59899500D01*
X159249626Y-59919205D01*
X159125214Y-59938910D01*
X158885616Y-60016760D01*
X158661151Y-60131132D01*
X158457350Y-60279201D01*
X158457345Y-60279205D01*
X158279205Y-60457345D01*
X158279201Y-60457350D01*
X158131132Y-60661151D01*
X158016760Y-60885616D01*
X157938910Y-61125214D01*
X157903750Y-61347203D01*
X157899500Y-61374038D01*
X153140641Y-61374038D01*
X153130285Y-61353713D01*
X153112287Y-61318390D01*
X153080092Y-61274077D01*
X152991971Y-61152786D01*
X152847213Y-61008028D01*
X152681613Y-60887715D01*
X152681612Y-60887714D01*
X152681610Y-60887713D01*
X152624653Y-60858691D01*
X152499223Y-60794781D01*
X152304534Y-60731522D01*
X152129995Y-60703878D01*
X152102352Y-60699500D01*
X151897648Y-60699500D01*
X151873329Y-60703351D01*
X151695465Y-60731522D01*
X151500776Y-60794781D01*
X151318386Y-60887715D01*
X151152786Y-61008028D01*
X151008028Y-61152786D01*
X150887714Y-61318386D01*
X150860203Y-61372379D01*
X150812227Y-61423174D01*
X150744406Y-61439968D01*
X150678272Y-61417429D01*
X150639234Y-61372376D01*
X150611861Y-61318652D01*
X150579474Y-61274077D01*
X150579474Y-61274076D01*
X149900000Y-61953551D01*
X149900000Y-61947339D01*
X149872741Y-61845606D01*
X149820080Y-61754394D01*
X149745606Y-61679920D01*
X149654394Y-61627259D01*
X149552661Y-61600000D01*
X149546446Y-61600000D01*
X150225922Y-60920524D01*
X150225921Y-60920523D01*
X150181359Y-60888147D01*
X150181350Y-60888141D01*
X149999031Y-60795244D01*
X149804417Y-60732009D01*
X149602317Y-60700000D01*
X149397683Y-60700000D01*
X149195582Y-60732009D01*
X149000968Y-60795244D01*
X148818644Y-60888143D01*
X148774077Y-60920523D01*
X148774077Y-60920524D01*
X149453554Y-61600000D01*
X149447339Y-61600000D01*
X149345606Y-61627259D01*
X149254394Y-61679920D01*
X149179920Y-61754394D01*
X149127259Y-61845606D01*
X149100000Y-61947339D01*
X149100000Y-61953553D01*
X148420524Y-61274077D01*
X148420523Y-61274077D01*
X148388143Y-61318644D01*
X148295244Y-61500968D01*
X148232009Y-61695582D01*
X148200000Y-61897682D01*
X143500000Y-61897682D01*
X143500000Y-56624500D01*
X143519685Y-56557461D01*
X143572489Y-56511706D01*
X143624000Y-56500500D01*
X164875500Y-56500500D01*
X164942539Y-56520185D01*
G37*
%TD.AperFunction*%
%TA.AperFunction,Conductor*%
G36*
X148122185Y-75153050D02*
G01*
X148131147Y-75151762D01*
X148155187Y-75162740D01*
X148180539Y-75170185D01*
X148186466Y-75177025D01*
X148194703Y-75180787D01*
X148208992Y-75203021D01*
X148226294Y-75222989D01*
X148228581Y-75233503D01*
X148232477Y-75239565D01*
X148237500Y-75274500D01*
X148237500Y-75399360D01*
X148268587Y-75595637D01*
X148329993Y-75784629D01*
X148329994Y-75784632D01*
X148387694Y-75897872D01*
X148420213Y-75961694D01*
X148537019Y-76122464D01*
X148677536Y-76262981D01*
X148838306Y-76379787D01*
X148956832Y-76440179D01*
X148994780Y-76459515D01*
X149045576Y-76507490D01*
X149062371Y-76575311D01*
X149039833Y-76641446D01*
X148994780Y-76680485D01*
X148838305Y-76760213D01*
X148677533Y-76877021D01*
X148537021Y-77017533D01*
X148420213Y-77178305D01*
X148329994Y-77355367D01*
X148329993Y-77355370D01*
X148268587Y-77544362D01*
X148237500Y-77740639D01*
X148237500Y-77939361D01*
X148237499Y-77939361D01*
X148260867Y-78086899D01*
X148260166Y-78092323D01*
X148262078Y-78097449D01*
X148255735Y-78126607D01*
X148251912Y-78156192D01*
X148248081Y-78161794D01*
X148247227Y-78165722D01*
X148226075Y-78193977D01*
X148106871Y-78313182D01*
X148045551Y-78346666D01*
X148019192Y-78349500D01*
X145715638Y-78349500D01*
X145648599Y-78329815D01*
X145610099Y-78290597D01*
X145608974Y-78288773D01*
X145542712Y-78181344D01*
X145418656Y-78057288D01*
X145269334Y-77965186D01*
X145102797Y-77910001D01*
X145102795Y-77910000D01*
X145000010Y-77899500D01*
X143999998Y-77899500D01*
X143999980Y-77899501D01*
X143897203Y-77910000D01*
X143897200Y-77910001D01*
X143730668Y-77965185D01*
X143730663Y-77965187D01*
X143581342Y-78057289D01*
X143457289Y-78181342D01*
X143457288Y-78181344D01*
X143398281Y-78277011D01*
X143389901Y-78290597D01*
X143337953Y-78337321D01*
X143284362Y-78349500D01*
X141772352Y-78349500D01*
X141705313Y-78329815D01*
X141659558Y-78277011D01*
X141649614Y-78207853D01*
X141678639Y-78144297D01*
X141724900Y-78110939D01*
X141808123Y-78076467D01*
X141808124Y-78076466D01*
X141808127Y-78076465D01*
X141914669Y-78005277D01*
X143089530Y-76830414D01*
X143150848Y-76796933D01*
X143220539Y-76801917D01*
X143276473Y-76843788D01*
X143300564Y-76905497D01*
X143310494Y-77002696D01*
X143365641Y-77169119D01*
X143365643Y-77169124D01*
X143457684Y-77318345D01*
X143581654Y-77442315D01*
X143730875Y-77534356D01*
X143730880Y-77534358D01*
X143897302Y-77589505D01*
X143897309Y-77589506D01*
X144000019Y-77599999D01*
X144249999Y-77599999D01*
X144750000Y-77599999D01*
X144999972Y-77599999D01*
X144999986Y-77599998D01*
X145102697Y-77589505D01*
X145269119Y-77534358D01*
X145269124Y-77534356D01*
X145418345Y-77442315D01*
X145542315Y-77318345D01*
X145634356Y-77169124D01*
X145634358Y-77169119D01*
X145689505Y-77002697D01*
X145689506Y-77002690D01*
X145699999Y-76899986D01*
X145700000Y-76899973D01*
X145700000Y-76750000D01*
X144750000Y-76750000D01*
X144750000Y-77599999D01*
X144249999Y-77599999D01*
X144250000Y-77599998D01*
X144250000Y-76624000D01*
X144269685Y-76556961D01*
X144322489Y-76511206D01*
X144374000Y-76500000D01*
X144500000Y-76500000D01*
X144500000Y-76374000D01*
X144519685Y-76306961D01*
X144572489Y-76261206D01*
X144624000Y-76250000D01*
X145699999Y-76250000D01*
X145699999Y-76100028D01*
X145699998Y-76100013D01*
X145689505Y-75997302D01*
X145634358Y-75830880D01*
X145634356Y-75830875D01*
X145542315Y-75681654D01*
X145448695Y-75588034D01*
X145415210Y-75526711D01*
X145420194Y-75457019D01*
X145448691Y-75412676D01*
X145542712Y-75318656D01*
X145610099Y-75209402D01*
X145662047Y-75162679D01*
X145715638Y-75150500D01*
X148113500Y-75150500D01*
X148122185Y-75153050D01*
G37*
%TD.AperFunction*%
%TD*%
%TA.AperFunction,Conductor*%
%TO.N,+5V*%
G36*
X94854075Y-75192993D02*
G01*
X94919901Y-75307007D01*
X95012993Y-75400099D01*
X95127007Y-75465925D01*
X95190589Y-75482962D01*
X94558282Y-76115269D01*
X94558282Y-76115270D01*
X94612449Y-76154624D01*
X94801782Y-76251095D01*
X95003870Y-76316757D01*
X95213754Y-76350000D01*
X95426246Y-76350000D01*
X95636126Y-76316758D01*
X95808181Y-76260853D01*
X95878022Y-76258858D01*
X95937855Y-76294938D01*
X95968684Y-76357638D01*
X95970500Y-76378784D01*
X95970500Y-76830641D01*
X95950815Y-76897680D01*
X95898011Y-76943435D01*
X95844362Y-76953409D01*
X95844373Y-76954426D01*
X95839944Y-76954472D01*
X95698146Y-76955949D01*
X94878281Y-76964489D01*
X94878266Y-76964489D01*
X94878259Y-76964490D01*
X94823278Y-76968066D01*
X94823275Y-76968066D01*
X94823265Y-76968067D01*
X94796499Y-76971280D01*
X94796477Y-76971283D01*
X94742252Y-76980812D01*
X94742249Y-76980813D01*
X94714671Y-76991551D01*
X94669684Y-77000000D01*
X94124000Y-77000000D01*
X94056961Y-76980315D01*
X94011206Y-76927511D01*
X94000000Y-76876000D01*
X94000000Y-75861565D01*
X94019685Y-75794526D01*
X94072489Y-75748771D01*
X94141647Y-75738827D01*
X94189069Y-75760483D01*
X94204728Y-75761716D01*
X94837037Y-75129408D01*
X94854075Y-75192993D01*
G37*
%TD.AperFunction*%
%TA.AperFunction,Conductor*%
G36*
X92721487Y-70802034D02*
G01*
X92729715Y-70809554D01*
X92925435Y-71005274D01*
X92925438Y-71005276D01*
X92967408Y-71033319D01*
X93031981Y-71076465D01*
X93150364Y-71125501D01*
X93150368Y-71125501D01*
X93150369Y-71125502D01*
X93276036Y-71150500D01*
X93276039Y-71150500D01*
X94679192Y-71150500D01*
X94746231Y-71170185D01*
X94766873Y-71186819D01*
X95934181Y-72354126D01*
X95967666Y-72415449D01*
X95970500Y-72441807D01*
X95970500Y-73621214D01*
X95950815Y-73688253D01*
X95898011Y-73734008D01*
X95828853Y-73743952D01*
X95808182Y-73739145D01*
X95636129Y-73683242D01*
X95426246Y-73650000D01*
X95213754Y-73650000D01*
X95003872Y-73683242D01*
X95003869Y-73683242D01*
X94801782Y-73748904D01*
X94612439Y-73845380D01*
X94558282Y-73884727D01*
X94558282Y-73884728D01*
X95190591Y-74517037D01*
X95127007Y-74534075D01*
X95012993Y-74599901D01*
X94919901Y-74692993D01*
X94854075Y-74807007D01*
X94837037Y-74870591D01*
X94204728Y-74238282D01*
X94187601Y-74239630D01*
X94168989Y-74253983D01*
X94099376Y-74259962D01*
X94037580Y-74227357D01*
X94003223Y-74166518D01*
X94000000Y-74138432D01*
X94000000Y-72000000D01*
X92412000Y-72000000D01*
X92344961Y-71980315D01*
X92299206Y-71927511D01*
X92288000Y-71876000D01*
X92288000Y-71171248D01*
X92307685Y-71104209D01*
X92338996Y-71073471D01*
X92337987Y-71072195D01*
X92343654Y-71067713D01*
X92343653Y-71067713D01*
X92343656Y-71067712D01*
X92467712Y-70943656D01*
X92536496Y-70832137D01*
X92588442Y-70785414D01*
X92657405Y-70774191D01*
X92721487Y-70802034D01*
G37*
%TD.AperFunction*%
%TA.AperFunction,Conductor*%
G36*
X141943039Y-56520185D02*
G01*
X141988794Y-56572989D01*
X142000000Y-56624500D01*
X142000000Y-71876000D01*
X141980315Y-71943039D01*
X141927511Y-71988794D01*
X141876000Y-72000000D01*
X118691308Y-72000000D01*
X118624269Y-71980315D01*
X118603627Y-71963681D01*
X116586819Y-69946873D01*
X116553334Y-69885550D01*
X116550500Y-69859192D01*
X116550500Y-69500941D01*
X116570185Y-69433902D01*
X116622989Y-69388147D01*
X116692147Y-69378203D01*
X116755703Y-69407228D01*
X116762167Y-69413247D01*
X117327336Y-69978415D01*
X117327337Y-69978416D01*
X117416249Y-70067328D01*
X117431873Y-70082952D01*
X117554786Y-70165080D01*
X117554799Y-70165087D01*
X117691370Y-70221656D01*
X117691375Y-70221658D01*
X117691379Y-70221658D01*
X117691380Y-70221659D01*
X117836367Y-70250500D01*
X117836370Y-70250500D01*
X122573920Y-70250500D01*
X122671462Y-70231096D01*
X122718913Y-70221658D01*
X122855495Y-70165084D01*
X122858008Y-70163404D01*
X122859525Y-70162929D01*
X122860862Y-70162215D01*
X122860997Y-70162468D01*
X122924680Y-70142523D01*
X122991998Y-70160963D01*
X123030666Y-70184814D01*
X123197203Y-70239999D01*
X123299991Y-70250500D01*
X124700008Y-70250499D01*
X124802797Y-70239999D01*
X124969334Y-70184814D01*
X125118656Y-70092712D01*
X125242712Y-69968656D01*
X125334814Y-69819334D01*
X125389999Y-69652797D01*
X125400500Y-69550009D01*
X125400500Y-68911304D01*
X135099500Y-68911304D01*
X135099500Y-69088695D01*
X135134103Y-69262658D01*
X135134106Y-69262667D01*
X135201983Y-69426540D01*
X135201990Y-69426553D01*
X135300535Y-69574034D01*
X135300538Y-69574038D01*
X135425961Y-69699461D01*
X135425965Y-69699464D01*
X135573446Y-69798009D01*
X135573459Y-69798016D01*
X135696363Y-69848923D01*
X135737334Y-69865894D01*
X135737336Y-69865894D01*
X135737341Y-69865896D01*
X135911304Y-69900499D01*
X135911307Y-69900500D01*
X135911309Y-69900500D01*
X136088693Y-69900500D01*
X136088694Y-69900499D01*
X136146682Y-69888964D01*
X136262658Y-69865896D01*
X136262661Y-69865894D01*
X136262666Y-69865894D01*
X136397755Y-69809939D01*
X136445207Y-69800500D01*
X136930336Y-69800500D01*
X136997375Y-69820185D01*
X137043130Y-69872989D01*
X137053626Y-69911246D01*
X137055909Y-69932483D01*
X137106202Y-70067328D01*
X137106206Y-70067335D01*
X137192452Y-70182544D01*
X137192455Y-70182547D01*
X137307664Y-70268793D01*
X137307671Y-70268797D01*
X137442517Y-70319091D01*
X137442516Y-70319091D01*
X137449444Y-70319835D01*
X137502127Y-70325500D01*
X139797872Y-70325499D01*
X139857483Y-70319091D01*
X139992331Y-70268796D01*
X140107546Y-70182546D01*
X140193796Y-70067331D01*
X140244091Y-69932483D01*
X140250500Y-69872873D01*
X140250499Y-68227128D01*
X140244091Y-68167517D01*
X140231628Y-68134103D01*
X140193797Y-68032671D01*
X140193793Y-68032664D01*
X140107547Y-67917455D01*
X140107544Y-67917452D01*
X139992335Y-67831206D01*
X139992328Y-67831202D01*
X139857482Y-67780908D01*
X139857483Y-67780908D01*
X139797883Y-67774501D01*
X139797881Y-67774500D01*
X139797873Y-67774500D01*
X139797864Y-67774500D01*
X137502129Y-67774500D01*
X137502123Y-67774501D01*
X137442516Y-67780908D01*
X137307671Y-67831202D01*
X137307664Y-67831206D01*
X137192455Y-67917452D01*
X137192452Y-67917455D01*
X137106206Y-68032664D01*
X137106202Y-68032671D01*
X137055908Y-68167516D01*
X137053625Y-68188757D01*
X137026886Y-68253308D01*
X136969493Y-68293155D01*
X136930336Y-68299500D01*
X136610100Y-68299500D01*
X136543061Y-68279815D01*
X136541209Y-68278602D01*
X136426549Y-68201988D01*
X136426547Y-68201987D01*
X136262667Y-68134106D01*
X136262658Y-68134103D01*
X136088694Y-68099500D01*
X136088691Y-68099500D01*
X135911309Y-68099500D01*
X135911306Y-68099500D01*
X135737341Y-68134103D01*
X135737332Y-68134106D01*
X135573459Y-68201983D01*
X135573446Y-68201990D01*
X135425965Y-68300535D01*
X135425961Y-68300538D01*
X135300538Y-68425961D01*
X135300535Y-68425965D01*
X135201990Y-68573446D01*
X135201983Y-68573459D01*
X135134106Y-68737332D01*
X135134103Y-68737341D01*
X135099500Y-68911304D01*
X125400500Y-68911304D01*
X125400499Y-67975386D01*
X125400499Y-66449998D01*
X125400498Y-66449981D01*
X125389999Y-66347203D01*
X125389998Y-66347200D01*
X125371856Y-66292452D01*
X125334814Y-66180666D01*
X125242712Y-66031344D01*
X125118656Y-65907288D01*
X124975719Y-65819124D01*
X124969336Y-65815187D01*
X124969331Y-65815185D01*
X124967862Y-65814698D01*
X124802797Y-65760001D01*
X124802795Y-65760000D01*
X124700010Y-65749500D01*
X123299998Y-65749500D01*
X123299981Y-65749501D01*
X123197203Y-65760000D01*
X123197200Y-65760001D01*
X123030668Y-65815185D01*
X123030663Y-65815187D01*
X122881342Y-65907289D01*
X122757289Y-66031342D01*
X122665187Y-66180663D01*
X122665185Y-66180668D01*
X122656723Y-66206206D01*
X122610001Y-66347203D01*
X122610001Y-66347204D01*
X122610000Y-66347204D01*
X122599500Y-66449983D01*
X122599500Y-68287769D01*
X122579815Y-68354808D01*
X122563181Y-68375450D01*
X122225451Y-68713181D01*
X122164128Y-68746666D01*
X122137770Y-68749500D01*
X119896538Y-68749500D01*
X119829499Y-68729815D01*
X119783744Y-68677011D01*
X119773800Y-68607853D01*
X119778832Y-68586496D01*
X119783154Y-68573453D01*
X119789999Y-68552797D01*
X119800500Y-68450009D01*
X119800499Y-67449992D01*
X119797312Y-67418797D01*
X119789999Y-67347203D01*
X119789998Y-67347200D01*
X119785141Y-67332544D01*
X119734814Y-67180666D01*
X119642712Y-67031344D01*
X119518656Y-66907288D01*
X119369334Y-66815186D01*
X119365975Y-66814073D01*
X119335494Y-66803972D01*
X119315462Y-66790102D01*
X119293297Y-66779980D01*
X119287248Y-66770567D01*
X119278050Y-66764199D01*
X119268696Y-66741700D01*
X119255523Y-66721202D01*
X119253063Y-66704098D01*
X119251228Y-66699683D01*
X119250500Y-66686267D01*
X119250500Y-66595072D01*
X119270185Y-66528033D01*
X119286820Y-66507390D01*
X119338299Y-66455911D01*
X119338302Y-66455908D01*
X119442322Y-66300231D01*
X119513973Y-66127251D01*
X119550500Y-65943616D01*
X119550500Y-65377135D01*
X137049500Y-65377135D01*
X137049500Y-67022870D01*
X137049501Y-67022876D01*
X137055908Y-67082483D01*
X137106202Y-67217328D01*
X137106206Y-67217335D01*
X137192452Y-67332544D01*
X137192455Y-67332547D01*
X137307664Y-67418793D01*
X137307671Y-67418797D01*
X137442517Y-67469091D01*
X137442516Y-67469091D01*
X137449444Y-67469835D01*
X137502127Y-67475500D01*
X139797872Y-67475499D01*
X139857483Y-67469091D01*
X139992331Y-67418796D01*
X140107546Y-67332546D01*
X140193796Y-67217331D01*
X140244091Y-67082483D01*
X140250500Y-67022873D01*
X140250499Y-65377128D01*
X140244091Y-65317517D01*
X140228695Y-65276239D01*
X140193797Y-65182671D01*
X140193793Y-65182664D01*
X140107547Y-65067455D01*
X140107544Y-65067452D01*
X139992335Y-64981206D01*
X139992328Y-64981202D01*
X139857483Y-64930908D01*
X139833539Y-64928334D01*
X139768988Y-64901595D01*
X139729142Y-64844201D01*
X139726650Y-64774376D01*
X139741259Y-64739948D01*
X139784809Y-64669342D01*
X139784810Y-64669340D01*
X139784814Y-64669334D01*
X139839999Y-64502797D01*
X139850500Y-64400009D01*
X139850499Y-63599992D01*
X139848407Y-63579516D01*
X139839999Y-63497203D01*
X139839998Y-63497200D01*
X139835372Y-63483239D01*
X139784814Y-63330666D01*
X139692712Y-63181344D01*
X139598695Y-63087327D01*
X139565210Y-63026004D01*
X139570194Y-62956312D01*
X139598695Y-62911964D01*
X139692317Y-62818342D01*
X139784356Y-62669124D01*
X139784358Y-62669119D01*
X139839505Y-62502697D01*
X139839506Y-62502690D01*
X139849999Y-62399986D01*
X139850000Y-62399973D01*
X139850000Y-62250000D01*
X137450001Y-62250000D01*
X137450001Y-62399986D01*
X137460494Y-62502697D01*
X137515641Y-62669119D01*
X137515643Y-62669124D01*
X137607684Y-62818345D01*
X137701304Y-62911965D01*
X137734789Y-62973288D01*
X137729805Y-63042980D01*
X137701305Y-63087327D01*
X137607287Y-63181345D01*
X137515187Y-63330663D01*
X137515186Y-63330666D01*
X137460001Y-63497203D01*
X137460001Y-63497204D01*
X137460000Y-63497204D01*
X137449500Y-63599983D01*
X137449500Y-64400001D01*
X137449501Y-64400019D01*
X137460000Y-64502796D01*
X137460001Y-64502799D01*
X137515185Y-64669331D01*
X137515189Y-64669340D01*
X137558741Y-64739949D01*
X137577181Y-64807341D01*
X137556258Y-64874005D01*
X137502616Y-64918774D01*
X137466458Y-64928334D01*
X137442519Y-64930907D01*
X137307671Y-64981202D01*
X137307664Y-64981206D01*
X137192455Y-65067452D01*
X137192452Y-65067455D01*
X137106206Y-65182664D01*
X137106202Y-65182671D01*
X137055908Y-65317517D01*
X137050246Y-65370184D01*
X137049501Y-65377123D01*
X137049500Y-65377135D01*
X119550500Y-65377135D01*
X119550500Y-65056384D01*
X119513973Y-64872749D01*
X119442322Y-64699769D01*
X119442321Y-64699768D01*
X119442318Y-64699762D01*
X119342240Y-64549986D01*
X122600001Y-64549986D01*
X122610494Y-64652697D01*
X122665641Y-64819119D01*
X122665643Y-64819124D01*
X122757684Y-64968345D01*
X122881654Y-65092315D01*
X123030875Y-65184356D01*
X123030880Y-65184358D01*
X123197302Y-65239505D01*
X123197309Y-65239506D01*
X123300019Y-65249999D01*
X123749999Y-65249999D01*
X124250000Y-65249999D01*
X124699972Y-65249999D01*
X124699986Y-65249998D01*
X124802697Y-65239505D01*
X124969119Y-65184358D01*
X124969124Y-65184356D01*
X125118345Y-65092315D01*
X125242315Y-64968345D01*
X125334356Y-64819124D01*
X125334358Y-64819119D01*
X125389505Y-64652697D01*
X125389506Y-64652690D01*
X125399999Y-64549986D01*
X125400000Y-64549973D01*
X125400000Y-63250000D01*
X124250000Y-63250000D01*
X124250000Y-65249999D01*
X123749999Y-65249999D01*
X123750000Y-65249998D01*
X123750000Y-63250000D01*
X122600001Y-63250000D01*
X122600001Y-64549986D01*
X119342240Y-64549986D01*
X119338302Y-64544092D01*
X119338299Y-64544088D01*
X119205911Y-64411700D01*
X119205907Y-64411697D01*
X119050237Y-64307681D01*
X119050228Y-64307676D01*
X118877251Y-64236027D01*
X118877243Y-64236025D01*
X118693620Y-64199500D01*
X118693616Y-64199500D01*
X118506384Y-64199500D01*
X118506379Y-64199500D01*
X118322756Y-64236025D01*
X118322748Y-64236027D01*
X118149771Y-64307676D01*
X118149762Y-64307681D01*
X117993504Y-64412090D01*
X117926826Y-64432968D01*
X117859446Y-64414483D01*
X117819074Y-64374084D01*
X117792712Y-64331344D01*
X117668657Y-64207289D01*
X117668656Y-64207288D01*
X117539496Y-64127622D01*
X117519336Y-64115187D01*
X117519331Y-64115185D01*
X117517862Y-64114698D01*
X117352797Y-64060001D01*
X117352795Y-64060000D01*
X117250010Y-64049500D01*
X115749998Y-64049500D01*
X115749981Y-64049501D01*
X115647203Y-64060000D01*
X115647200Y-64060001D01*
X115480668Y-64115185D01*
X115480659Y-64115189D01*
X115365096Y-64186469D01*
X115297704Y-64204909D01*
X115234904Y-64186469D01*
X115119340Y-64115189D01*
X115119335Y-64115187D01*
X115119334Y-64115186D01*
X114952797Y-64060001D01*
X114952795Y-64060000D01*
X114850010Y-64049500D01*
X113349998Y-64049500D01*
X113349981Y-64049501D01*
X113247203Y-64060000D01*
X113247200Y-64060001D01*
X113080668Y-64115185D01*
X113080663Y-64115187D01*
X112931342Y-64207289D01*
X112807287Y-64331344D01*
X112780924Y-64374086D01*
X112728976Y-64420810D01*
X112660013Y-64432031D01*
X112606495Y-64412090D01*
X112450237Y-64307681D01*
X112450228Y-64307676D01*
X112277251Y-64236027D01*
X112277243Y-64236025D01*
X112093620Y-64199500D01*
X112093616Y-64199500D01*
X111906384Y-64199500D01*
X111906379Y-64199500D01*
X111722756Y-64236025D01*
X111722748Y-64236027D01*
X111549771Y-64307676D01*
X111549762Y-64307681D01*
X111394092Y-64411697D01*
X111394088Y-64411700D01*
X111261700Y-64544088D01*
X111261697Y-64544092D01*
X111157681Y-64699762D01*
X111157676Y-64699771D01*
X111086027Y-64872748D01*
X111086025Y-64872756D01*
X111049500Y-65056379D01*
X111049500Y-65943620D01*
X111086025Y-66127243D01*
X111086027Y-66127251D01*
X111157676Y-66300228D01*
X111157681Y-66300237D01*
X111261697Y-66455907D01*
X111261700Y-66455911D01*
X111313180Y-66507390D01*
X111327884Y-66534318D01*
X111344477Y-66560137D01*
X111345368Y-66566336D01*
X111346666Y-66568713D01*
X111349500Y-66595072D01*
X111349500Y-66686267D01*
X111329815Y-66753306D01*
X111277011Y-66799061D01*
X111264506Y-66803972D01*
X111230671Y-66815184D01*
X111230663Y-66815187D01*
X111081342Y-66907289D01*
X110957289Y-67031342D01*
X110865187Y-67180663D01*
X110865186Y-67180666D01*
X110810001Y-67347203D01*
X110810001Y-67347204D01*
X110810000Y-67347204D01*
X110799500Y-67449983D01*
X110799500Y-68450001D01*
X110799501Y-68450019D01*
X110810000Y-68552796D01*
X110810001Y-68552799D01*
X110860726Y-68705875D01*
X110865186Y-68719334D01*
X110957288Y-68868656D01*
X111081344Y-68992712D01*
X111230666Y-69084814D01*
X111397203Y-69139999D01*
X111499991Y-69150500D01*
X112700008Y-69150499D01*
X112802797Y-69139999D01*
X112969334Y-69084814D01*
X113118656Y-68992712D01*
X113151412Y-68959955D01*
X113212732Y-68926471D01*
X113282424Y-68931455D01*
X113338358Y-68973325D01*
X113353653Y-69000185D01*
X113375462Y-69052838D01*
X113375463Y-69052840D01*
X113375464Y-69052841D01*
X113471718Y-69178282D01*
X113597159Y-69274536D01*
X113743238Y-69335044D01*
X113860639Y-69350500D01*
X114139360Y-69350499D01*
X114139361Y-69350499D01*
X114151594Y-69348888D01*
X114256762Y-69335044D01*
X114277545Y-69326434D01*
X114347014Y-69318965D01*
X114372453Y-69326434D01*
X114393238Y-69335044D01*
X114510639Y-69350500D01*
X114575500Y-69350499D01*
X114642538Y-69370183D01*
X114688294Y-69422986D01*
X114699500Y-69474499D01*
X114699500Y-70471889D01*
X114719923Y-70574558D01*
X114719923Y-70574559D01*
X114724497Y-70597555D01*
X114724500Y-70597564D01*
X114772938Y-70714505D01*
X114773535Y-70715945D01*
X114831057Y-70802034D01*
X114844726Y-70822491D01*
X114844727Y-70822492D01*
X115810555Y-71788319D01*
X115844040Y-71849642D01*
X115839056Y-71919333D01*
X115797184Y-71975267D01*
X115731720Y-71999684D01*
X115722874Y-72000000D01*
X99835500Y-72000000D01*
X99768461Y-71980315D01*
X99722706Y-71927511D01*
X99711500Y-71876000D01*
X99711500Y-71496928D01*
X99686502Y-71371261D01*
X99686501Y-71371260D01*
X99686501Y-71371256D01*
X99661983Y-71312064D01*
X99637466Y-71252874D01*
X99619174Y-71225499D01*
X99619173Y-71225498D01*
X99569062Y-71150500D01*
X99566276Y-71146330D01*
X99566274Y-71146328D01*
X99566272Y-71146325D01*
X99566271Y-71146324D01*
X99357126Y-70937180D01*
X99323641Y-70875857D01*
X99328625Y-70806166D01*
X99370496Y-70750232D01*
X99435961Y-70725815D01*
X99444807Y-70725499D01*
X99850002Y-70725499D01*
X99850008Y-70725499D01*
X99952797Y-70714999D01*
X100119334Y-70659814D01*
X100268656Y-70567712D01*
X100392712Y-70443656D01*
X100394752Y-70440347D01*
X100396745Y-70438555D01*
X100397193Y-70437989D01*
X100397289Y-70438065D01*
X100446694Y-70393623D01*
X100515656Y-70382395D01*
X100579740Y-70410234D01*
X100605829Y-70440339D01*
X100607681Y-70443341D01*
X100607683Y-70443344D01*
X100731654Y-70567315D01*
X100880875Y-70659356D01*
X100880880Y-70659358D01*
X101047302Y-70714505D01*
X101047309Y-70714506D01*
X101150019Y-70724999D01*
X101287499Y-70724999D01*
X101787500Y-70724999D01*
X101924972Y-70724999D01*
X101924986Y-70724998D01*
X102027697Y-70714505D01*
X102194119Y-70659358D01*
X102194124Y-70659356D01*
X102343345Y-70567315D01*
X102467315Y-70443345D01*
X102559356Y-70294124D01*
X102559358Y-70294119D01*
X102614505Y-70127697D01*
X102614506Y-70127690D01*
X102624999Y-70024986D01*
X102625000Y-70024973D01*
X102625000Y-69750000D01*
X101787500Y-69750000D01*
X101787500Y-70724999D01*
X101287499Y-70724999D01*
X101287500Y-70724998D01*
X101287500Y-69250000D01*
X101787500Y-69250000D01*
X102624999Y-69250000D01*
X102624999Y-68975028D01*
X102624998Y-68975013D01*
X102614505Y-68872302D01*
X102559358Y-68705880D01*
X102559356Y-68705875D01*
X102467315Y-68556654D01*
X102343345Y-68432684D01*
X102194124Y-68340643D01*
X102194119Y-68340641D01*
X102027697Y-68285494D01*
X102027690Y-68285493D01*
X101924986Y-68275000D01*
X101787500Y-68275000D01*
X101787500Y-69250000D01*
X101287500Y-69250000D01*
X101287500Y-68275000D01*
X101150027Y-68275000D01*
X101150012Y-68275001D01*
X101047302Y-68285494D01*
X100880880Y-68340641D01*
X100880875Y-68340643D01*
X100731654Y-68432684D01*
X100607683Y-68556655D01*
X100607679Y-68556660D01*
X100605826Y-68559665D01*
X100604018Y-68561290D01*
X100603202Y-68562323D01*
X100603025Y-68562183D01*
X100553874Y-68606385D01*
X100484911Y-68617601D01*
X100420831Y-68589752D01*
X100411945Y-68581568D01*
X100402111Y-68571583D01*
X100392712Y-68556344D01*
X100268656Y-68432288D01*
X100259160Y-68426430D01*
X100248652Y-68415761D01*
X100238931Y-68397631D01*
X100225175Y-68382335D01*
X100221089Y-68364355D01*
X100215636Y-68354184D01*
X100216448Y-68343928D01*
X100213000Y-68328752D01*
X100213000Y-68091392D01*
X100232685Y-68024353D01*
X100233860Y-68022557D01*
X100298013Y-67926547D01*
X100365894Y-67762666D01*
X100400500Y-67588691D01*
X100400500Y-67411309D01*
X100400500Y-67411306D01*
X100400499Y-67411304D01*
X100365896Y-67237341D01*
X100365893Y-67237332D01*
X100357608Y-67217331D01*
X100338715Y-67171718D01*
X100298016Y-67073459D01*
X100298009Y-67073446D01*
X100199464Y-66925965D01*
X100199461Y-66925961D01*
X100074038Y-66800538D01*
X100074034Y-66800535D01*
X99926553Y-66701990D01*
X99926540Y-66701983D01*
X99762667Y-66634106D01*
X99762658Y-66634103D01*
X99588694Y-66599500D01*
X99588691Y-66599500D01*
X99411309Y-66599500D01*
X99411306Y-66599500D01*
X99237341Y-66634103D01*
X99237332Y-66634106D01*
X99073459Y-66701983D01*
X99073446Y-66701990D01*
X98925965Y-66800535D01*
X98925961Y-66800538D01*
X98800538Y-66925961D01*
X98800535Y-66925965D01*
X98701990Y-67073446D01*
X98701983Y-67073459D01*
X98634106Y-67237332D01*
X98634103Y-67237341D01*
X98599500Y-67411304D01*
X98599500Y-67588695D01*
X98634103Y-67762658D01*
X98634106Y-67762667D01*
X98702561Y-67927934D01*
X98712000Y-67975386D01*
X98712000Y-68328752D01*
X98692315Y-68395791D01*
X98661002Y-68426531D01*
X98662011Y-68427807D01*
X98656343Y-68432288D01*
X98532289Y-68556342D01*
X98440187Y-68705663D01*
X98440185Y-68705668D01*
X98429693Y-68737332D01*
X98385001Y-68872203D01*
X98385001Y-68872204D01*
X98385000Y-68872204D01*
X98374500Y-68974983D01*
X98374500Y-69655192D01*
X98354815Y-69722231D01*
X98302011Y-69767986D01*
X98232853Y-69777930D01*
X98169297Y-69748905D01*
X98162819Y-69742873D01*
X96386818Y-67966872D01*
X96353333Y-67905549D01*
X96350499Y-67879191D01*
X96350499Y-66602129D01*
X96350498Y-66602123D01*
X96349740Y-66595072D01*
X96344091Y-66542517D01*
X96330989Y-66507390D01*
X96293797Y-66407671D01*
X96293793Y-66407664D01*
X96207547Y-66292455D01*
X96207544Y-66292452D01*
X96092335Y-66206206D01*
X96092328Y-66206202D01*
X95960917Y-66157189D01*
X95904983Y-66115318D01*
X95880566Y-66049853D01*
X95895418Y-65981580D01*
X95916563Y-65953332D01*
X96030104Y-65839792D01*
X96047981Y-65815187D01*
X96155048Y-65667820D01*
X96155047Y-65667820D01*
X96155051Y-65667816D01*
X96215088Y-65549986D01*
X98600001Y-65549986D01*
X98610494Y-65652697D01*
X98665641Y-65819119D01*
X98665643Y-65819124D01*
X98757684Y-65968345D01*
X98881654Y-66092315D01*
X99030875Y-66184356D01*
X99030880Y-66184358D01*
X99197302Y-66239505D01*
X99197309Y-66239506D01*
X99300019Y-66249999D01*
X99749999Y-66249999D01*
X100250000Y-66249999D01*
X100699972Y-66249999D01*
X100699986Y-66249998D01*
X100802697Y-66239505D01*
X100969119Y-66184358D01*
X100969124Y-66184356D01*
X101118345Y-66092315D01*
X101242315Y-65968345D01*
X101334356Y-65819124D01*
X101334358Y-65819119D01*
X101389505Y-65652697D01*
X101389506Y-65652690D01*
X101399999Y-65549986D01*
X101400000Y-65549973D01*
X101400000Y-64250000D01*
X100250000Y-64250000D01*
X100250000Y-66249999D01*
X99749999Y-66249999D01*
X99750000Y-66249998D01*
X99750000Y-64250000D01*
X98600001Y-64250000D01*
X98600001Y-65549986D01*
X96215088Y-65549986D01*
X96251557Y-65478412D01*
X96317246Y-65276243D01*
X96350500Y-65066287D01*
X96350500Y-64853713D01*
X96317246Y-64643757D01*
X96251557Y-64441588D01*
X96155051Y-64252184D01*
X96155049Y-64252181D01*
X96030109Y-64080213D01*
X95879786Y-63929890D01*
X95707820Y-63804951D01*
X95706772Y-63804417D01*
X95699054Y-63800485D01*
X95648259Y-63752512D01*
X95631463Y-63684692D01*
X95653999Y-63618556D01*
X95699054Y-63579515D01*
X95707816Y-63575051D01*
X95738633Y-63552661D01*
X95879786Y-63450109D01*
X95879788Y-63450106D01*
X95879792Y-63450104D01*
X96030104Y-63299792D01*
X96030106Y-63299788D01*
X96030109Y-63299786D01*
X96155048Y-63127820D01*
X96155047Y-63127820D01*
X96155051Y-63127816D01*
X96251557Y-62938412D01*
X96317246Y-62736243D01*
X96350500Y-62526287D01*
X96350500Y-62450013D01*
X98600000Y-62450013D01*
X98600000Y-63750000D01*
X99750000Y-63750000D01*
X100250000Y-63750000D01*
X101399999Y-63750000D01*
X101399999Y-63397648D01*
X103949500Y-63397648D01*
X103949500Y-63602351D01*
X103981522Y-63804534D01*
X104044781Y-63999223D01*
X104087248Y-64082567D01*
X104137585Y-64181359D01*
X104137715Y-64181613D01*
X104258028Y-64347213D01*
X104402786Y-64491971D01*
X104523226Y-64579474D01*
X104568390Y-64612287D01*
X104680345Y-64669331D01*
X104750776Y-64705218D01*
X104750778Y-64705218D01*
X104750781Y-64705220D01*
X104855137Y-64739127D01*
X104945465Y-64768477D01*
X104982710Y-64774376D01*
X105147648Y-64800500D01*
X105147649Y-64800500D01*
X105352351Y-64800500D01*
X105352352Y-64800500D01*
X105554534Y-64768477D01*
X105749219Y-64705220D01*
X105931610Y-64612287D01*
X106025479Y-64544088D01*
X106097213Y-64491971D01*
X106097215Y-64491968D01*
X106097219Y-64491966D01*
X106241966Y-64347219D01*
X106241968Y-64347215D01*
X106241971Y-64347213D01*
X106362286Y-64181611D01*
X106362415Y-64181359D01*
X106389795Y-64127621D01*
X106437769Y-64076826D01*
X106505589Y-64060030D01*
X106571725Y-64082567D01*
X106610765Y-64127621D01*
X106638141Y-64181350D01*
X106638147Y-64181359D01*
X106670523Y-64225921D01*
X106670524Y-64225922D01*
X107350000Y-63546446D01*
X107350000Y-63552661D01*
X107377259Y-63654394D01*
X107429920Y-63745606D01*
X107504394Y-63820080D01*
X107595606Y-63872741D01*
X107697339Y-63900000D01*
X107703553Y-63900000D01*
X107024076Y-64579474D01*
X107068650Y-64611859D01*
X107250968Y-64704755D01*
X107445582Y-64767990D01*
X107647683Y-64800000D01*
X107852317Y-64800000D01*
X108054417Y-64767990D01*
X108249031Y-64704755D01*
X108431349Y-64611859D01*
X108475921Y-64579474D01*
X107796447Y-63900000D01*
X107802661Y-63900000D01*
X107904394Y-63872741D01*
X107995606Y-63820080D01*
X108070080Y-63745606D01*
X108122741Y-63654394D01*
X108150000Y-63552661D01*
X108150000Y-63546448D01*
X108829474Y-64225922D01*
X108829474Y-64225921D01*
X108861859Y-64181349D01*
X108954755Y-63999031D01*
X109017990Y-63804417D01*
X109050000Y-63602317D01*
X109050000Y-63397682D01*
X109021546Y-63218036D01*
X109021545Y-63218034D01*
X109017988Y-63195577D01*
X108954755Y-63000968D01*
X108861859Y-62818650D01*
X108829474Y-62774077D01*
X108829474Y-62774076D01*
X108150000Y-63453551D01*
X108150000Y-63447339D01*
X108122741Y-63345606D01*
X108070080Y-63254394D01*
X107995606Y-63179920D01*
X107904394Y-63127259D01*
X107802661Y-63100000D01*
X107796446Y-63100000D01*
X108475922Y-62420524D01*
X108475921Y-62420523D01*
X108431359Y-62388147D01*
X108431350Y-62388141D01*
X108249031Y-62295244D01*
X108054417Y-62232009D01*
X107852317Y-62200000D01*
X107647683Y-62200000D01*
X107445582Y-62232009D01*
X107250968Y-62295244D01*
X107068644Y-62388143D01*
X107024077Y-62420523D01*
X107024077Y-62420524D01*
X107703554Y-63100000D01*
X107697339Y-63100000D01*
X107595606Y-63127259D01*
X107504394Y-63179920D01*
X107429920Y-63254394D01*
X107377259Y-63345606D01*
X107350000Y-63447339D01*
X107350000Y-63453553D01*
X106670524Y-62774077D01*
X106670523Y-62774077D01*
X106638143Y-62818644D01*
X106610765Y-62872378D01*
X106562790Y-62923174D01*
X106494969Y-62939969D01*
X106428834Y-62917431D01*
X106389795Y-62872378D01*
X106362287Y-62818390D01*
X106362285Y-62818387D01*
X106362284Y-62818385D01*
X106241971Y-62652786D01*
X106097213Y-62508028D01*
X105931613Y-62387715D01*
X105931612Y-62387714D01*
X105931610Y-62387713D01*
X105837560Y-62339792D01*
X105749223Y-62294781D01*
X105554534Y-62231522D01*
X105379995Y-62203878D01*
X105352352Y-62199500D01*
X105147648Y-62199500D01*
X105123329Y-62203351D01*
X104945465Y-62231522D01*
X104750776Y-62294781D01*
X104568386Y-62387715D01*
X104402786Y-62508028D01*
X104258028Y-62652786D01*
X104137715Y-62818386D01*
X104044781Y-63000776D01*
X103981522Y-63195465D01*
X103949500Y-63397648D01*
X101399999Y-63397648D01*
X101399999Y-62450028D01*
X101399998Y-62450013D01*
X101389505Y-62347302D01*
X101334358Y-62180880D01*
X101334356Y-62180875D01*
X101242315Y-62031654D01*
X101118345Y-61907684D01*
X100969124Y-61815643D01*
X100969119Y-61815641D01*
X100802697Y-61760494D01*
X100802690Y-61760493D01*
X100699986Y-61750000D01*
X100250000Y-61750000D01*
X100250000Y-63750000D01*
X99750000Y-63750000D01*
X99750000Y-61750000D01*
X99300028Y-61750000D01*
X99300012Y-61750001D01*
X99197302Y-61760494D01*
X99030880Y-61815641D01*
X99030875Y-61815643D01*
X98881654Y-61907684D01*
X98757684Y-62031654D01*
X98665643Y-62180875D01*
X98665641Y-62180880D01*
X98610494Y-62347302D01*
X98610493Y-62347309D01*
X98600000Y-62450013D01*
X96350500Y-62450013D01*
X96350500Y-62313713D01*
X96317246Y-62103757D01*
X96251557Y-61901588D01*
X96155051Y-61712184D01*
X96155049Y-61712181D01*
X96155048Y-61712179D01*
X96030109Y-61540213D01*
X95939909Y-61450013D01*
X122600000Y-61450013D01*
X122600000Y-62750000D01*
X123750000Y-62750000D01*
X124250000Y-62750000D01*
X125399999Y-62750000D01*
X125399999Y-61874038D01*
X129399500Y-61874038D01*
X129399500Y-62125962D01*
X129429237Y-62313713D01*
X129438910Y-62374785D01*
X129516760Y-62614383D01*
X129585861Y-62750000D01*
X129620683Y-62818342D01*
X129631132Y-62838848D01*
X129779201Y-63042649D01*
X129779205Y-63042654D01*
X129957345Y-63220794D01*
X129957350Y-63220798D01*
X130108574Y-63330668D01*
X130161155Y-63368870D01*
X130304184Y-63441747D01*
X130385616Y-63483239D01*
X130385618Y-63483239D01*
X130385621Y-63483241D01*
X130625215Y-63561090D01*
X130874038Y-63600500D01*
X130874039Y-63600500D01*
X131125961Y-63600500D01*
X131125962Y-63600500D01*
X131374785Y-63561090D01*
X131614379Y-63483241D01*
X131838845Y-63368870D01*
X132042656Y-63220793D01*
X132220793Y-63042656D01*
X132368870Y-62838845D01*
X132483241Y-62614379D01*
X132561090Y-62374785D01*
X132600500Y-62125962D01*
X132600500Y-61874038D01*
X132561090Y-61625215D01*
X132552901Y-61600013D01*
X137450000Y-61600013D01*
X137450000Y-61750000D01*
X138400000Y-61750000D01*
X138900000Y-61750000D01*
X139849999Y-61750000D01*
X139849999Y-61600028D01*
X139849998Y-61600013D01*
X139839505Y-61497302D01*
X139784358Y-61330880D01*
X139784356Y-61330875D01*
X139692315Y-61181654D01*
X139568345Y-61057684D01*
X139419124Y-60965643D01*
X139419119Y-60965641D01*
X139252697Y-60910494D01*
X139252690Y-60910493D01*
X139149986Y-60900000D01*
X138900000Y-60900000D01*
X138900000Y-61750000D01*
X138400000Y-61750000D01*
X138400000Y-60900000D01*
X138150029Y-60900000D01*
X138150012Y-60900001D01*
X138047302Y-60910494D01*
X137880880Y-60965641D01*
X137880875Y-60965643D01*
X137731654Y-61057684D01*
X137607684Y-61181654D01*
X137515643Y-61330875D01*
X137515641Y-61330880D01*
X137460494Y-61497302D01*
X137460493Y-61497309D01*
X137450000Y-61600013D01*
X132552901Y-61600013D01*
X132483241Y-61385621D01*
X132483239Y-61385618D01*
X132483239Y-61385616D01*
X132441747Y-61304184D01*
X132368870Y-61161155D01*
X132326439Y-61102753D01*
X132220798Y-60957350D01*
X132220794Y-60957345D01*
X132042654Y-60779205D01*
X132042649Y-60779201D01*
X131838848Y-60631132D01*
X131838847Y-60631131D01*
X131838845Y-60631130D01*
X131738905Y-60580208D01*
X131614383Y-60516760D01*
X131374785Y-60438910D01*
X131160687Y-60405000D01*
X131125962Y-60399500D01*
X130874038Y-60399500D01*
X130839313Y-60405000D01*
X130625214Y-60438910D01*
X130385616Y-60516760D01*
X130161151Y-60631132D01*
X129957350Y-60779201D01*
X129957345Y-60779205D01*
X129779205Y-60957345D01*
X129779201Y-60957350D01*
X129631132Y-61161151D01*
X129516760Y-61385616D01*
X129438910Y-61625214D01*
X129427885Y-61694821D01*
X129399500Y-61874038D01*
X125399999Y-61874038D01*
X125399999Y-61450028D01*
X125399998Y-61450013D01*
X125389505Y-61347302D01*
X125334358Y-61180880D01*
X125334356Y-61180875D01*
X125242315Y-61031654D01*
X125118345Y-60907684D01*
X124969124Y-60815643D01*
X124969119Y-60815641D01*
X124802697Y-60760494D01*
X124802690Y-60760493D01*
X124699986Y-60750000D01*
X124250000Y-60750000D01*
X124250000Y-62750000D01*
X123750000Y-62750000D01*
X123750000Y-60750000D01*
X123300028Y-60750000D01*
X123300012Y-60750001D01*
X123197302Y-60760494D01*
X123030880Y-60815641D01*
X123030875Y-60815643D01*
X122881654Y-60907684D01*
X122757684Y-61031654D01*
X122665643Y-61180875D01*
X122665641Y-61180880D01*
X122610494Y-61347302D01*
X122610493Y-61347309D01*
X122600000Y-61450013D01*
X95939909Y-61450013D01*
X95879786Y-61389890D01*
X95707820Y-61264951D01*
X95518414Y-61168444D01*
X95518413Y-61168443D01*
X95518412Y-61168443D01*
X95316243Y-61102754D01*
X95316241Y-61102753D01*
X95316240Y-61102753D01*
X95154957Y-61077208D01*
X95106287Y-61069500D01*
X94893713Y-61069500D01*
X94845042Y-61077208D01*
X94683760Y-61102753D01*
X94481585Y-61168444D01*
X94292179Y-61264951D01*
X94120213Y-61389890D01*
X93969890Y-61540213D01*
X93844951Y-61712179D01*
X93748444Y-61901585D01*
X93748443Y-61901587D01*
X93748443Y-61901588D01*
X93734336Y-61945004D01*
X93682753Y-62103760D01*
X93649500Y-62313713D01*
X93649500Y-62526286D01*
X93677996Y-62706206D01*
X93682754Y-62736243D01*
X93739849Y-62911964D01*
X93748444Y-62938414D01*
X93844951Y-63127820D01*
X93969890Y-63299786D01*
X94120213Y-63450109D01*
X94292182Y-63575050D01*
X94300946Y-63579516D01*
X94351742Y-63627491D01*
X94368536Y-63695312D01*
X94345998Y-63761447D01*
X94300946Y-63800484D01*
X94292182Y-63804949D01*
X94120213Y-63929890D01*
X93969890Y-64080213D01*
X93844951Y-64252179D01*
X93748444Y-64441585D01*
X93748443Y-64441587D01*
X93748443Y-64441588D01*
X93728556Y-64502795D01*
X93682753Y-64643760D01*
X93654979Y-64819119D01*
X93649500Y-64853713D01*
X93649500Y-65066287D01*
X93653625Y-65092328D01*
X93671873Y-65207547D01*
X93682754Y-65276243D01*
X93715533Y-65377127D01*
X93748444Y-65478414D01*
X93844951Y-65667820D01*
X93969890Y-65839786D01*
X94083430Y-65953326D01*
X94116915Y-66014649D01*
X94111931Y-66084341D01*
X94070059Y-66140274D01*
X94039083Y-66157189D01*
X93907669Y-66206203D01*
X93907664Y-66206206D01*
X93792455Y-66292452D01*
X93792452Y-66292455D01*
X93706206Y-66407664D01*
X93706202Y-66407671D01*
X93670786Y-66502628D01*
X93628915Y-66558562D01*
X93563450Y-66582979D01*
X93495177Y-66568127D01*
X93466923Y-66546976D01*
X91386818Y-64466871D01*
X91353333Y-64405548D01*
X91350499Y-64379190D01*
X91350499Y-63102129D01*
X91350498Y-63102123D01*
X91350497Y-63102116D01*
X91344091Y-63042517D01*
X91328594Y-63000968D01*
X91293797Y-62907671D01*
X91293793Y-62907664D01*
X91207547Y-62792455D01*
X91207544Y-62792452D01*
X91092335Y-62706206D01*
X91092328Y-62706202D01*
X90960917Y-62657189D01*
X90904983Y-62615318D01*
X90880566Y-62549853D01*
X90895418Y-62481580D01*
X90916563Y-62453332D01*
X91030104Y-62339792D01*
X91049052Y-62313713D01*
X91141723Y-62186161D01*
X91155051Y-62167816D01*
X91251557Y-61978412D01*
X91317246Y-61776243D01*
X91350500Y-61566287D01*
X91350500Y-61353713D01*
X91335382Y-61258268D01*
X91344336Y-61188979D01*
X91370171Y-61151195D01*
X92734548Y-59786819D01*
X92795871Y-59753334D01*
X92822229Y-59750500D01*
X98475501Y-59750500D01*
X98542540Y-59770185D01*
X98588295Y-59822989D01*
X98599501Y-59874500D01*
X98599501Y-60550018D01*
X98610000Y-60652796D01*
X98610001Y-60652799D01*
X98663962Y-60815641D01*
X98665186Y-60819334D01*
X98757288Y-60968656D01*
X98881344Y-61092712D01*
X99030666Y-61184814D01*
X99197203Y-61239999D01*
X99299991Y-61250500D01*
X100700008Y-61250499D01*
X100802797Y-61239999D01*
X100969334Y-61184814D01*
X101118656Y-61092712D01*
X101242712Y-60968656D01*
X101334814Y-60819334D01*
X101389999Y-60652797D01*
X101400500Y-60550009D01*
X101400499Y-57449992D01*
X101389999Y-57347203D01*
X101334814Y-57180666D01*
X101242712Y-57031344D01*
X101118656Y-56907288D01*
X100969334Y-56815186D01*
X100802797Y-56760001D01*
X100802795Y-56760000D01*
X100700010Y-56749500D01*
X99299998Y-56749500D01*
X99299981Y-56749501D01*
X99197203Y-56760000D01*
X99197200Y-56760001D01*
X99030668Y-56815185D01*
X99030663Y-56815187D01*
X98881342Y-56907289D01*
X98757289Y-57031342D01*
X98665187Y-57180663D01*
X98665186Y-57180666D01*
X98610001Y-57347203D01*
X98610001Y-57347204D01*
X98610000Y-57347204D01*
X98599500Y-57449983D01*
X98599500Y-58125500D01*
X98579815Y-58192539D01*
X98527011Y-58238294D01*
X98475500Y-58249500D01*
X92386080Y-58249500D01*
X92241092Y-58278340D01*
X92241082Y-58278343D01*
X92104511Y-58334912D01*
X92104498Y-58334919D01*
X91981584Y-58417048D01*
X91981580Y-58417051D01*
X91554635Y-58843996D01*
X91493312Y-58877481D01*
X91423620Y-58872497D01*
X91367687Y-58830625D01*
X91344481Y-58775713D01*
X91317246Y-58603759D01*
X91317246Y-58603757D01*
X91251557Y-58401588D01*
X91155051Y-58212184D01*
X91155049Y-58212181D01*
X91155048Y-58212179D01*
X91030109Y-58040213D01*
X90879786Y-57889890D01*
X90707820Y-57764951D01*
X90518414Y-57668444D01*
X90518413Y-57668443D01*
X90518412Y-57668443D01*
X90316243Y-57602754D01*
X90316241Y-57602753D01*
X90316240Y-57602753D01*
X90154957Y-57577208D01*
X90106287Y-57569500D01*
X89893713Y-57569500D01*
X89845042Y-57577208D01*
X89683760Y-57602753D01*
X89481585Y-57668444D01*
X89292179Y-57764951D01*
X89120213Y-57889890D01*
X88969890Y-58040213D01*
X88844951Y-58212179D01*
X88748444Y-58401585D01*
X88682753Y-58603760D01*
X88649500Y-58813713D01*
X88649500Y-59026286D01*
X88682753Y-59236239D01*
X88748444Y-59438414D01*
X88844951Y-59627820D01*
X88969890Y-59799786D01*
X89120213Y-59950109D01*
X89292182Y-60075050D01*
X89300946Y-60079516D01*
X89351742Y-60127491D01*
X89368536Y-60195312D01*
X89345998Y-60261447D01*
X89300946Y-60300484D01*
X89292182Y-60304949D01*
X89120213Y-60429890D01*
X88969890Y-60580213D01*
X88844951Y-60752179D01*
X88748444Y-60941585D01*
X88682753Y-61143760D01*
X88649500Y-61353713D01*
X88649500Y-61566286D01*
X88680259Y-61760494D01*
X88682754Y-61776243D01*
X88732923Y-61930648D01*
X88748444Y-61978414D01*
X88844951Y-62167820D01*
X88969890Y-62339786D01*
X89083430Y-62453326D01*
X89116915Y-62514649D01*
X89111931Y-62584341D01*
X89070059Y-62640274D01*
X89039083Y-62657189D01*
X88907669Y-62706203D01*
X88907664Y-62706206D01*
X88792455Y-62792452D01*
X88792452Y-62792455D01*
X88706206Y-62907664D01*
X88706202Y-62907671D01*
X88655908Y-63042517D01*
X88649501Y-63102116D01*
X88649501Y-63102123D01*
X88649500Y-63102135D01*
X88649500Y-64897870D01*
X88649501Y-64897876D01*
X88655908Y-64957483D01*
X88706202Y-65092328D01*
X88706206Y-65092335D01*
X88792452Y-65207544D01*
X88792455Y-65207547D01*
X88907664Y-65293793D01*
X88907671Y-65293797D01*
X89042517Y-65344091D01*
X89042516Y-65344091D01*
X89049444Y-65344835D01*
X89102127Y-65350500D01*
X90379191Y-65350499D01*
X90446230Y-65370184D01*
X90466872Y-65386818D01*
X92313181Y-67233127D01*
X92346666Y-67294450D01*
X92349500Y-67320808D01*
X92349500Y-68493104D01*
X92329815Y-68560143D01*
X92277011Y-68605898D01*
X92207853Y-68615842D01*
X92144297Y-68586817D01*
X92122399Y-68561997D01*
X92120454Y-68559086D01*
X91909175Y-68347807D01*
X91875690Y-68286484D01*
X91875262Y-68284432D01*
X91865894Y-68237334D01*
X91808802Y-68099500D01*
X91798016Y-68073459D01*
X91798009Y-68073446D01*
X91699464Y-67925965D01*
X91699461Y-67925961D01*
X91574038Y-67800538D01*
X91574034Y-67800535D01*
X91426553Y-67701990D01*
X91426540Y-67701983D01*
X91262667Y-67634106D01*
X91262658Y-67634103D01*
X91088694Y-67599500D01*
X91088691Y-67599500D01*
X90911309Y-67599500D01*
X90911306Y-67599500D01*
X90737341Y-67634103D01*
X90737332Y-67634106D01*
X90573459Y-67701983D01*
X90573446Y-67701990D01*
X90425965Y-67800535D01*
X90425961Y-67800538D01*
X90300538Y-67925961D01*
X90300535Y-67925965D01*
X90201990Y-68073446D01*
X90201983Y-68073459D01*
X90134106Y-68237332D01*
X90134103Y-68237341D01*
X90099500Y-68411304D01*
X90099500Y-68588695D01*
X90110104Y-68642006D01*
X90103877Y-68711598D01*
X90061013Y-68766775D01*
X89995123Y-68790019D01*
X89959660Y-68785267D01*
X89959414Y-68786418D01*
X89952795Y-68785000D01*
X89850010Y-68774500D01*
X89074998Y-68774500D01*
X89074980Y-68774501D01*
X88972203Y-68785000D01*
X88972200Y-68785001D01*
X88805668Y-68840185D01*
X88805663Y-68840187D01*
X88656342Y-68932289D01*
X88532289Y-69056342D01*
X88440187Y-69205663D01*
X88440186Y-69205666D01*
X88385001Y-69372203D01*
X88385001Y-69372204D01*
X88385000Y-69372204D01*
X88374500Y-69474983D01*
X88374500Y-70525001D01*
X88374501Y-70525019D01*
X88385000Y-70627796D01*
X88385001Y-70627799D01*
X88417376Y-70725498D01*
X88440186Y-70794334D01*
X88532287Y-70943655D01*
X88532289Y-70943657D01*
X88656345Y-71067713D01*
X88662013Y-71072195D01*
X88660570Y-71074019D01*
X88699820Y-71117654D01*
X88712000Y-71171248D01*
X88712000Y-71876000D01*
X88692315Y-71943039D01*
X88639511Y-71988794D01*
X88588000Y-72000000D01*
X87624500Y-72000000D01*
X87557461Y-71980315D01*
X87511706Y-71927511D01*
X87500500Y-71876000D01*
X87500500Y-56624500D01*
X87520185Y-56557461D01*
X87572989Y-56511706D01*
X87624500Y-56500500D01*
X141876000Y-56500500D01*
X141943039Y-56520185D01*
G37*
%TD.AperFunction*%
%TD*%
M02*
